<svg width="1440" height="5790" viewBox="0 0 1440 5790" fill="none" xmlns="http://www.w3.org/2000/svg">
<g opacity="0.14">
<circle cx="1468" cy="715" r="249" stroke="#0BDBB6" stroke-opacity="0.7" stroke-width="2"/>
<circle cx="1468" cy="715" r="221" stroke="#0BDBB6" stroke-opacity="0.7" stroke-width="2"/>
<circle cx="1468" cy="715" r="187" stroke="#0BDBB6" stroke-opacity="0.7" stroke-width="2"/>
<circle cx="1468" cy="715" r="150" stroke="#0BDBB6" stroke-opacity="0.7" stroke-width="2"/>
<circle cx="1468" cy="715" r="117" stroke="#0BDBB6" stroke-opacity="0.7" stroke-width="2"/>
<circle cx="1468" cy="715" r="89" stroke="#0BDBB6" stroke-opacity="0.7" stroke-width="2"/>
<circle cx="1468" cy="715" r="62" stroke="#0BDBB6" stroke-opacity="0.7" stroke-width="2"/>
</g>
<g opacity="0.14">
<circle cx="1468" cy="1680" r="249" stroke="#0BDBB6" stroke-opacity="0.7" stroke-width="2"/>
<circle cx="1468" cy="1680" r="221" stroke="#0BDBB6" stroke-opacity="0.7" stroke-width="2"/>
<circle cx="1468" cy="1680" r="187" stroke="#0BDBB6" stroke-opacity="0.7" stroke-width="2"/>
<circle cx="1468" cy="1680" r="150" stroke="#0BDBB6" stroke-opacity="0.7" stroke-width="2"/>
<circle cx="1468" cy="1680" r="117" stroke="#0BDBB6" stroke-opacity="0.7" stroke-width="2"/>
<circle cx="1468" cy="1680" r="89" stroke="#0BDBB6" stroke-opacity="0.7" stroke-width="2"/>
<circle cx="1468" cy="1680" r="62" stroke="#0BDBB6" stroke-opacity="0.7" stroke-width="2"/>
</g>
<g opacity="0.14">
<circle cx="1468" cy="2645" r="249" stroke="#0BDBB6" stroke-opacity="0.7" stroke-width="2"/>
<circle cx="1468" cy="2645" r="221" stroke="#0BDBB6" stroke-opacity="0.7" stroke-width="2"/>
<circle cx="1468" cy="2645" r="187" stroke="#0BDBB6" stroke-opacity="0.7" stroke-width="2"/>
<circle cx="1468" cy="2645" r="150" stroke="#0BDBB6" stroke-opacity="0.7" stroke-width="2"/>
<circle cx="1468" cy="2645" r="117" stroke="#0BDBB6" stroke-opacity="0.7" stroke-width="2"/>
<circle cx="1468" cy="2645" r="89" stroke="#0BDBB6" stroke-opacity="0.7" stroke-width="2"/>
<circle cx="1468" cy="2645" r="62" stroke="#0BDBB6" stroke-opacity="0.7" stroke-width="2"/>
</g>
<g opacity="0.14">
<circle cx="1468" cy="3610" r="249" stroke="#0BDBB6" stroke-opacity="0.7" stroke-width="2"/>
<circle cx="1468" cy="3610" r="221" stroke="#0BDBB6" stroke-opacity="0.7" stroke-width="2"/>
<circle cx="1468" cy="3610" r="187" stroke="#0BDBB6" stroke-opacity="0.7" stroke-width="2"/>
<circle cx="1468" cy="3610" r="150" stroke="#0BDBB6" stroke-opacity="0.7" stroke-width="2"/>
<circle cx="1468" cy="3610" r="117" stroke="#0BDBB6" stroke-opacity="0.7" stroke-width="2"/>
<circle cx="1468" cy="3610" r="89" stroke="#0BDBB6" stroke-opacity="0.7" stroke-width="2"/>
<circle cx="1468" cy="3610" r="62" stroke="#0BDBB6" stroke-opacity="0.7" stroke-width="2"/>
</g>
<g opacity="0.14">
<circle cx="1468" cy="4575" r="249" stroke="#0BDBB6" stroke-opacity="0.7" stroke-width="2"/>
<circle cx="1468" cy="4575" r="221" stroke="#0BDBB6" stroke-opacity="0.7" stroke-width="2"/>
<circle cx="1468" cy="4575" r="187" stroke="#0BDBB6" stroke-opacity="0.7" stroke-width="2"/>
<circle cx="1468" cy="4575" r="150" stroke="#0BDBB6" stroke-opacity="0.7" stroke-width="2"/>
<circle cx="1468" cy="4575" r="117" stroke="#0BDBB6" stroke-opacity="0.7" stroke-width="2"/>
<circle cx="1468" cy="4575" r="89" stroke="#0BDBB6" stroke-opacity="0.7" stroke-width="2"/>
<circle cx="1468" cy="4575" r="62" stroke="#0BDBB6" stroke-opacity="0.7" stroke-width="2"/>
</g>
<g opacity="0.14">
<circle cx="170" cy="250" r="249" stroke="#0BDBB6" stroke-opacity="0.7" stroke-width="2"/>
<circle cx="170" cy="250" r="221" stroke="#0BDBB6" stroke-opacity="0.7" stroke-width="2"/>
<circle cx="170" cy="250" r="187" stroke="#0BDBB6" stroke-opacity="0.7" stroke-width="2"/>
<circle cx="170" cy="250" r="150" stroke="#0BDBB6" stroke-opacity="0.7" stroke-width="2"/>
<circle cx="170" cy="250" r="117" stroke="#0BDBB6" stroke-opacity="0.7" stroke-width="2"/>
<circle cx="170" cy="250" r="89" stroke="#0BDBB6" stroke-opacity="0.7" stroke-width="2"/>
<circle cx="170" cy="250" r="62" stroke="#0BDBB6" stroke-opacity="0.7" stroke-width="2"/>
</g>
<g opacity="0.14">
<circle cx="170" cy="1215" r="249" stroke="#0BDBB6" stroke-opacity="0.7" stroke-width="2"/>
<circle cx="170" cy="1215" r="221" stroke="#0BDBB6" stroke-opacity="0.7" stroke-width="2"/>
<circle cx="170" cy="1215" r="187" stroke="#0BDBB6" stroke-opacity="0.7" stroke-width="2"/>
<circle cx="170" cy="1215" r="150" stroke="#0BDBB6" stroke-opacity="0.7" stroke-width="2"/>
<circle cx="170" cy="1215" r="117" stroke="#0BDBB6" stroke-opacity="0.7" stroke-width="2"/>
<circle cx="170" cy="1215" r="89" stroke="#0BDBB6" stroke-opacity="0.7" stroke-width="2"/>
<circle cx="170" cy="1215" r="62" stroke="#0BDBB6" stroke-opacity="0.7" stroke-width="2"/>
</g>
<g opacity="0.14">
<circle cx="170" cy="2180" r="249" stroke="#0BDBB6" stroke-opacity="0.7" stroke-width="2"/>
<circle cx="170" cy="2180" r="221" stroke="#0BDBB6" stroke-opacity="0.7" stroke-width="2"/>
<circle cx="170" cy="2180" r="187" stroke="#0BDBB6" stroke-opacity="0.7" stroke-width="2"/>
<circle cx="170" cy="2180" r="150" stroke="#0BDBB6" stroke-opacity="0.7" stroke-width="2"/>
<circle cx="170" cy="2180" r="117" stroke="#0BDBB6" stroke-opacity="0.7" stroke-width="2"/>
<circle cx="170" cy="2180" r="89" stroke="#0BDBB6" stroke-opacity="0.7" stroke-width="2"/>
<circle cx="170" cy="2180" r="62" stroke="#0BDBB6" stroke-opacity="0.7" stroke-width="2"/>
</g>
<g opacity="0.14">
<circle cx="170" cy="3145" r="249" stroke="#0BDBB6" stroke-opacity="0.7" stroke-width="2"/>
<circle cx="170" cy="3145" r="221" stroke="#0BDBB6" stroke-opacity="0.7" stroke-width="2"/>
<circle cx="170" cy="3145" r="187" stroke="#0BDBB6" stroke-opacity="0.7" stroke-width="2"/>
<circle cx="170" cy="3145" r="150" stroke="#0BDBB6" stroke-opacity="0.7" stroke-width="2"/>
<circle cx="170" cy="3145" r="117" stroke="#0BDBB6" stroke-opacity="0.7" stroke-width="2"/>
<circle cx="170" cy="3145" r="89" stroke="#0BDBB6" stroke-opacity="0.7" stroke-width="2"/>
<circle cx="170" cy="3145" r="62" stroke="#0BDBB6" stroke-opacity="0.7" stroke-width="2"/>
</g>
<g opacity="0.14">
<circle cx="170" cy="4110" r="249" stroke="#0BDBB6" stroke-opacity="0.7" stroke-width="2"/>
<circle cx="170" cy="4110" r="221" stroke="#0BDBB6" stroke-opacity="0.7" stroke-width="2"/>
<circle cx="170" cy="4110" r="187" stroke="#0BDBB6" stroke-opacity="0.7" stroke-width="2"/>
<circle cx="170" cy="4110" r="150" stroke="#0BDBB6" stroke-opacity="0.7" stroke-width="2"/>
<circle cx="170" cy="4110" r="117" stroke="#0BDBB6" stroke-opacity="0.7" stroke-width="2"/>
<circle cx="170" cy="4110" r="89" stroke="#0BDBB6" stroke-opacity="0.7" stroke-width="2"/>
<circle cx="170" cy="4110" r="62" stroke="#0BDBB6" stroke-opacity="0.7" stroke-width="2"/>
</g>
<g opacity="0.14">
<circle cx="1468" cy="5540" r="249" stroke="#0BDBB6" stroke-opacity="0.7" stroke-width="2"/>
<circle cx="1468" cy="5540" r="221" stroke="#0BDBB6" stroke-opacity="0.7" stroke-width="2"/>
<circle cx="1468" cy="5540" r="187" stroke="#0BDBB6" stroke-opacity="0.7" stroke-width="2"/>
<circle cx="1468" cy="5540" r="150" stroke="#0BDBB6" stroke-opacity="0.7" stroke-width="2"/>
<circle cx="1468" cy="5540" r="117" stroke="#0BDBB6" stroke-opacity="0.7" stroke-width="2"/>
<circle cx="1468" cy="5540" r="89" stroke="#0BDBB6" stroke-opacity="0.7" stroke-width="2"/>
<circle cx="1468" cy="5540" r="62" stroke="#0BDBB6" stroke-opacity="0.7" stroke-width="2"/>
</g>
</svg>
