<svg width="20" height="15" viewBox="0 0 20 15" fill="none" xmlns="http://www.w3.org/2000/svg">
<path d="M11.885 5.59201V4.66201C12.4223 4.39001 12.9977 4.18601 13.611 4.05001C14.2243 3.91401 14.854 3.84601 15.5 3.84601C15.8693 3.84601 16.224 3.86967 16.564 3.91701C16.9033 3.96501 17.254 4.03234 17.616 4.11901V5.02701C17.2667 4.91567 16.9267 4.83834 16.596 4.79501C16.264 4.75234 15.8987 4.73101 15.5 4.73101C14.8533 4.73101 14.2227 4.80367 13.608 4.94901C12.992 5.09434 12.4173 5.30867 11.884 5.59201M11.884 11.054V10.084C12.396 9.81267 12.9683 9.609 13.601 9.47301C14.2337 9.33701 14.8667 9.26901 15.5 9.26901C15.8693 9.26901 16.224 9.293 16.564 9.34101C16.9033 9.38767 17.254 9.45467 17.616 9.54201V10.45C17.2667 10.3387 16.9267 10.2613 16.596 10.218C16.264 10.1753 15.8987 10.154 15.5 10.154C14.8533 10.154 14.2227 10.2323 13.608 10.389C12.992 10.545 12.4173 10.7667 11.884 11.054ZM11.884 8.34201V7.37301C12.4213 7.10101 12.9967 6.89734 13.61 6.76201C14.2233 6.62667 14.8533 6.55867 15.5 6.55801C15.8693 6.55801 16.2237 6.58134 16.563 6.62801C16.903 6.67601 17.2537 6.74367 17.615 6.83101V7.73901C17.2663 7.62701 16.9263 7.54967 16.595 7.50701C16.2637 7.46367 15.8987 7.44201 15.5 7.44201C14.8533 7.44201 14.2227 7.52134 13.608 7.68001C12.992 7.83801 12.4173 8.05867 11.884 8.34201ZM4.5 12.038C5.37333 12.038 6.22233 12.1383 7.047 12.339C7.87167 12.5397 8.68933 12.8663 9.5 13.319V3.50801C8.778 2.99267 7.98267 2.60601 7.114 2.34801C6.244 2.09067 5.37267 1.96201 4.5 1.96201C3.9 1.96201 3.37467 1.99767 2.924 2.06901C2.47333 2.14034 1.973 2.27367 1.423 2.46901C1.26967 2.52034 1.16067 2.59434 1.096 2.69101C1.032 2.78701 1 2.89267 1 3.00801V12.023C1 12.203 1.064 12.3343 1.192 12.417C1.32 12.4997 1.461 12.5097 1.615 12.447C1.98033 12.3237 2.40267 12.2247 2.882 12.15C3.36133 12.0753 3.90067 12.0373 4.5 12.038ZM10.5 13.319C11.3107 12.867 12.1283 12.5403 12.953 12.339C13.7777 12.1377 14.6267 12.0377 15.5 12.039C16.1 12.039 16.6393 12.076 17.118 12.15C17.5967 12.224 18.019 12.3227 18.385 12.446C18.5383 12.51 18.6793 12.5003 18.808 12.417C18.9367 12.3337 19.0007 12.2023 19 12.023V3.00801C19 2.89267 18.968 2.79001 18.904 2.70001C18.84 2.61067 18.731 2.53401 18.577 2.47001C18.027 2.27467 17.5267 2.14134 17.076 2.07001C16.6253 1.99867 16.1 1.96234 15.5 1.96101C14.6267 1.96101 13.7557 2.08967 12.887 2.34701C12.0177 2.60501 11.222 2.99167 10.5 3.50701V13.319ZM10 14.769C9.18667 14.213 8.31333 13.7857 7.38 13.487C6.44667 13.1883 5.48667 13.039 4.5 13.039C3.98 13.039 3.46867 13.0823 2.966 13.169C2.464 13.2563 1.97533 13.3963 1.5 13.589C1.13733 13.7337 0.796667 13.69 0.478 13.458C0.159333 13.226 0 12.9053 0 12.496V2.83101C0 2.58367 0.0649999 2.35401 0.195 2.14201C0.325 1.93001 0.507333 1.78267 0.742 1.70001C1.32933 1.44134 1.94033 1.25367 2.575 1.13701C3.20967 1.02034 3.85133 0.962006 4.5 0.962006C5.48 0.962006 6.43533 1.10301 7.366 1.38501C8.298 1.66701 9.176 2.07701 10 2.61501C10.8247 2.07701 11.7027 1.66701 12.634 1.38501C13.5653 1.10301 14.5207 0.962006 15.5 0.962006C16.1487 0.962006 16.7903 1.02034 17.425 1.13701C18.0597 1.25367 18.6707 1.44134 19.258 1.70001C19.4927 1.78334 19.675 1.93067 19.805 2.14201C19.935 2.35334 20 2.58301 20 2.83101V12.496C20 12.9053 19.828 13.2197 19.484 13.439C19.1393 13.6577 18.7727 13.6947 18.384 13.55C17.922 13.37 17.4493 13.24 16.966 13.16C16.4833 13.0793 15.9947 13.039 15.5 13.039C14.5133 13.039 13.5533 13.1883 12.62 13.487C11.6867 13.7857 10.8133 14.213 10 14.769Z" fill="#979797"/>
</svg>
