<svg width="360" height="164" viewBox="0 0 360 164" fill="none" xmlns="http://www.w3.org/2000/svg">
<g clip-path="url(#clip0_307_27497)">
<rect width="552" height="164" rx="16" fill="#00866E"/>
<path d="M9.28567 60.1396L9.44262 57.4522H11.6138L12.0585 53.2808L14.0204 53L13.5495 57.4522H15.5638L16.0085 53.2808L17.9442 53L17.4733 57.4522H19.6707L19.5137 60.1396H17.1856L16.8978 63.1077H18.9382L18.7813 65.8352H16.6101L16.1654 70.2072L14.2035 70.488L14.6744 65.8352H12.6863L12.2416 70.2072L10.2797 70.488L10.7506 65.8352H8.55322L8.71017 63.1077H11.0383L11.3522 60.1396H9.28567ZM13.2618 60.1396L12.974 63.1077H14.9621L15.276 60.1396H13.2618Z" fill="#FFF1E6"/>
<path d="M24.8547 65.224C26.2147 66.584 27.5747 67.264 28.9347 67.264C29.6387 67.264 30.1987 67.104 30.6147 66.784C31.0467 66.448 31.2627 66.024 31.2627 65.512C31.2627 64.984 31.0067 64.544 30.4947 64.192C29.9827 63.824 29.3587 63.504 28.6227 63.232C27.9027 62.96 27.1827 62.656 26.4627 62.32C25.7427 61.968 25.1267 61.472 24.6147 60.832C24.1027 60.192 23.8467 59.416 23.8467 58.504C23.8467 57.064 24.4467 55.824 25.6467 54.784C26.8467 53.728 28.2707 53.2 29.9187 53.2C30.6707 53.2 31.3987 53.28 32.1027 53.44C32.8067 53.6 33.4867 53.832 34.1427 54.136L32.5107 57.64C32.0627 57.288 31.4467 56.968 30.6627 56.68C29.8947 56.376 29.2147 56.224 28.6227 56.224C28.0467 56.224 27.5747 56.368 27.2067 56.656C26.8547 56.928 26.6787 57.296 26.6787 57.76C26.6787 58.224 26.9347 58.64 27.4467 59.008C27.9587 59.36 28.5747 59.672 29.2947 59.944C30.0307 60.216 30.7587 60.52 31.4787 60.856C32.2147 61.176 32.8387 61.656 33.3507 62.296C33.8627 62.936 34.1187 63.712 34.1187 64.624C34.1187 66.128 33.5187 67.448 32.3187 68.584C31.1187 69.704 29.7187 70.264 28.1187 70.264C26.9187 70.264 25.8547 69.976 24.9267 69.4C24.1107 68.904 23.5347 68.464 23.1987 68.08L22.9827 67.816L24.8547 65.224ZM34.741 56.2L35.005 53.44H46.405L46.141 56.2L41.965 55.84L41.869 63.76L42.157 70H38.797L39.085 64.168L38.989 55.864L34.741 56.2ZM58.0288 70.12L56.8528 65.44H51.1168L49.8448 70L46.7728 69.76L48.8848 63.928L52.1008 53.608L56.3968 53.296L59.4928 63.568L61.4848 69.592L58.0288 70.12ZM54.2368 56.416H53.9248L51.8608 62.896H56.1328L54.2368 56.416ZM68.0507 63.616H66.6827V63.76L66.9707 70H63.7547L64.0427 64.168L63.7547 53.44H68.9627C70.4987 53.44 71.7227 53.856 72.6347 54.688C73.5467 55.52 74.0027 56.624 74.0027 58C74.0027 59.04 73.7307 59.992 73.1867 60.856C72.6587 61.704 71.9387 62.376 71.0267 62.872L75.2027 68.776L72.2987 70.264L68.5547 63.592C68.4427 63.608 68.2747 63.616 68.0507 63.616ZM68.0987 55.864H66.9227L66.7547 61.288H68.3867C69.1867 61.288 69.8027 61.024 70.2347 60.496C70.6827 59.968 70.9067 59.216 70.9067 58.24C70.9067 56.656 69.9707 55.864 68.0987 55.864ZM75.7332 56.2L75.9972 53.44H87.3972L87.1332 56.2L82.9572 55.84L82.8612 63.76L83.1492 70H79.7892L80.0772 64.168L79.9812 55.864L75.7332 56.2ZM33.0147 86.008H27.9027L27.7587 90.424H32.3427L32.0787 92.968H27.6867L27.6627 93.76L27.9507 100H24.5907L24.8787 94.168L24.5907 83.44H33.2787L33.0147 86.008ZM40.2718 100.264C38.8318 100.264 37.6158 99.824 36.6238 98.944C35.6478 98.064 35.1598 96.976 35.1598 95.68L34.9198 83.92L38.3758 83.32L37.9918 93.832C37.9918 94.952 38.2478 95.824 38.7598 96.448C39.2878 97.072 40.0958 97.384 41.1838 97.384C42.2718 97.384 43.0558 97.08 43.5358 96.472C44.0158 95.864 44.2558 94.816 44.2558 93.328L43.9678 83.92L47.3278 83.32L47.0638 93.88C47.0638 95.768 46.4318 97.304 45.1678 98.488C43.9038 99.672 42.2718 100.264 40.2718 100.264ZM63.5367 83.392L63.2247 93.76L63.4887 99.472L60.6567 100.072L53.5047 88.504V93.76L53.8407 100H50.8407L51.1287 94.168L50.8407 83.512L53.7207 83.368L60.8487 95.104L60.6087 83.752L63.5367 83.392ZM72.3075 100.264C71.1715 100.264 69.5315 100.176 67.3875 100L67.6755 94.168L67.3875 83.44H73.7955C75.9555 83.44 77.6435 84.088 78.8595 85.384C80.0755 86.68 80.6835 88.48 80.6835 90.784C80.6835 93.696 79.9315 96.008 78.4275 97.72C76.9235 99.416 74.8835 100.264 72.3075 100.264ZM72.9315 86.032C71.8755 86.032 71.1315 86.04 70.6995 86.056L70.4595 93.76L70.6275 97.648C71.9715 97.744 72.8755 97.792 73.3395 97.792C74.6035 97.792 75.5955 97.28 76.3155 96.256C77.0515 95.232 77.4195 93.744 77.4195 91.792C77.4195 89.84 77.0595 88.392 76.3395 87.448C75.6355 86.504 74.4995 86.032 72.9315 86.032ZM87.621 93.616H86.253V93.76L86.541 100H83.325L83.613 94.168L83.325 83.44H88.533C90.069 83.44 91.293 83.856 92.205 84.688C93.117 85.52 93.573 86.624 93.573 88C93.573 89.04 93.301 89.992 92.757 90.856C92.229 91.704 91.509 92.376 90.597 92.872L94.773 98.776L91.869 100.264L88.125 93.592C88.013 93.608 87.845 93.616 87.621 93.616ZM87.669 85.864H86.493L86.325 91.288H87.957C88.757 91.288 89.373 91.024 89.805 90.496C90.253 89.968 90.477 89.216 90.477 88.24C90.477 86.656 89.541 85.864 87.669 85.864ZM106.919 100.12L105.743 95.44H100.007L98.7355 100L95.6635 99.76L97.7755 93.928L100.991 83.608L105.287 83.296L108.383 93.568L110.375 99.592L106.919 100.12ZM103.127 86.416H102.815L100.751 92.896H105.023L103.127 86.416ZM116.053 83.32L115.717 93.76L116.005 100H112.645L112.933 94.168L112.645 83.92L116.053 83.32ZM120.152 95.224C121.512 96.584 122.872 97.264 124.232 97.264C124.936 97.264 125.496 97.104 125.912 96.784C126.344 96.448 126.56 96.024 126.56 95.512C126.56 94.984 126.304 94.544 125.792 94.192C125.28 93.824 124.656 93.504 123.92 93.232C123.2 92.96 122.48 92.656 121.76 92.32C121.04 91.968 120.424 91.472 119.912 90.832C119.4 90.192 119.144 89.416 119.144 88.504C119.144 87.064 119.744 85.824 120.944 84.784C122.144 83.728 123.568 83.2 125.216 83.2C125.968 83.2 126.696 83.28 127.4 83.44C128.104 83.6 128.784 83.832 129.44 84.136L127.808 87.64C127.36 87.288 126.744 86.968 125.96 86.68C125.192 86.376 124.512 86.224 123.92 86.224C123.344 86.224 122.872 86.368 122.504 86.656C122.152 86.928 121.976 87.296 121.976 87.76C121.976 88.224 122.232 88.64 122.744 89.008C123.256 89.36 123.872 89.672 124.592 89.944C125.328 90.216 126.056 90.52 126.776 90.856C127.512 91.176 128.136 91.656 128.648 92.296C129.16 92.936 129.416 93.712 129.416 94.624C129.416 96.128 128.816 97.448 127.616 98.584C126.416 99.704 125.016 100.264 123.416 100.264C122.216 100.264 121.152 99.976 120.224 99.4C119.408 98.904 118.832 98.464 118.496 98.08L118.28 97.816L120.152 95.224ZM135.366 83.32L135.03 93.76L135.318 100H131.958L132.246 94.168L131.958 83.92L135.366 83.32ZM151.896 83.392L151.584 93.76L151.848 99.472L149.016 100.072L141.864 88.504V93.76L142.2 100H139.2L139.488 94.168L139.2 83.512L142.08 83.368L149.208 95.104L148.968 83.752L151.896 83.392ZM161.531 100.264C159.435 100.264 157.747 99.56 156.467 98.152C155.187 96.744 154.547 94.88 154.547 92.56C154.547 89.92 155.347 87.696 156.947 85.888C158.547 84.08 160.515 83.176 162.851 83.176C163.779 83.176 164.635 83.264 165.419 83.44C166.219 83.6 166.787 83.768 167.123 83.944L167.603 84.208L166.211 87.544C165.731 87.224 165.083 86.928 164.267 86.656C163.451 86.368 162.731 86.224 162.107 86.224C160.811 86.224 159.771 86.68 158.987 87.592C158.203 88.504 157.811 89.712 157.811 91.216C157.811 93.248 158.179 94.832 158.915 95.968C159.667 97.104 160.707 97.672 162.035 97.672C162.899 97.672 163.715 97.552 164.483 97.312V93.592H161.387L161.627 91.168H167.387L167.171 95.08L167.339 99.232C164.987 99.92 163.051 100.264 161.531 100.264Z" fill="#FFF1E6"/>
<path d="M185.458 120.178C174.362 93.5848 180.255 61.4025 200.182 39.8485C213.999 24.8945 233.397 15.3215 253.435 9.25669C276.869 2.12157 301.694 -0.717606 326.273 0.151986C338.856 0.597931 351.966 2.19589 362.372 8.85533C379.563 19.8553 384.803 41.5579 384.565 61.1126C384.186 93.9415 371.38 127.387 345.82 149.774C308.658 182.283 249.317 181.964 210.386 152.004C199.439 143.545 190.639 132.59 185.458 120.178Z" fill="#0BDBB6"/>
<path d="M226.188 22.8282C225.746 23.3149 225.199 23.696 224.59 23.943C224.063 24.1862 223.479 24.2788 222.903 24.2106C222.616 24.1749 222.341 24.0714 222.102 23.9086C221.863 23.7457 221.666 23.5282 221.528 23.2741C221.371 22.8874 221.298 22.4721 221.312 22.0552L221.245 19.8255C221.201 19.3268 221.241 18.8243 221.364 18.339C221.922 16.6221 223.639 17.0235 224.783 17.7816C226.827 19.1491 227.503 21.2971 226.188 22.8282Z" fill="#0BDBB6"/>
<path d="M207.681 27.4957C207.782 28.0414 207.759 28.6026 207.614 29.1383C207.511 29.6208 207.277 30.0656 206.938 30.4241C206.766 30.5992 206.556 30.731 206.323 30.8085C206.09 30.886 205.843 30.9072 205.6 30.8701C205.258 30.7784 204.939 30.6164 204.664 30.3944L203.133 29.2795C202.777 29.0548 202.461 28.7737 202.196 28.4471C201.319 27.191 202.471 26.2174 203.571 25.8458C205.518 25.1917 207.317 25.8235 207.681 27.4957Z" fill="#0BDBB6"/>
<path d="M200.435 27.0943C200.901 27.1912 201.339 27.3947 201.713 27.6889C202.059 27.9299 202.332 28.2617 202.501 28.6477C202.583 28.8411 202.617 29.0511 202.602 29.2605C202.586 29.4699 202.521 29.6725 202.412 29.8517C202.224 30.091 201.989 30.2884 201.721 30.4315L200.361 31.2788C200.068 31.4883 199.741 31.6443 199.394 31.7396C198.116 32.0146 197.737 30.7957 197.796 29.7997C197.863 28.0308 198.948 26.8268 200.435 27.0943Z" fill="#0BDBB6"/>
<path d="M193.002 41.491C192.924 41.8523 192.764 42.1907 192.533 42.4795C192.347 42.746 192.089 42.9546 191.79 43.0815C191.641 43.1452 191.478 43.1717 191.316 43.1588C191.155 43.1458 190.998 43.0938 190.861 43.0072C190.678 42.8636 190.526 42.684 190.415 42.4795L189.761 41.4167C189.6 41.1927 189.481 40.9407 189.412 40.6734C189.196 39.6849 190.155 39.395 190.898 39.4471C192.31 39.5288 193.239 40.3836 193.002 41.491Z" fill="#0BDBB6"/>
<path d="M187.8 54.2079C187.538 53.6219 187.413 52.9838 187.436 52.3423C187.424 51.7758 187.571 51.2172 187.859 50.7295C188.006 50.4885 188.208 50.2856 188.448 50.1371C188.689 49.9886 188.96 49.8987 189.242 49.8748C189.649 49.8899 190.049 49.9886 190.416 50.1646L192.423 50.9748C192.879 51.1333 193.306 51.3669 193.686 51.666C195.002 52.8403 193.969 54.2153 192.839 54.9362C190.862 56.222 188.677 55.9842 187.8 54.2079Z" fill="#0BDBB6"/>
<path d="M194.786 68.3741C194.936 68.8749 194.974 69.4028 194.897 69.92C194.849 70.3821 194.674 70.822 194.392 71.191C194.248 71.3708 194.064 71.5147 193.855 71.6115C193.646 71.7082 193.418 71.7551 193.188 71.7484C192.863 71.6945 192.552 71.5757 192.273 71.3991L190.72 70.5443C190.367 70.3717 190.045 70.1405 189.769 69.8606C188.817 68.7829 189.769 67.772 190.772 67.2964C192.526 66.4416 194.273 66.8579 194.786 68.3741Z" fill="#0BDBB6"/>
<path d="M175.12 73.5322C174.747 74.1486 174.238 74.6721 173.633 75.0633C173.113 75.4337 172.501 75.6548 171.864 75.7025C171.547 75.7194 171.23 75.6609 170.939 75.5317C170.648 75.4026 170.392 75.2064 170.192 74.9592C169.944 74.5748 169.781 74.1413 169.716 73.6883L169.181 71.3099C169.032 70.7886 168.975 70.2455 169.01 69.7045C169.263 67.7424 171.188 67.8167 172.585 68.4039C175.045 69.4147 176.22 71.6444 175.12 73.5322Z" fill="#0BDBB6"/>
<path d="M176.026 85.2159C175.413 85.6828 174.701 86.0032 173.945 86.1523C173.285 86.3218 172.59 86.3064 171.938 86.1077C171.614 86.0013 171.321 85.82 171.08 85.5784C170.84 85.3369 170.66 85.042 170.556 84.7179C170.455 84.2425 170.455 83.7514 170.556 83.276C170.689 82.4138 170.816 81.5591 170.95 80.6969C171.004 80.1191 171.16 79.5555 171.41 79.0321C172.421 77.174 174.309 78.0064 175.468 79.1287C177.55 81.1206 177.869 83.7442 176.026 85.2159Z" fill="#0BDBB6"/>
<path d="M186.045 97.4868C185.534 97.499 185.026 97.3974 184.559 97.1895C184.13 97.0311 183.756 96.7524 183.481 96.3868C183.343 96.2063 183.251 95.9951 183.212 95.7712C183.173 95.5474 183.189 95.3175 183.258 95.101C183.388 94.8011 183.581 94.5325 183.823 94.3132L185.042 93.0571C185.292 92.7579 185.594 92.5062 185.934 92.3139C187.205 91.6821 187.918 92.8713 188.119 93.9341C188.461 95.8294 187.628 97.3902 186.045 97.4868Z" fill="#0BDBB6"/>
<path d="M278.475 107.729C277.732 110.486 276.246 112.419 274.759 114.752C274.016 116.001 273.607 117.77 273.116 119.16C272.574 120.646 272.054 122.177 271.533 123.686C269.475 129.743 267.527 135.823 265.164 141.762C264.16 144.296 263.558 147.514 260.868 148.815C258.824 149.804 255.873 148.956 253.785 148.436C248.372 147.179 243.499 144.232 239.871 140.023L239.745 139.866C237.671 137.369 235.65 133.809 235.843 130.472C235.86 129.987 235.953 129.508 236.118 129.052C236.861 127.031 237.961 125.061 238.853 123.106C240.784 119.087 242.431 114.937 243.781 110.687C243.858 110.481 243.858 110.254 243.781 110.048C243.7 109.91 243.588 109.792 243.454 109.706C241.469 108.264 239.121 106.941 237.686 104.882C236.943 103.827 236.794 102.214 236.46 100.988C235.717 98.2896 235.189 95.376 233.353 93.176C232.55 92.2247 231.532 91.4146 230.796 90.426C230.395 89.8835 230.15 89.2072 229.741 88.6795C226.211 84.1457 220.896 81.6558 216.534 78.1031C215.597 77.3599 215.419 76.6166 215.679 75.9477C216.288 74.4018 219.306 73.2646 220.792 73.064C222.137 72.9223 223.496 73.0706 224.778 73.4989C226.06 73.9271 227.235 74.6253 228.225 75.5464C230.336 77.3302 231.651 79.8646 233.621 81.693C234.275 82.3284 235.028 82.853 235.85 83.2463C236.311 83.4619 236.757 83.6923 237.218 83.9227C238.519 84.5693 239.819 85.2457 241.157 85.7659C241.157 85.7659 241.157 85.7659 241.157 85.7213C240.522 83.3299 239.676 80.9994 238.63 78.7572C235.709 72.4768 235.159 65.2525 232.06 59.0613C231.955 58.8891 231.89 58.6956 231.869 58.495C231.849 58.2944 231.873 58.0917 231.941 57.9018C232.253 57.1066 233.427 56.6978 234.394 56.6235C235.792 56.3839 237.229 56.533 238.548 57.0545C238.363 56.2072 238.058 55.0849 238.66 54.4532C238.988 54.1704 239.381 53.9737 239.804 53.8809C240.825 53.6105 241.893 53.5682 242.933 53.757C243.972 53.9458 244.957 54.3612 245.817 54.9735C246.42 54.8807 247.036 54.9316 247.616 55.1221C250.676 56.2053 253.421 58.0283 255.606 60.4289C256.765 61.6329 256.921 63.4018 257.404 65.0146C257.947 66.8356 258.542 68.6417 259.173 70.4403C259.805 72.3916 260.642 74.2703 261.671 76.0444C262.094 76.7356 264.012 79.6268 265.03 79.1065C265.177 79.0246 265.296 78.9003 265.372 78.7497C265.441 78.5878 265.474 78.4128 265.469 78.2369C265.538 74.5964 265.036 70.9674 263.982 67.4822C263.846 67.1081 263.823 66.7025 263.915 66.3153C263.933 66.2544 263.961 66.1968 263.997 66.1444C264.428 65.4606 265.483 65.639 266.085 65.966C268.969 67.5565 269.876 70.8937 270.835 73.8443C271.637 76.3045 271.935 78.7869 272.5 81.2768C273.117 84.0385 273.93 86.7531 274.93 89.4004C276.067 92.3734 277.405 95.0862 278.319 98.0889C279.255 101.227 279.309 104.562 278.475 107.729Z" fill="url(#paint0_linear_307_27497)"/>
<path d="M256.11 79.1138C252.268 74.3571 251.428 68.0916 250.387 62.2869C250.165 61.0308 250.157 59.5443 249.421 58.5261C248.607 57.5616 247.661 56.716 246.612 56.0139C247.678 56.5238 248.639 57.2297 249.444 58.095C250.09 59.0109 250.524 60.0596 250.715 61.1646C251.725 65.5348 251.829 70.1801 253.799 74.2085C254.775 76.057 255.938 77.8004 257.27 79.4111C256.859 79.466 256.444 79.3594 256.11 79.1138Z" fill="#D96D5F"/>
<path d="M239.663 57.8646C240.947 59.3124 242.036 60.9215 242.904 62.6511C243.509 64.1528 243.972 65.7081 244.286 67.2964C245.187 71.0545 246.357 74.743 247.787 78.3335C248.3 79.6267 248.835 79.9761 250.158 79.9463C247.928 77.7166 246.991 74.543 246.114 71.5105L244.063 64.3829C243.804 63.3262 243.423 62.3034 242.926 61.3356C242.153 60.1281 241.201 59.0455 240.102 58.1248L239.663 57.8646Z" fill="#D96D5F"/>
<path d="M258.638 96.9145C253.661 92.1148 247.769 88.3662 241.313 85.8922C248.441 88.0104 255.516 91.4665 259.812 97.5388C259.404 97.3649 259.011 97.156 258.638 96.9145Z" fill="url(#paint1_linear_307_27497)"/>
<path d="M270.99 90.27C267.49 92.1134 264.604 94.9396 262.688 98.4011C263.045 96.3343 264.131 94.4642 265.751 93.1315C267.317 91.8794 269.09 90.9109 270.99 90.27Z" fill="url(#paint2_linear_307_27497)"/>
<path d="M268.218 86.8064C260.838 85.2804 253.263 84.9293 245.772 85.7659C253.279 85.9219 260.474 86.2341 268.218 86.8064Z" fill="url(#paint3_linear_307_27497)"/>
<path d="M267.936 111.579C265.952 112.684 264.336 114.349 263.291 116.365C262.258 118.374 261.405 120.471 260.741 122.631C258.556 128.938 256.104 135.132 253.383 141.212C254.426 139.653 255.326 138.004 256.074 136.284C258.551 130.635 261.016 124.992 263.469 119.353C264.611 116.296 266.478 113.562 268.91 111.385C268.579 111.415 268.253 111.48 267.936 111.579Z" fill="url(#paint4_linear_307_27497)"/>
<path d="M261.64 116.112C260.086 120.703 258.297 125.21 256.281 129.617C256.281 129.55 256.229 129.231 256.281 129.164C258.192 124.593 258.957 119.777 261.64 116.112Z" fill="url(#paint5_linear_307_27497)"/>
<g style="mix-blend-mode:multiply">
<path d="M255.434 93.5252C254.647 92.611 252.952 91.8232 252.001 91.1988C250.626 90.2921 249.236 89.4299 247.809 88.6198C245.661 87.3934 243.401 86.7394 241.194 85.736C240.559 83.3445 239.713 81.0141 238.667 78.7718C235.746 72.4915 235.196 65.2672 232.097 59.076C231.992 58.9038 231.927 58.7103 231.906 58.5097C231.885 58.3091 231.91 58.1064 231.978 57.9165C232.171 59.0537 233.249 59.8266 233.91 60.8895C234.85 62.3963 235.599 64.0141 236.14 65.7057C237.069 68.478 237.626 71.3617 238.437 74.1638C239.089 76.4832 239.988 78.7258 241.12 80.8529C241.863 82.2428 242.896 84.0637 244.249 84.9631C245.601 85.8624 247.965 85.7806 249.652 85.9961C249.077 86.3383 248.53 86.726 248.017 87.1556C250.961 88.6582 253.504 90.8419 255.434 93.5252Z" fill="#F0D3E1"/>
</g>
<g style="mix-blend-mode:multiply">
<path d="M252.388 111.415C251.653 111.714 250.875 111.89 250.083 111.935C248.76 112.069 247.445 112.21 246.137 112.359C244.026 117.406 241.856 122.43 240.629 127.751C239.662 131.72 239.363 135.822 239.745 139.889C237.671 137.391 235.65 133.831 235.843 130.494C235.86 130.009 235.953 129.53 236.118 129.074C236.861 127.053 237.961 125.083 238.853 123.128C240.784 119.109 242.431 114.959 243.781 110.709C243.858 110.503 243.858 110.276 243.781 110.07C243.7 109.932 243.588 109.815 243.454 109.728C241.469 108.286 239.121 106.963 237.686 104.904C236.943 103.849 236.794 102.236 236.46 101.01C235.717 98.3117 235.189 95.3982 233.353 93.1982C232.55 92.2468 231.532 91.4367 230.796 90.4482C230.395 89.9056 230.15 89.2293 229.741 88.7016C226.211 84.1678 220.896 81.6779 216.534 78.1252C215.597 77.382 215.419 76.6388 215.679 75.9698C215.948 76.6519 216.392 77.2515 216.965 77.709C219.969 80.1297 223.348 82.0451 226.969 83.38C228.137 83.8934 229.41 84.1275 230.685 84.0637C231.317 84.0248 231.925 83.8043 232.435 83.4286C232.945 83.0529 233.336 82.5379 233.561 81.9455L233.628 81.7151C234.282 82.3505 235.035 82.8752 235.858 83.2685C236.319 83.484 236.765 83.7144 237.225 83.9448C236.806 83.9989 236.419 84.1989 236.133 84.5097C235.661 85.1586 235.402 85.9374 235.39 86.7394C235.188 89.8042 235.438 92.882 236.133 95.8738C236.428 97.5633 236.876 99.2226 237.471 100.831C238.589 103.553 240.379 105.946 242.673 107.788C245.342 109.78 249.281 110.553 252.388 111.415Z" fill="#F0D3E1"/>
</g>
<g style="mix-blend-mode:multiply">
<path d="M266.769 79.5895C266.761 79.6505 266.741 79.7091 266.709 79.7616C266.677 79.8141 266.634 79.8593 266.583 79.8942C266.519 79.9212 266.448 79.9319 266.378 79.9254C266.308 79.919 266.241 79.8955 266.182 79.857C265.771 79.674 265.394 79.4227 265.067 79.1138C265.214 79.0319 265.333 78.9076 265.409 78.7571C265.478 78.5952 265.511 78.4202 265.506 78.2442C265.575 74.6037 265.074 70.9747 264.019 67.4895C263.883 67.1155 263.86 66.7098 263.952 66.3226C264.331 68.9611 266.011 71.2652 266.732 73.8442C267.255 75.722 267.267 77.7051 266.769 79.5895Z" fill="#F0D3E1"/>
</g>
<path d="M289.779 107.729C290.523 110.486 292.009 112.418 293.496 114.752C294.276 116.001 294.648 117.77 295.138 119.16C295.681 120.646 296.201 122.177 296.721 123.686C298.78 129.743 300.727 135.823 303.091 141.762C304.094 144.296 304.696 147.514 307.387 148.815C309.431 149.803 312.381 148.956 314.477 148.436C319.877 147.171 324.735 144.225 328.354 140.022L328.48 139.866C330.554 137.369 332.575 133.809 332.389 130.472C332.366 129.987 332.271 129.509 332.107 129.052C331.364 127.031 330.264 125.061 329.379 123.106C327.446 119.087 325.797 114.937 324.444 110.687C324.354 110.485 324.341 110.258 324.407 110.048C324.49 109.911 324.601 109.795 324.734 109.706C326.718 108.264 329.067 106.941 330.502 104.882C331.245 103.827 331.401 102.214 331.728 100.987C332.471 98.2894 332.999 95.3759 334.842 93.1759C335.637 92.2246 336.656 91.4145 337.391 90.4259C337.793 89.8834 338.038 89.207 338.447 88.6793C341.985 84.1456 347.291 81.6557 351.654 78.103C352.591 77.3598 352.769 76.6165 352.509 75.9476C351.899 74.4017 348.882 73.2645 347.395 73.0638C346.051 72.9222 344.692 73.0705 343.41 73.4988C342.128 73.927 340.952 74.6252 339.963 75.5463C337.852 77.33 336.537 79.8645 334.567 81.6929C333.913 82.3283 333.16 82.8529 332.337 83.2462C331.884 83.4618 331.431 83.6922 330.977 83.9226C329.669 84.5692 328.368 85.2456 327.031 85.7658C327.031 85.7658 327.031 85.7658 327.031 85.7212C327.666 83.3298 328.511 80.9993 329.558 78.7571C332.479 72.4767 333.036 65.2524 336.135 59.0612C336.238 58.8879 336.301 58.6942 336.32 58.4939C336.339 58.2935 336.314 58.0914 336.247 57.9017C335.935 57.1065 334.76 56.6977 333.794 56.6234C332.396 56.3842 330.959 56.5333 329.639 57.0544C329.825 56.2071 330.13 55.0848 329.528 54.4531C329.202 54.1716 328.811 53.975 328.391 53.8808C327.369 53.6103 326.299 53.5679 325.259 53.7567C324.219 53.9455 323.232 54.3609 322.37 54.9734C321.768 54.8811 321.151 54.932 320.572 55.122C317.512 56.2052 314.767 58.0282 312.582 60.4288C311.423 61.6328 311.266 63.4017 310.791 65.0145C310.241 66.833 309.649 68.6416 309.014 70.4402C308.386 72.3928 307.549 74.2717 306.517 76.0443C306.101 76.7355 304.176 79.6267 303.158 79.1064C303.011 79.0245 302.891 78.9001 302.816 78.7496C302.747 78.5877 302.714 78.4127 302.719 78.2368C302.65 74.5963 303.151 70.9673 304.206 67.4821C304.345 67.1088 304.368 66.702 304.273 66.3152C304.254 66.2543 304.227 66.1966 304.191 66.1443C303.76 65.4605 302.704 65.6389 302.102 65.9659C299.219 67.5564 298.312 70.8936 297.353 73.8442C296.55 76.3044 296.26 78.7868 295.688 81.2766C295.077 84.0402 294.265 86.7553 293.258 89.4003C292.121 92.3733 290.783 95.0861 289.869 98.0888C288.955 101.233 288.924 104.568 289.779 107.729Z" fill="url(#paint6_linear_307_27497)"/>
<path d="M312.114 79.1139C315.956 74.3571 316.804 68.0916 317.837 62.2869C318.06 61.0308 318.067 59.5444 318.811 58.5261C319.613 57.5702 320.546 56.732 321.583 56.0363C320.518 56.5479 319.557 57.2537 318.751 58.1173C318.104 59.0332 317.67 60.0819 317.48 61.1869C316.477 65.5572 316.365 70.2024 314.396 74.2308C313.423 76.0792 312.262 77.8225 310.932 79.4335C311.14 79.4609 311.352 79.4468 311.555 79.3919C311.758 79.3371 311.948 79.2426 312.114 79.1139Z" fill="#D96D5F"/>
<path d="M328.569 57.8646C327.275 59.311 326.176 60.9201 325.299 62.6511C324.693 64.1528 324.231 65.7081 323.916 67.2964C323.022 71.0539 321.86 74.7425 320.438 78.3335C319.925 79.6267 319.39 79.9761 318.067 79.9463C320.297 77.7166 321.241 74.543 322.11 71.5105L324.161 64.3829C324.668 61.8791 326.082 59.6506 328.13 58.1248L328.569 57.8646Z" fill="#D96D5F"/>
<path d="M309.594 96.9145C314.563 92.1089 320.451 88.355 326.904 85.8773C319.776 87.9956 312.701 91.4516 308.405 97.5239C308.818 97.3552 309.216 97.1513 309.594 96.9145Z" fill="url(#paint7_linear_307_27497)"/>
<path d="M297.242 90.27C300.739 92.1156 303.621 94.9414 305.536 98.4011C305.18 96.3343 304.093 94.4642 302.474 93.1315C300.909 91.881 299.139 90.9127 297.242 90.27Z" fill="url(#paint8_linear_307_27497)"/>
<path d="M300.029 86.8063C307.393 85.286 314.95 84.9348 322.423 85.7658C314.946 85.9219 307.751 86.234 300.029 86.8063Z" fill="url(#paint9_linear_307_27497)"/>
<path d="M300.289 111.579C302.273 112.684 303.889 114.349 304.934 116.365C305.959 118.375 306.805 120.472 307.461 122.631C309.646 128.938 312.099 135.132 314.819 141.212C313.777 139.653 312.877 138.004 312.129 136.284C309.651 130.635 307.186 124.992 304.734 119.353C303.584 116.309 301.715 113.588 299.286 111.423C299.625 111.438 299.961 111.49 300.289 111.579Z" fill="url(#paint10_linear_307_27497)"/>
<path d="M306.584 116.112C308.128 120.703 309.91 125.211 311.921 129.617C311.921 129.55 311.966 129.231 311.921 129.164C310.033 124.593 309.268 119.777 306.584 116.112Z" fill="url(#paint11_linear_307_27497)"/>
<g style="mix-blend-mode:multiply">
<path d="M312.79 93.5252C313.585 92.611 315.272 91.8232 316.224 91.1988C317.599 90.2921 318.989 89.4299 320.416 88.6198C322.564 87.3934 324.823 86.7394 327.031 85.736C327.666 83.3445 328.511 81.0141 329.558 78.7718C332.478 72.4915 333.036 65.2672 336.135 59.076C336.238 58.9026 336.301 58.709 336.32 58.5086C336.339 58.3083 336.314 58.1061 336.247 57.9165C336.053 59.0537 334.976 59.8266 334.314 60.8895C333.374 62.3963 332.625 64.0141 332.085 65.7057C331.156 68.478 330.598 71.3617 329.795 74.1638C329.137 76.4823 328.236 78.7245 327.105 80.8529C326.362 82.2428 325.329 84.0637 323.983 84.9631C322.638 85.8624 320.267 85.7806 318.572 85.9961C319.148 86.3383 319.694 86.726 320.208 87.1556C317.264 88.6596 314.722 90.8431 312.79 93.5252Z" fill="#F0D3E1"/>
</g>
<g style="mix-blend-mode:multiply">
<path d="M315.837 111.415C316.574 111.715 317.355 111.89 318.149 111.935C319.464 112.069 320.78 112.21 322.088 112.359C324.199 117.406 326.369 122.43 327.595 127.751C328.563 131.72 328.862 135.822 328.48 139.889C330.554 137.391 332.575 133.831 332.389 130.494C332.366 130.009 332.271 129.531 332.107 129.074C331.364 127.053 330.264 125.083 329.379 123.128C327.446 119.109 325.797 114.959 324.444 110.709C324.354 110.507 324.341 110.28 324.407 110.07C324.49 109.933 324.601 109.817 324.734 109.728C326.718 108.286 329.067 106.963 330.502 104.904C331.245 103.849 331.401 102.236 331.728 101.01C332.471 98.3117 332.999 95.3982 334.842 93.1982C335.637 92.2468 336.656 91.4367 337.391 90.4482C337.793 89.9056 338.038 89.2293 338.447 88.7016C341.985 84.1678 347.291 81.6779 351.654 78.1252C352.591 77.382 352.769 76.6388 352.509 75.9698C352.239 76.6519 351.796 77.2515 351.223 77.709C348.218 80.1297 344.839 82.0451 341.219 83.38C340.05 83.8934 338.778 84.1275 337.503 84.0637C336.871 84.0239 336.263 83.8031 335.753 83.4275C335.243 83.0518 334.852 82.5374 334.627 81.9455C334.627 81.8712 334.582 81.7894 334.56 81.7151C333.906 82.3505 333.153 82.8752 332.33 83.2685C331.877 83.484 331.423 83.7144 330.97 83.9448C331.386 84.0005 331.77 84.2004 332.055 84.5097C332.526 85.1586 332.786 85.9374 332.798 86.7394C333.004 89.8042 332.753 92.8826 332.055 95.8738C331.763 97.5641 331.315 99.2237 330.717 100.831C329.599 103.553 327.809 105.946 325.514 107.788C322.883 109.78 318.944 110.553 315.837 111.415Z" fill="#F0D3E1"/>
</g>
<g style="mix-blend-mode:multiply">
<path d="M301.456 79.5895C301.475 79.7116 301.542 79.8212 301.642 79.8942C301.706 79.9212 301.777 79.9319 301.847 79.9254C301.917 79.919 301.984 79.8955 302.043 79.857C302.455 79.6758 302.832 79.4243 303.158 79.1138C303.011 79.0319 302.892 78.9076 302.816 78.7571C302.747 78.5952 302.714 78.4202 302.719 78.2442C302.65 74.6037 303.151 70.9747 304.206 67.4895C304.345 67.1162 304.368 66.7094 304.273 66.3226C303.894 68.9611 302.214 71.2652 301.493 73.8442C300.97 75.722 300.958 77.7051 301.456 79.5895Z" fill="#F0D3E1"/>
</g>
<path d="M304.176 56.7794C302.291 59.0899 300.274 61.2886 298.134 63.3645C294.655 66.8726 289.393 70.6483 285.201 73.3091L285.008 73.4354C279.947 70.5445 275.139 67.2328 270.634 63.5354C266.226 60.0496 261.901 56.3632 258.653 51.7625C255.405 47.1619 253.316 41.5653 253.896 35.9761C254.476 30.3869 258.103 24.9612 263.446 23.2146C267.72 21.8173 272.157 22.9173 275.97 25.0579C279.426 26.9754 281.916 31.2045 283.759 34.772C283.871 35.0099 283.99 35.2328 284.101 35.4558C286.078 31.9997 288.234 28.4842 291.534 26.2842C297.145 22.568 305.469 23.8984 309.78 29.0788C317.123 37.8713 310.003 49.347 304.176 56.7794Z" fill="url(#paint12_linear_307_27497)"/>
<path d="M285.201 73.2867L285.008 73.4131C279.947 70.5221 275.139 67.2104 270.634 63.5131C266.226 60.0273 261.901 56.3408 258.653 51.7402C255.405 47.1395 253.316 41.5429 253.896 35.9537C254.476 30.3646 258.103 24.9389 263.446 23.1923C267.72 21.795 272.157 22.895 275.97 25.0355C279.426 26.9531 281.916 31.1821 283.759 34.7497L285.201 73.2867Z" fill="url(#paint13_linear_307_27497)"/>
</g>
<defs>
<linearGradient id="paint0_linear_307_27497" x1="222.732" y1="26.7526" x2="252.038" y2="99.7909" gradientUnits="userSpaceOnUse">
<stop stop-color="#F07969"/>
<stop offset="0.21" stop-color="#F4937C"/>
<stop offset="0.53" stop-color="#FAB596"/>
<stop offset="0.8" stop-color="#FECAA5"/>
<stop offset="0.98" stop-color="#FFD2AB"/>
</linearGradient>
<linearGradient id="paint1_linear_307_27497" x1="253.458" y1="70.0389" x2="248.508" y2="107.164" gradientUnits="userSpaceOnUse">
<stop stop-color="#F07969"/>
<stop offset="0.21" stop-color="#F4937C"/>
<stop offset="0.53" stop-color="#FAB596"/>
<stop offset="0.8" stop-color="#FECAA5"/>
<stop offset="0.98" stop-color="#FFD2AB"/>
</linearGradient>
<linearGradient id="paint2_linear_307_27497" x1="269.786" y1="72.2093" x2="264.836" y2="109.342" gradientUnits="userSpaceOnUse">
<stop stop-color="#F07969"/>
<stop offset="0.21" stop-color="#F4937C"/>
<stop offset="0.53" stop-color="#FAB596"/>
<stop offset="0.8" stop-color="#FECAA5"/>
<stop offset="0.98" stop-color="#FFD2AB"/>
</linearGradient>
<linearGradient id="paint3_linear_307_27497" x1="259.076" y1="70.7896" x2="254.134" y2="107.914" gradientUnits="userSpaceOnUse">
<stop stop-color="#F07969"/>
<stop offset="0.21" stop-color="#F4937C"/>
<stop offset="0.53" stop-color="#FAB596"/>
<stop offset="0.8" stop-color="#FECAA5"/>
<stop offset="0.98" stop-color="#FFD2AB"/>
</linearGradient>
<linearGradient id="paint4_linear_307_27497" x1="271.02" y1="92.6111" x2="257.345" y2="139.309" gradientUnits="userSpaceOnUse">
<stop stop-color="#F07969"/>
<stop offset="0.21" stop-color="#F4937C"/>
<stop offset="0.53" stop-color="#FAB596"/>
<stop offset="0.8" stop-color="#FECAA5"/>
<stop offset="0.98" stop-color="#FFD2AB"/>
</linearGradient>
<linearGradient id="paint5_linear_307_27497" x1="267.995" y1="91.7267" x2="254.327" y2="138.424" gradientUnits="userSpaceOnUse">
<stop stop-color="#F07969"/>
<stop offset="0.21" stop-color="#F4937C"/>
<stop offset="0.53" stop-color="#FAB596"/>
<stop offset="0.8" stop-color="#FECAA5"/>
<stop offset="0.98" stop-color="#FFD2AB"/>
</linearGradient>
<linearGradient id="paint6_linear_307_27497" x1="345.493" y1="26.7525" x2="316.187" y2="99.7908" gradientUnits="userSpaceOnUse">
<stop stop-color="#F07969"/>
<stop offset="0.21" stop-color="#F4937C"/>
<stop offset="0.53" stop-color="#FAB596"/>
<stop offset="0.8" stop-color="#FECAA5"/>
<stop offset="0.98" stop-color="#FFD2AB"/>
</linearGradient>
<linearGradient id="paint7_linear_307_27497" x1="314.767" y1="70.0388" x2="319.717" y2="107.164" gradientUnits="userSpaceOnUse">
<stop stop-color="#F07969"/>
<stop offset="0.21" stop-color="#F4937C"/>
<stop offset="0.53" stop-color="#FAB596"/>
<stop offset="0.8" stop-color="#FECAA5"/>
<stop offset="0.98" stop-color="#FFD2AB"/>
</linearGradient>
<linearGradient id="paint8_linear_307_27497" x1="298.446" y1="72.2093" x2="303.388" y2="109.342" gradientUnits="userSpaceOnUse">
<stop stop-color="#F07969"/>
<stop offset="0.21" stop-color="#F4937C"/>
<stop offset="0.53" stop-color="#FAB596"/>
<stop offset="0.8" stop-color="#FECAA5"/>
<stop offset="0.98" stop-color="#FFD2AB"/>
</linearGradient>
<linearGradient id="paint9_linear_307_27497" x1="309.148" y1="70.7895" x2="314.091" y2="107.914" gradientUnits="userSpaceOnUse">
<stop stop-color="#F07969"/>
<stop offset="0.21" stop-color="#F4937C"/>
<stop offset="0.53" stop-color="#FAB596"/>
<stop offset="0.8" stop-color="#FECAA5"/>
<stop offset="0.98" stop-color="#FFD2AB"/>
</linearGradient>
<linearGradient id="paint10_linear_307_27497" x1="297.205" y1="92.6112" x2="310.88" y2="139.309" gradientUnits="userSpaceOnUse">
<stop stop-color="#F07969"/>
<stop offset="0.21" stop-color="#F4937C"/>
<stop offset="0.53" stop-color="#FAB596"/>
<stop offset="0.8" stop-color="#FECAA5"/>
<stop offset="0.98" stop-color="#FFD2AB"/>
</linearGradient>
<linearGradient id="paint11_linear_307_27497" x1="300.23" y1="91.7267" x2="313.898" y2="138.425" gradientUnits="userSpaceOnUse">
<stop stop-color="#F07969"/>
<stop offset="0.21" stop-color="#F4937C"/>
<stop offset="0.53" stop-color="#FAB596"/>
<stop offset="0.8" stop-color="#FECAA5"/>
<stop offset="0.98" stop-color="#FFD2AB"/>
</linearGradient>
<linearGradient id="paint12_linear_307_27497" x1="248.106" y1="57.0915" x2="331.438" y2="29.0491" gradientUnits="userSpaceOnUse">
<stop stop-color="#E83A23"/>
<stop offset="1" stop-color="#7A0843"/>
</linearGradient>
<linearGradient id="paint13_linear_307_27497" x1="240.057" y1="17.841" x2="296.387" y2="62.4874" gradientUnits="userSpaceOnUse">
<stop stop-color="#E83A23"/>
<stop offset="1" stop-color="#7A0843"/>
</linearGradient>
<clipPath id="clip0_307_27497">
<rect width="360" height="164" rx="16" fill="white"/>
</clipPath>
</defs>
</svg>
