<svg width="20" height="20" viewBox="0 0 20 20" fill="none" xmlns="http://www.w3.org/2000/svg">
<path d="M10.587 0.527344C11.6581 0.5302 12.2017 0.535912 12.671 0.549241L12.8557 0.555905C13.069 0.563521 13.2794 0.573041 13.5336 0.584466C14.5465 0.632068 15.2377 0.79201 15.8442 1.02716C16.4725 1.26898 17.0018 1.59648 17.5312 2.12486C18.0153 2.60078 18.3899 3.17647 18.6289 3.81187C18.864 4.41832 19.024 5.1095 19.0716 6.12342C19.083 6.37666 19.0925 6.58706 19.1001 6.80127L19.1058 6.98596C19.1201 7.45436 19.1258 7.99798 19.1277 9.06902L19.1287 9.77924V11.0264C19.131 11.7208 19.1237 12.4152 19.1068 13.1095L19.1011 13.2942C19.0935 13.5084 19.0839 13.7188 19.0725 13.972C19.0249 14.9859 18.8631 15.6762 18.6289 16.2836C18.3906 16.9193 18.0159 17.4951 17.5312 17.9706C17.0551 18.4545 16.4795 18.8291 15.8442 19.0683C15.2377 19.3034 14.5465 19.4634 13.5336 19.511C13.3077 19.5216 13.0817 19.5311 12.8557 19.5395L12.671 19.5452C12.2017 19.5586 11.6581 19.5652 10.587 19.5671L9.87679 19.5681H8.63058C7.93584 19.5705 7.2411 19.5632 6.54657 19.5462L6.36187 19.5405C6.13587 19.5319 5.90992 19.5221 5.68402 19.511C4.67106 19.4634 3.97988 19.3034 3.37248 19.0683C2.73716 18.8297 2.16169 18.455 1.68642 17.9706C1.20188 17.4948 0.826946 16.9191 0.587771 16.2836C0.352618 15.6771 0.192676 14.9859 0.145074 13.972C0.134467 13.7461 0.124947 13.5202 0.116513 13.2942L0.111753 13.1095C0.0942086 12.4153 0.0862741 11.7208 0.0879517 11.0264V9.06902C0.0852946 8.3746 0.0922769 7.68018 0.108897 6.98596L0.115561 6.80127C0.123177 6.58706 0.132697 6.37666 0.144122 6.12342C0.191724 5.1095 0.351666 4.41927 0.586819 3.81187C0.825889 3.17582 1.20157 2.59995 1.68737 2.12486C2.16253 1.64073 2.73761 1.26611 3.37248 1.02716C3.97988 0.79201 4.6701 0.632068 5.68402 0.584466C5.93727 0.573041 6.14862 0.563521 6.36187 0.555905L6.54657 0.550193C7.24079 0.533278 7.93521 0.525978 8.62963 0.528296L10.587 0.527344ZM9.60832 5.28753C8.34584 5.28753 7.13507 5.78905 6.24236 6.68175C5.34965 7.57446 4.84814 8.78523 4.84814 10.0477C4.84814 11.3102 5.34965 12.521 6.24236 13.4137C7.13507 14.3064 8.34584 14.8079 9.60832 14.8079C10.8708 14.8079 12.0816 14.3064 12.9743 13.4137C13.867 12.521 14.3685 11.3102 14.3685 10.0477C14.3685 8.78523 13.867 7.57446 12.9743 6.68175C12.0816 5.78905 10.8708 5.28753 9.60832 5.28753ZM9.60832 7.1916C9.98339 7.19154 10.3548 7.26535 10.7013 7.40883C11.0479 7.5523 11.3628 7.76263 11.628 8.0278C11.8933 8.29297 12.1037 8.60779 12.2473 8.95429C12.3909 9.30078 12.4648 9.67217 12.4649 10.0472C12.465 10.4223 12.3912 10.7937 12.2477 11.1403C12.1042 11.4868 11.8939 11.8017 11.6287 12.0669C11.3635 12.3322 11.0487 12.5426 10.7022 12.6862C10.3557 12.8298 9.98434 12.9038 9.60927 12.9038C8.85178 12.9038 8.12532 12.6029 7.5897 12.0673C7.05407 11.5317 6.75316 10.8052 6.75316 10.0477C6.75316 9.29022 7.05407 8.56376 7.5897 8.02814C8.12532 7.49251 8.85178 7.1916 9.60927 7.1916M14.6075 3.85947C14.2918 3.85947 13.9892 3.98485 13.766 4.20803C13.5428 4.43121 13.4174 4.7339 13.4174 5.04952C13.4174 5.36514 13.5428 5.66783 13.766 5.89101C13.9892 6.11418 14.2918 6.23956 14.6075 6.23956C14.9231 6.23956 15.2258 6.11418 15.449 5.89101C15.6721 5.66783 15.7975 5.36514 15.7975 5.04952C15.7975 4.7339 15.6721 4.43121 15.449 4.20803C15.2258 3.98485 14.9231 3.85947 14.6075 3.85947Z" fill="#0BDBB6"/>
</svg>
