<svg width="20" height="20" viewBox="0 0 20 20" fill="none" xmlns="http://www.w3.org/2000/svg">
<path d="M4.29206 2.91782C4.29179 3.46983 4.07224 3.99911 3.68172 4.38925C3.2912 4.77938 2.76169 4.99839 2.20969 4.99812C1.65768 4.99784 1.1284 4.77829 0.738267 4.38777C0.348137 3.99725 0.129119 3.46775 0.129395 2.91574C0.129671 2.36374 0.349218 1.83445 0.739739 1.44432C1.13026 1.05419 1.65977 0.835173 2.21177 0.835449C2.76377 0.835725 3.29306 1.05527 3.68319 1.44579C4.07332 1.83632 4.29234 2.36582 4.29206 2.91782ZM4.3545 6.53935H0.191835V19.5685H4.3545V6.53935ZM10.9315 6.53935H6.78966V19.5685H10.8899V12.7313C10.8899 8.92247 15.8539 8.56865 15.8539 12.7313V19.5685H19.9645V11.316C19.9645 4.89509 12.6174 5.13445 10.8899 8.28767L10.9315 6.53935Z" fill="#0BDBB6"/>
</svg>
