<svg width="16" height="25" viewBox="0 0 16 25" fill="none" xmlns="http://www.w3.org/2000/svg">
<path d="M7.8105 15.5901C12.1241 15.5901 15.621 12.1001 15.621 7.79504C15.621 3.48997 12.1241 0 7.8105 0C3.49688 0 0 3.48997 0 7.79504C0 12.1001 3.49688 15.5901 7.8105 15.5901Z" fill="#0BDBB6"/>
<path d="M12.3034 7.79517C12.3034 10.271 10.2916 12.2788 7.81087 12.2788C5.33011 12.2788 3.31836 10.271 3.31836 7.79517C3.31836 5.31932 5.33011 3.31152 7.81087 3.31152C10.2916 3.31152 12.3034 5.31932 12.3034 7.79517Z" stroke="#CEF8F0" stroke-width="0.763866" stroke-miterlimit="10"/>
<path d="M7.81055 15.5911V20.979" stroke="#0BDBB6" stroke-width="0.916682" stroke-miterlimit="10" stroke-linecap="round" stroke-linejoin="round"/>
<path d="M9.22163 22.5917C9.22163 23.3697 8.59012 24 7.81051 24C7.0309 24 6.39941 23.3697 6.39941 22.5917C6.39941 21.8136 7.0309 21.1833 7.81051 21.1833C8.59012 21.1833 9.22163 21.8146 9.22163 22.5917Z" stroke="#0BDBB6" stroke-width="0.916682" stroke-miterlimit="10" stroke-linecap="round" stroke-linejoin="round"/>
</svg>
