<svg width="194" height="30" viewBox="0 0 194 30" fill="none" xmlns="http://www.w3.org/2000/svg">
<g clip-path="url(#clip0_241_6553)">
<path d="M46.3681 2.62842V7.01994H37.0951V13.2295H45.9707V17.6275H37.1017V23.6322H46.3747V28.0237H32.2334V2.62842H46.3681Z" fill="black"/>
<path d="M63.4438 28.5357C61.0578 28.5416 58.7144 27.9245 56.6613 26.7497C54.5768 25.5872 52.84 23.9218 51.6207 21.9164C50.3715 19.8929 49.7208 17.5767 49.7397 15.2203C49.7268 12.9341 50.3588 10.6877 51.5678 8.72266C52.7704 6.73545 54.4809 5.08003 56.5354 3.91503C58.59 2.72546 60.9428 2.10326 63.3378 2.11616C65.9575 2.10726 68.5233 2.83455 70.7231 4.2095C72.9529 5.55518 74.701 7.53071 75.7305 9.86855H70.1932C69.2967 8.84961 68.2119 8.00082 66.994 7.36551C65.808 6.77941 64.4908 6.48478 63.159 6.50769C61.6327 6.51348 60.1429 6.95927 58.8802 7.78801C57.5786 8.61751 56.5074 9.74295 55.7605 11.0657C54.9903 12.3703 54.5853 13.8463 54.5853 15.3484C54.5853 16.8504 54.9903 18.3264 55.7605 19.631C56.5285 20.9649 57.6251 22.0951 58.953 22.9215C60.2409 23.7544 61.7551 24.1999 63.3047 24.2018C64.4962 24.2163 65.6749 23.9643 66.749 23.4656C67.9519 22.8471 69.0237 22.0154 69.9084 21.0138H75.5517C74.8827 22.5101 73.9045 23.8586 72.677 24.9764C71.4357 26.1244 69.9789 27.0326 68.385 27.6523C66.8116 28.2498 65.1342 28.5497 63.4438 28.5357Z" fill="black"/>
<path d="M84.6395 21.4684L81.8377 28.0237H76.4727L87.4082 2.62842H91.2101L102.218 28.0237H96.8269L94.0251 21.4684H84.6395ZM86.2755 17.0385H92.3096L89.329 9.25412H89.2561L86.2755 17.0385Z" fill="black"/>
<path d="M100.139 7.01994V2.62842H114.77V7.01994H109.869V28.0237H105.007V7.01994H100.139Z" fill="black"/>
<path d="M120.36 2.62842V25.7255H131.223V28.0237H117.73V2.62842H120.36Z" fill="url(#paint0_linear_241_6553)"/>
<path d="M131.719 28.5036H117.233V2.16089H120.856V25.258H131.719V28.5036ZM118.227 27.5434H130.726V26.2054H119.863V3.10833H118.227V27.5434Z" fill="url(#paint1_linear_241_6553)"/>
<path d="M146.629 28.4652C144.251 28.4684 141.914 27.8727 139.847 26.7368C137.749 25.6062 135.979 23.9837 134.7 22.0188C133.398 20.0646 132.708 17.7881 132.713 15.4635C132.697 13.1212 133.342 10.8191 134.581 8.80581C135.795 6.79478 137.533 5.12619 139.622 3.96617C141.746 2.76386 144.168 2.14003 146.629 2.16091C149.071 2.14359 151.473 2.75333 153.591 3.92776C155.683 5.07442 157.432 6.72383 158.671 8.71619C159.9 10.7023 160.549 12.9733 160.549 15.2875C160.549 17.6017 159.9 19.8726 158.671 21.8587C157.433 23.8567 155.684 25.5125 153.591 26.6664C151.479 27.8572 149.074 28.4784 146.629 28.4652ZM146.596 4.48471C144.611 4.46995 142.661 4.99095 140.966 5.98908C139.275 6.97777 137.871 8.3655 136.886 10.0221C135.888 11.6727 135.367 13.5518 135.376 15.4635C135.374 17.3282 135.908 19.1567 136.919 20.7449C137.933 22.377 139.357 23.7355 141.059 24.6947C142.742 25.6667 144.668 26.1758 146.629 26.167C148.627 26.1853 150.592 25.6762 152.312 24.6947C154.021 23.7403 155.443 22.3725 156.439 20.7257C157.428 19.0936 157.949 17.2364 157.949 15.3451C157.949 13.4537 157.428 11.5965 156.439 9.9645C155.449 8.30893 154.029 6.93195 152.319 5.96988C150.589 4.97492 148.609 4.46098 146.596 4.48471Z" fill="url(#paint2_linear_241_6553)"/>
<path d="M146.629 28.9453C144.167 28.9469 141.748 28.3292 139.608 27.1529C137.447 25.9813 135.625 24.304 134.309 22.2748C132.97 20.2396 132.264 17.8754 132.276 15.4635C132.256 13.039 132.915 10.6545 134.183 8.56253C135.447 6.48467 137.245 4.75793 139.403 3.55005C141.603 2.34365 144.089 1.70947 146.619 1.70947C149.149 1.70947 151.635 2.34365 153.836 3.55005C156.001 4.73892 157.812 6.44777 159.095 8.51132C160.373 10.5708 161.048 12.9274 161.048 15.3291C161.048 17.7308 160.373 20.0873 159.095 22.1468C157.807 24.2097 155.997 25.9216 153.836 27.1209C151.644 28.3366 149.156 28.9663 146.629 28.9453ZM146.629 2.66022C144.26 2.6385 141.929 3.23331 139.88 4.38227C137.867 5.50509 136.19 7.11297 135.011 9.04905C133.828 10.988 133.208 13.1996 133.216 15.4507C133.205 17.6813 133.858 19.8679 135.097 21.7499C136.332 23.6456 138.041 25.2108 140.065 26.3015C142.088 27.4042 144.372 27.9798 146.695 27.9719C149.017 27.9641 151.297 27.373 153.312 26.2567C155.329 25.1413 157.016 23.5457 158.214 21.6219C159.401 19.7119 160.029 17.5255 160.029 15.2971C160.029 13.0686 159.401 10.8822 158.214 8.97224C157.009 7.03832 155.306 5.43918 153.271 4.33073C151.236 3.22228 148.938 2.64232 146.603 2.64742L146.629 2.66022ZM146.629 26.6472C144.58 26.6521 142.567 26.1188 140.807 25.1044C139.034 24.1075 137.551 22.6938 136.495 20.9945C135.438 19.3307 134.878 17.4161 134.879 15.4635C134.871 13.4688 135.416 11.5084 136.455 9.78525C137.479 8.0565 138.943 6.60888 140.708 5.57937C142.483 4.53998 144.521 3.99498 146.596 4.00457C148.692 3.9907 150.753 4.52844 152.557 5.56016C154.338 6.56818 155.818 8.00374 156.856 9.72764C157.888 11.4338 158.433 13.3748 158.433 15.3515C158.433 17.3281 157.888 19.2691 156.856 20.9753C155.823 22.6858 154.348 24.1083 152.577 25.1044C150.776 26.1309 148.72 26.6642 146.629 26.6472ZM146.596 4.96482C144.702 4.95186 142.841 5.45074 141.224 6.40518C139.604 7.34258 138.259 8.66478 137.316 10.2462C136.364 11.8235 135.866 13.6182 135.872 15.4443C135.872 17.2235 136.384 18.9677 137.349 20.4824C138.323 22.0451 139.691 23.3443 141.324 24.2593C142.926 25.1816 144.757 25.6682 146.622 25.6677C148.531 25.6814 150.408 25.1947 152.054 24.2593C153.678 23.3455 155.029 22.0396 155.975 20.4696C156.914 18.9155 157.409 17.1481 157.409 15.3483C157.409 13.5485 156.914 11.781 155.975 10.227C155.029 8.63736 153.671 7.31351 152.034 6.38598C150.389 5.44351 148.509 4.95219 146.596 4.96482Z" fill="url(#paint3_linear_241_6553)"/>
<path d="M191.47 16.3534C191.299 18.5512 190.541 20.6686 189.271 22.499C188.005 24.3389 186.281 25.8423 184.257 26.8713C182.206 27.9316 179.913 28.4795 177.587 28.4653C175.173 28.4475 172.802 27.8473 170.689 26.7193C168.576 25.5914 166.787 23.9713 165.486 22.0061C164.162 20.009 163.472 17.6815 163.499 15.31C163.485 12.9859 164.144 10.7045 165.4 8.72268C167.175 5.9478 169.911 3.87123 173.121 2.86205C176.331 1.85287 179.808 1.97646 182.932 3.21087C184.555 3.84838 186.047 4.7611 187.337 5.90596C188.468 6.86966 189.372 8.05737 189.986 9.38844H186.906C185.97 7.8686 184.612 6.63318 182.985 5.82274C181.326 4.94456 179.465 4.48442 177.574 4.4848C175.574 4.47577 173.607 4.97703 171.871 5.93796C170.14 6.88203 168.691 8.24269 167.665 9.88778C166.636 11.5402 166.092 13.4325 166.092 15.3612C166.092 17.2899 166.636 19.1821 167.665 20.8346C168.698 22.4758 170.16 23.8249 171.904 24.746C173.665 25.6895 175.647 26.1789 177.66 26.1671C179.25 26.1683 180.822 25.8409 182.27 25.2069C183.723 24.5851 185.023 23.6731 186.085 22.531C187.13 21.4276 187.885 20.0968 188.284 18.6516H173.659V16.3534H191.47Z" fill="url(#paint4_linear_241_6553)"/>
<path d="M177.594 28.9455C175.094 28.9322 172.636 28.315 170.445 27.15C168.255 25.985 166.4 24.3092 165.049 22.275C163.679 20.1995 162.961 17.7846 162.983 15.3228C162.977 12.9099 163.665 10.5429 164.97 8.48585C166.81 5.60961 169.648 3.45898 172.977 2.41774C176.306 1.3765 179.91 1.5124 183.145 2.80119C184.82 3.46244 186.361 4.40525 187.695 5.58591C188.869 6.59886 189.804 7.84312 190.438 9.23484L190.729 9.875H186.642L186.503 9.63814C185.607 8.19599 184.314 7.02338 182.767 6.25168C181.133 5.39238 179.297 4.95184 177.437 4.97201C175.576 4.99218 173.751 5.47239 172.137 6.36691C170.481 7.27041 169.094 8.57125 168.11 10.1439C167.121 11.7179 166.605 13.5265 166.619 15.3676C166.606 17.2093 167.129 19.0174 168.129 20.5849C169.117 22.1552 170.515 23.4467 172.183 24.3299C173.871 25.2338 175.771 25.7034 177.7 25.6934C179.215 25.6916 180.711 25.3796 182.092 24.778C183.48 24.1803 184.723 23.308 185.741 22.2174C186.581 21.3239 187.228 20.277 187.642 19.1382H173.15V15.8797H192.014L191.968 16.3983C191.795 18.688 191.008 20.8947 189.682 22.7999C188.374 24.7049 186.594 26.2631 184.503 27.3323C182.375 28.4169 180 28.9713 177.594 28.9455ZM177.555 2.66036C175.201 2.65296 172.886 3.23089 170.83 4.33856C168.775 5.44623 167.048 7.04639 165.818 8.98518C164.612 10.8927 163.978 13.0872 163.99 15.3228C163.968 17.6015 164.633 19.837 165.904 21.7564C167.761 24.5986 170.659 26.6598 174.019 27.5295C177.378 28.3991 180.954 28.0133 184.033 26.4488C185.981 25.4542 187.641 24.0039 188.861 22.2302C189.98 20.614 190.685 18.7645 190.921 16.8336H174.144V18.1651H188.96L188.795 18.8053C188.37 20.3206 187.577 21.7163 186.483 22.8767C185.376 24.0682 184.022 25.0213 182.509 25.6742C181.002 26.3327 179.367 26.6731 177.714 26.6729C175.617 26.6834 173.552 26.1719 171.719 25.1877C169.9 24.2269 168.374 22.8206 167.295 21.1099C166.218 19.3824 165.648 17.4037 165.648 15.3868C165.648 13.3699 166.218 11.3912 167.295 9.66375C168.367 7.95071 169.877 6.53315 171.68 5.54749C173.442 4.57474 175.433 4.05301 177.462 4.03172C179.492 4.01044 181.493 4.49031 183.277 5.42587C184.898 6.23715 186.269 7.4472 187.252 8.93396H189.239C188.663 7.94196 187.925 7.04687 187.053 6.28369C185.808 5.17679 184.368 4.29437 182.801 3.67822C181.139 3.00568 179.356 2.65967 177.555 2.66036Z" fill="url(#paint5_linear_241_6553)"/>
<path d="M10.9388 30.1746H2.32812V9.95819H7.87867V24.81H10.9388C13.518 24.7455 15.9692 23.7099 17.7699 21.9239C19.5706 20.1379 20.5784 17.7428 20.5784 15.2491C20.5784 12.7555 19.5706 10.3604 17.7699 8.5744C15.9692 6.78842 13.518 5.75281 10.9388 5.6883H8.73311V0.32373H10.9255C14.9658 0.404607 18.8124 2.01263 21.6402 4.80288C24.468 7.59313 26.0518 11.3434 26.0518 15.2491C26.0518 19.1549 24.468 22.9052 21.6402 25.6954C18.8124 28.4857 14.9658 30.0937 10.9255 30.1746H10.9388Z" fill="black"/>
<path d="M7.87891 24.81C7.87891 24.81 7.93852 20.4889 10.7337 19.5031C13.8401 18.4084 16.8273 19.3558 17.9401 19.7015C18.3935 19.8836 18.8798 19.9771 19.3708 19.9768C19.7789 20.0031 20.1883 19.9481 20.5735 19.8153C20.9588 19.6824 21.3117 19.4745 21.6104 19.2044C21.9091 18.9343 22.1472 18.6078 22.31 18.2452C22.4728 17.8825 22.5568 17.4914 22.5568 17.0961C22.5568 16.7007 22.4728 16.3096 22.31 15.9469C22.1472 15.5843 21.9091 15.2578 21.6104 14.9877C21.3117 14.7176 20.9588 14.5097 20.5735 14.3768C20.1883 14.244 19.7789 14.189 19.3708 14.2153C18.879 14.214 18.3922 14.3099 17.9401 14.497C15.6139 15.2656 13.1013 15.3348 10.7337 14.6954C8.018 13.8696 7.87891 9.93262 7.87891 9.93262" fill="#EAC7AE"/>
<path d="M27.1003 15.5405C28.077 15.5405 28.8688 14.8555 28.8688 14.0105C28.8688 13.1655 28.077 12.4805 27.1003 12.4805C26.1236 12.4805 25.3318 13.1655 25.3318 14.0105C25.3318 14.8555 26.1236 15.5405 27.1003 15.5405Z" fill="#EAC7AE"/>
<path d="M2.32812 30.1745V4.9585H8.18335C8.18335 12.3844 8.06413 17.2944 8.06413 24.8036C12.6609 24.8036 15.2242 27.3066 19.9865 27.3066C18.7628 28.5068 17.2278 29.3669 15.5421 29.7968C14.5366 30.1075 13.4909 30.2799 12.4357 30.309C9.39546 30.3794 5.46769 30.1745 2.32812 30.1745Z" fill="url(#paint6_linear_241_6553)"/>
</g>
<defs>
<linearGradient id="paint0_linear_241_6553" x1="117.73" y1="15.3229" x2="131.223" y2="15.3229" gradientUnits="userSpaceOnUse">
<stop stop-color="#0BDBB6"/>
<stop offset="1" stop-color="#0BDBB6"/>
</linearGradient>
<linearGradient id="paint1_linear_241_6553" x1="117.233" y1="15.3227" x2="131.719" y2="15.3227" gradientUnits="userSpaceOnUse">
<stop stop-color="#0BDBB6"/>
<stop offset="1" stop-color="#0BDBB6"/>
</linearGradient>
<linearGradient id="paint2_linear_241_6553" x1="132.746" y1="15.3227" x2="160.552" y2="15.3227" gradientUnits="userSpaceOnUse">
<stop stop-color="#0BDBB6"/>
<stop offset="1" stop-color="#0BDBB6"/>
</linearGradient>
<linearGradient id="paint3_linear_241_6553" x1="132.249" y1="15.3227" x2="161.049" y2="15.3227" gradientUnits="userSpaceOnUse">
<stop stop-color="#0BDBB6"/>
<stop offset="1" stop-color="#0BDBB6"/>
</linearGradient>
<linearGradient id="paint4_linear_241_6553" x1="163.492" y1="15.3228" x2="191.47" y2="15.3228" gradientUnits="userSpaceOnUse">
<stop stop-color="#0BDBB6"/>
<stop offset="1" stop-color="#0BDBB6"/>
</linearGradient>
<linearGradient id="paint5_linear_241_6553" x1="162.996" y1="15.3228" x2="192.014" y2="15.3228" gradientUnits="userSpaceOnUse">
<stop stop-color="#0BDBB6"/>
<stop offset="1" stop-color="#0BDBB6"/>
</linearGradient>
<linearGradient id="paint6_linear_241_6553" x1="2.32812" y1="17.6401" x2="20.0064" y2="17.6401" gradientUnits="userSpaceOnUse">
<stop stop-color="#0BDBB6"/>
<stop offset="1" stop-color="#41B06E"/>
</linearGradient>
<clipPath id="clip0_241_6553">
<rect width="194" height="30" fill="white"/>
</clipPath>
</defs>
</svg>
