<svg width="456" height="500" viewBox="0 0 456 500" fill="none" xmlns="http://www.w3.org/2000/svg">
<path d="M137.097 80.1112C137.097 80.1112 131.746 79.0721 130.853 77.142C129.961 75.212 132.192 72.0947 126.989 71.3518C121.786 70.6089 121.34 72.6883 119.409 67.4916C117.477 62.295 113.91 63.6315 114.356 58.7322C114.802 53.833 116.288 53.2394 115.099 46.7062C113.911 40.1743 115.099 42.698 118.518 40.1743C121.937 37.6506 122.977 36.4622 121.491 34.6815C120.004 32.8995 117.626 34.5334 117.924 29.9303C118.222 25.3272 113.167 29.1874 111.978 26.0701C110.79 22.9529 111.235 23.8426 107.817 22.3593C104.399 20.8747 103.953 22.3593 104.101 18.351C104.249 14.3428 101.871 15.2338 105.885 14.1947C105.885 14.1947 106.74 14.7142 108.077 13.1556C109.415 11.597 111.31 8.81292 112.87 8.81292C114.431 8.81292 115.101 7.92192 116.437 8.81292C117.776 9.70392 117.663 9.92605 119.558 9.92605C121.454 9.92605 120.74 8.81292 120.316 6.91986C119.892 5.0268 123.348 5.69566 126.135 5.69566C128.922 5.69566 129.48 4.13703 131.151 4.2481C132.823 4.35916 138.286 5.25017 140.293 5.47353C142.299 5.6969 143.86 11.5982 144.752 12.0425C145.644 12.4867 150.882 12.9335 153.336 15.272C155.789 17.6106 155.789 19.2803 158.91 20.9512C162.031 22.6209 160.248 25.405 161.808 25.8505C163.369 26.296 168.051 27.6325 168.497 28.5222C168.943 29.412 168.386 31.4173 170.169 31.7518C171.952 32.0862 177.304 29.4132 178.752 29.08C180.201 28.7456 180.424 26.0738 182.765 25.8505C185.106 25.6283 191.015 26.0726 192.575 25.2939C194.136 24.514 193.467 23.6242 195.139 24.514C196.81 25.405 195.696 26.296 198.483 26.407C201.271 26.5181 203.165 25.7394 204.614 29.0788C206.063 32.4194 206.732 31.5284 205.728 35.0912C204.725 38.6539 205.505 40.2138 203.387 41.3269C201.269 42.44 202.83 44.111 199.485 46.5606C196.141 49.0102 195.249 49.0102 194.691 50.5688C194.134 52.1275 194.803 52.1275 191.012 53.575C187.222 55.0226 186.776 56.4702 187.445 58.1398C188.114 59.8095 189.117 60.7005 187.556 62.037C185.996 63.3735 186.888 64.9322 188.783 65.3777C190.679 65.8232 193.353 64.2645 193.242 66.9363C193.131 69.6081 194.023 71.279 195.026 73.0597C196.03 74.8417 195.249 77.6245 193.912 77.959C192.575 78.2934 190.121 78.6266 189.007 79.5176C187.892 80.4086 187.558 81.2613 185.997 80.1112C184.437 78.961 185.997 76.7336 184.326 76.3991C182.654 76.0647 180.87 76.2881 180.424 77.9578C179.978 79.6274 180.313 80.4074 181.762 82.4115C183.211 84.4156 184.103 82.857 183.879 85.9743C183.657 89.0915 182.095 88.5349 187.113 90.5391C192.129 92.5432 190.346 96.8859 192.353 97.3314C194.359 97.7769 192.687 97.2203 195.362 99.6699C198.037 102.12 199.153 100.338 202.051 102.565C204.95 104.793 205.239 104.124 206.209 106.128C207.179 108.132 206.957 108.243 210.746 109.357C214.536 110.471 216.208 112.475 215.54 113.7C214.871 114.924 213.644 113.366 212.53 115.259C211.416 117.152 211.862 119.156 209.52 119.601C207.179 120.047 207.068 122.608 206.622 123.944C206.176 125.281 207.736 125.948 205.172 127.061C202.609 128.174 205.172 131.737 204.169 133.185C203.166 134.632 202.609 136.302 204.504 137.639C206.399 138.975 209.074 138.306 210.301 138.975C211.527 139.643 210.412 139.977 213.088 140.423C215.763 140.868 214.538 140.534 216.433 142.427C218.328 144.32 220.446 147.437 224.348 148.217C228.249 148.997 226.8 150.778 229.921 151.334C233.042 151.891 234.38 151.891 236.833 153.673C239.285 155.455 241.292 153.895 241.96 155.788C242.628 157.681 243.298 158.127 245.527 158.127C247.757 158.127 248.425 156.568 251.992 157.013C255.559 157.459 254.221 159.686 256.117 158.127C258.012 156.568 262.136 156.233 264.589 160.687C267.041 165.141 269.271 165.03 271.5 165.586C273.73 166.143 273.618 166.589 276.516 166.477C279.415 166.366 279.75 165.287 280.975 166.495C282.201 167.703 283.205 168.259 284.877 168.259C286.549 168.259 287.775 167.368 290.563 168.259C293.35 169.15 296.249 170.264 300.149 170.375C304.051 170.486 301.598 170.486 304.943 171.488C308.288 172.49 313.972 170.375 314.753 169.26C315.534 168.146 315.979 163.137 315.756 161.689C315.534 160.242 313.304 158.127 313.639 156.122C313.973 154.118 314.531 154.007 315.199 151.223C315.867 148.439 316.425 147.548 318.098 146.435C319.769 145.322 320.885 144.207 322.111 144.431C323.337 144.653 325.901 147.326 325.344 149.33C324.787 151.334 324.72 154.34 325.422 156.568C326.124 158.795 325.344 161.802 329.022 163.026C332.7 164.251 337.16 162.804 338.275 164.584C339.389 166.366 340.727 163.396 343.7 162.802C346.673 162.209 346.524 162.505 352.766 162.059C359.009 161.614 362.428 162.357 366.143 161.466C369.858 160.575 371.792 160.872 372.089 159.536C372.386 158.199 373.277 151.074 369.414 151.074C365.549 151.074 363.617 150.628 363.765 148.996C363.913 147.363 364.359 144.096 366.589 143.948C368.819 143.8 370.602 144.691 373.278 142.761C375.953 140.831 372.832 139.792 377.589 138.753C382.346 137.714 382.048 137.862 383.534 134.299C385.021 130.736 385.169 127.915 391.114 127.47C397.06 127.024 396.614 123.61 400.776 120.938C404.937 118.266 406.425 116.632 409.397 117.671C412.37 118.71 413.262 119.453 416.533 117.374C419.803 115.296 424.41 112.475 425.451 114.85C426.491 117.226 426.194 116.928 425.451 118.858C424.707 120.789 424.41 120.64 428.275 120.789C432.14 120.937 429.464 124.797 428.869 126.727C428.275 128.657 427.531 132.072 429.167 131.924C430.802 131.775 431.991 128.954 435.41 130.142C438.829 131.329 440.017 130.29 441.355 134.447C442.693 138.605 444.476 139.049 443.882 140.683C443.288 142.316 442.99 139.792 442.544 143.95C442.098 148.106 436.747 148.701 435.112 148.403C433.478 148.106 433.774 146.771 430.505 148.106C427.235 149.442 424.56 151.521 421.438 152.114C418.317 152.708 420.1 158.795 417.721 162.952C415.343 167.108 412.816 174.828 412.072 176.313C411.329 177.798 408.059 176.758 408.802 178.837C409.546 180.915 412.369 182.845 412.221 186.557C412.072 190.269 411.626 191.754 412.667 192.495C413.707 193.237 413.261 196.207 411.478 196.058C409.695 195.909 409.397 194.287 407.167 196.063C404.937 197.839 405.383 204.52 403.749 204.668C402.114 204.816 403.154 204.371 399.438 204.668C395.722 204.966 393.939 203.629 392.601 203.629C391.263 203.629 395.722 208.974 395.276 211.795C394.83 214.616 392.897 219.811 391.709 222.93C390.52 226.047 390.52 226.79 391.56 228.571C392.601 230.353 391.709 233.767 390.074 234.064C388.439 234.361 386.507 233.173 384.871 231.985C383.237 230.798 381.899 229.759 382.047 226.047C382.195 222.335 381.899 216.101 380.412 215.21C378.926 214.319 374.763 216.546 373.427 216.992C372.089 217.437 369.562 218.328 367.184 218.179C364.805 218.031 363.617 216.842 363.467 214.17C363.319 211.499 363.319 206.154 365.102 204.669C366.886 203.185 366.588 202.739 369.561 202.442C372.533 202.144 373.722 202.294 375.654 201.403C377.587 200.512 376.843 196.801 376.992 194.871C377.141 192.941 376.1 192.199 379.371 192.05C382.641 191.902 381.451 187.744 378.627 187.299C375.803 186.853 375.654 186.26 371.344 186.853C367.033 187.447 365.844 184.478 361.98 186.408C358.115 188.338 360.493 188.783 354.25 188.338C348.007 187.892 345.48 188.338 341.913 185.666C338.347 182.994 341.319 178.095 341.17 176.758C341.021 175.422 341.318 172.898 339.089 172.602C336.859 172.305 337.901 174.68 333.44 173.493C328.981 172.306 330.17 170.078 327.345 169.93C324.521 169.782 326.751 173.345 323.927 171.86C321.102 170.376 322.589 168 320.062 169.039C317.535 170.078 318.427 174.978 317.387 176.76C316.347 178.542 317.535 180.62 320.1 181.844C322.664 183.068 322.664 184.739 325.34 185.074C328.015 185.408 329.799 187.078 327.793 188.414C325.786 189.751 325.118 189.638 322.999 190.084C320.881 190.529 323.334 193.536 320.546 194.427C317.759 195.318 317.091 195.763 316.867 197.322C316.645 198.88 321.883 202.443 324.782 203.001C327.68 203.558 328.237 204.56 326.12 207.12C324.002 209.681 324.113 213.245 325.674 214.691C327.234 216.139 326.899 216.919 327.458 218.032C328.015 219.145 331.582 220.147 330.579 224.044C329.576 227.941 330.468 227.162 330.914 230.613C331.36 234.065 333.923 236.292 330.468 237.628C327.012 238.964 327.123 237.628 324.448 239.41C321.773 241.192 321.996 238.185 321.215 237.071C320.434 235.958 317.981 237.071 315.975 241.079C313.968 245.088 314.972 244.99 311.851 245.874C308.73 246.757 309.956 246.868 306.054 248.316C302.152 249.763 302.376 252.102 302.487 255.219C302.598 258.337 303.712 260.119 301.484 261.677C299.253 263.236 300.926 266.242 299.031 267.913C297.136 269.583 298.326 269.806 296.449 271.588C294.572 273.37 296.245 273.481 292.008 273.815C287.772 274.15 288.107 275.485 286.323 276.487C284.538 277.489 283.535 278.715 282.867 277.824C282.198 276.933 281.975 275.485 281.195 275.374C280.414 275.263 278.743 275.04 277.851 277.602C276.959 280.162 278.519 279.717 276.625 281.944C274.73 284.172 271.163 285.285 270.048 287.957C268.934 290.628 269.267 290.741 266.147 294.971C263.026 299.203 259.457 300.538 257.675 302.32C255.89 304.102 253.996 304.324 251.99 307.887C249.983 311.45 249.203 313.232 244.298 315.014C239.393 316.796 239.058 317.463 237.051 319.691C235.045 321.918 236.383 322.586 236.829 323.922C237.275 325.259 236.94 328.265 232.259 329.378C227.576 330.491 227.354 329.713 223.341 330.38C219.328 331.048 219.217 335.391 217.21 338.286C215.204 341.181 212.974 340.624 211.413 339.399C209.853 338.175 209.295 338.175 207.176 339.51C205.058 340.845 202.606 344.52 202.606 348.195C202.606 351.87 202.941 365.343 203.721 368.349C204.502 371.355 207.176 372.803 205.392 374.139C203.608 375.476 203.275 377.48 204.165 378.815C205.056 380.15 208.178 380.374 206.507 383.38C204.834 386.386 203.832 392.956 201.602 395.962C199.372 398.968 198.927 398.634 198.703 401.975C198.48 405.315 199.706 412.219 198.703 415.225C197.7 418.231 198.035 416.783 197.254 422.128C196.473 427.473 197.589 427.807 195.47 427.807C193.352 427.807 194.689 426.805 191.346 429.589C188.001 432.373 189.45 435.936 186.776 436.715C184.101 437.495 182.205 443.173 182.985 443.285C183.766 443.396 186.106 444.287 183.766 445.178C181.426 446.069 180.532 444.287 178.415 446.737C176.297 449.186 175.516 447.071 173.399 451.525C171.281 455.979 173.956 457.426 167.267 460.767C160.578 464.108 164.257 466.001 160.69 464.886C157.123 463.773 159.352 464.552 156.007 462.993C152.663 461.435 152.552 463.328 150.88 459.43C149.208 455.533 148.093 455.088 144.637 451.859C141.181 448.631 143.634 448.742 142.184 444.065C140.735 439.388 139.621 442.061 140.959 438.164C142.297 434.267 142.743 434.267 142.184 431.149C141.627 428.032 140.624 432.373 139.397 431.149C138.17 429.925 139.732 426.695 137.279 421.907C134.827 417.119 134.716 417.23 134.716 414.558C134.716 411.887 130.925 410.105 129.03 406.653C127.135 403.201 128.027 401.532 124.682 397.3C121.338 393.068 121.004 396.632 119.777 389.171C118.551 381.711 118.328 383.826 117.436 375.698C116.544 367.57 116.99 364.229 113.869 359.33C110.748 354.431 111.751 349.532 108.629 346.748C105.508 343.964 99.711 335.056 98.4841 331.159C97.2585 327.262 96.9237 327.818 96.8125 320.358C96.7013 312.898 93.8028 304.993 93.4679 301.318C93.1331 297.643 93.5791 291.965 93.4679 289.626C93.3567 287.288 90.793 283.614 91.5727 276.822C92.3535 270.029 91.795 267.469 92.6871 264.685C93.5791 261.901 92.3523 253.995 92.0187 250.767C91.6838 247.537 90.4582 248.22 92.0187 245.875C93.5791 243.53 91.1266 242.083 90.4582 240.523C89.7898 238.964 92.2423 236.515 90.4582 235.289C88.6741 234.064 84.996 235.4 85.442 239.408C85.888 243.417 87.8945 245.421 84.55 247.537C81.2054 249.652 83.2119 254.552 77.6385 254.775C72.065 254.997 68.3857 255.777 63.9267 255.221C59.4677 254.664 60.4709 250.432 56.2343 248.094C51.9977 245.755 47.4276 241.301 44.1954 239.408C40.9621 237.515 40.8509 234.175 39.6252 231.503C38.3984 228.831 38.7332 226.715 40.9633 227.94C43.1934 229.164 42.3014 231.392 44.4191 231.948C46.5367 232.505 48.6557 233.285 50.8845 231.837C53.1147 230.39 55.7895 229.164 58.0197 228.275C60.2498 227.384 62.3674 224.823 60.5834 223.821C58.7993 222.819 58.3533 223.264 52.445 223.153C46.5368 223.042 47.54 225.381 43.3034 223.153C39.0668 220.926 39.9588 218.588 38.0636 217.03C36.1683 215.471 32.4901 213.689 33.6046 211.685C34.719 209.681 37.3951 210.349 35.9459 209.347C34.4966 208.344 35.165 209.681 32.825 208.79C30.4836 207.899 30.1488 205.895 31.3757 205.449C32.6013 205.004 34.3854 205.671 36.3919 204.669C38.3984 203.667 37.8412 203.667 40.4049 200.994C42.9686 198.323 43.1922 197.988 45.4211 199.212C47.6512 200.437 48.542 201.773 50.7721 201.773C53.001 201.773 52.5562 204.001 54.7851 203.555C57.0152 203.11 56.7915 200.66 60.4709 200.325C64.1491 199.991 63.3694 197.987 66.1568 200.214C68.9441 202.442 71.9538 200.103 71.8426 198.656C71.7314 197.208 72.9571 190.972 69.8362 189.079C66.7152 187.186 66.2692 186.295 67.2725 183.958C68.2757 181.619 69.0566 180.617 66.158 180.506C63.2595 180.395 58.8005 181.397 59.9149 176.498C61.0294 171.599 66.0468 168.482 62.0326 167.145C58.0184 165.809 59.6913 166.811 57.1276 165.141C54.5639 163.471 50.4385 159.24 52.7798 157.347C55.1211 155.454 54.7863 156.79 58.2421 152.447C61.6978 148.105 63.3695 144.876 66.0456 145.21C68.7205 145.544 71.3966 145.321 71.3966 148.105C71.3966 150.889 74.7412 147.214 78.0857 146.546C81.4303 145.878 84.44 147.659 86.6701 145.544C88.9002 143.429 93.4704 141.536 95.9229 135.189C98.3754 128.842 101.609 129.177 104.061 128.062C106.514 126.949 107.406 122.161 108.966 117.596C110.527 113.031 114.094 112.586 115.543 112.362C116.992 112.14 117.438 105.793 121.674 103.788C125.91 101.784 129.142 98.9998 128.696 98.3322C128.25 97.6646 127.136 92.2088 127.693 89.5358C128.25 86.864 129.477 82.5213 131.93 82.409C134.382 82.2967 138.173 81.2959 138.173 81.2959L137.097 80.1112Z" stroke="#676B78" stroke-width="1.01956" stroke-miterlimit="10"/>
<path d="M137.097 80.1112C137.097 80.1112 140.181 78.7377 142.968 77.8467C145.755 76.9557 145.086 73.8385 145.866 71.0544C146.647 68.2703 149.099 70.0523 151.329 68.3826C153.559 66.7129 155.565 66.4896 158.018 66.824C160.47 67.1584 159.021 70.6101 162.142 71.2778C165.263 71.9454 165.82 70.6101 167.715 71.4999C169.611 72.3897 169.611 72.502 171.617 71.9454C173.624 71.3888 173.958 71.9454 175.741 75.0626C177.525 78.1799 180.273 78.7019 180.273 78.7019" stroke="#676B78" stroke-width="0.764724" stroke-miterlimit="10" stroke-linecap="round" stroke-linejoin="round" stroke-dasharray="1.2 1.2"/>
<path d="M188.183 91.0623C188.183 91.0623 187.335 92.5444 187.335 94.3264C187.335 96.1084 189.476 96.9982 188.183 98.0015C186.889 99.0035 186.221 98.558 184.325 98.0015C182.43 97.4449 181.092 96.8883 178.863 97.3338C176.633 97.7793 175.742 96.5218 173.736 98.5975C171.729 100.673 169.277 101.119 169.165 104.459C169.054 107.8 170.615 109.135 168.273 109.359C165.932 109.581 165.821 106.798 163.146 105.796C160.471 104.794 161.251 103.235 157.906 102.01C154.562 100.784 157.349 100.228 155.342 97.667C153.336 95.1063 149.545 97.2215 148.32 93.6588C147.094 90.096 149.212 88.8706 146.424 86.532C143.637 84.1935 142.969 77.8467 142.969 77.8467" stroke="#676B78" stroke-width="0.764724" stroke-miterlimit="10" stroke-linecap="round" stroke-linejoin="round" stroke-dasharray="1.2 1.2"/>
<path d="M115.544 112.365C115.544 112.365 116.436 115.817 119.111 116.039C121.786 116.262 128.81 115.482 130.816 116.039C132.823 116.595 131.819 119.379 133.491 120.27C135.163 121.161 136.055 120.493 138.061 120.27C140.068 120.048 140.736 122.952 141.963 120.721C143.19 118.49 142.855 118.377 146.087 118.601C149.321 118.823 147.759 116.485 149.097 114.926C150.435 113.367 150.881 113.924 152.888 114.48C154.894 115.037 155.118 116.039 156.343 112.365C157.569 108.69 159.131 110.583 159.242 107.8C159.353 105.016 158.683 102.337 158.683 102.337" stroke="#676B78" stroke-width="0.764724" stroke-miterlimit="10" stroke-linecap="round" stroke-linejoin="round" stroke-dasharray="1.2 1.2"/>
<path d="M168.729 109.287C168.729 109.287 169.834 111.474 170.949 114.703C172.063 117.933 173.066 117.487 175.854 118.823C178.641 120.158 180.647 120.752 183.211 121.569C185.775 122.386 187.002 122.609 192.91 122.609C198.818 122.609 200.713 123.5 202.943 122.609C205.174 121.718 207.31 121.569 207.31 121.569" stroke="#676B78" stroke-width="0.764724" stroke-miterlimit="10" stroke-linecap="round" stroke-linejoin="round" stroke-dasharray="1.2 1.2"/>
<path d="M125.243 116.146C125.243 116.146 125.243 126.283 126.469 126.283C127.694 126.283 127.918 124.835 129.925 125.392C131.931 125.948 134.384 124.835 134.941 126.95C135.498 129.065 134.173 129.289 137.399 130.736C140.625 132.184 139.735 132.295 139.065 135.413C138.397 138.531 140.849 138.42 142.967 139.534C145.084 140.647 143.748 145.101 144.862 146.994C145.976 148.887 147.314 146.883 150.213 146.214C153.112 145.546 152.443 143.319 153.112 145.546C153.78 147.774 152.777 151.337 154.896 151.337C157.013 151.337 158.129 150.557 158.017 152.784C157.905 155.01 161.472 156.236 163.145 152.339C164.817 148.441 165.076 153.119 165.783 147.774C166.49 142.429 165.82 141.873 164.037 139.979C162.253 138.086 159.046 142.651 159.256 138.197C159.466 133.744 159.689 130.181 160.693 127.842C161.696 125.504 156.68 123.758 160.358 121.57C164.036 119.382 163.145 116.485 164.482 114.816C165.82 113.146 169.833 111.758 169.833 111.758" stroke="#676B78" stroke-width="0.764724" stroke-miterlimit="10" stroke-linecap="round" stroke-linejoin="round" stroke-dasharray="1.2 1.2"/>
<path d="M71.876 197.556C71.876 197.556 74.2235 196.231 76.6018 197.556C78.9802 198.881 78.8307 198.88 82.6954 198.88C86.5601 198.88 87.2285 198.435 89.5698 200.774C91.9111 203.112 91.5763 202.667 94.3637 202.667C97.151 202.667 98.6003 203.334 99.8259 201.776C101.052 200.217 102.167 199.994 101.61 203.445C101.053 206.897 100.718 207.788 102.837 209.236C104.955 210.683 104.732 210.127 105.958 213.355C107.185 216.584 108.968 216.696 111.309 218.254C113.65 219.813 114.207 218.032 115.991 221.929C117.775 225.826 120.673 226.272 121.231 225.046C121.788 223.821 121.342 223.71 123.015 221.149C124.687 218.589 124.353 217.698 125.245 215.805C126.138 213.911 127.476 214.023 126.695 209.681C125.914 205.338 124.911 206.675 125.803 202.443C126.695 198.212 124.824 199.883 126.929 197.766C129.035 195.651 129.258 192.756 130.93 193.312C132.602 193.869 133.717 193.869 133.271 196.208C132.825 198.546 132.466 199.77 133.37 199.883C134.275 199.994 134.275 199.215 136.727 198.88C139.18 198.546 140.294 197.99 140.629 199.883C140.964 201.776 141.521 202.332 140.629 203.334C139.737 204.336 139.514 203 139.626 206.229C139.737 209.459 137.062 210.238 136.951 211.129C136.84 212.02 135.501 212.465 137.173 213.133C138.845 213.8 140.143 209.993 141.111 209.448C142.078 208.902 143.527 209.236 144.754 207.343C145.98 205.449 146.538 204.595 147.727 205.561C148.916 206.526 148.099 207.417 150.328 207.565C152.558 207.713 151.814 207.565 153.598 208.604C155.382 209.643 157.017 210.088 156.571 206.971C156.125 203.854 155.605 202.963 156.645 202.739C157.685 202.517 157.537 204.002 158.503 202.665C159.469 201.329 158.651 200.735 158.057 200.068C157.463 199.4 154.341 197.766 156.571 195.688C158.801 193.61 162.368 194.649 162.962 193.758C163.556 192.867 163.482 189.304 161.402 189.526C159.321 189.748 158.875 190.398 157.165 189.516C155.456 188.635 154.192 190.565 152.928 187.3C151.666 184.033 150.03 183.068 153.523 180.471C157.016 177.873 159.022 177.427 161.772 174.829C164.523 172.231 164.893 171.859 168.09 171.636C171.286 171.414 175.745 168.926 175.632 167.256C175.521 165.587 172.623 166.476 170.839 166.254C169.054 166.032 167.829 165.92 168.164 163.582C168.499 161.244 169.278 158.905 166.938 158.127C164.597 157.347 163.928 158.349 164.151 156.345C164.374 154.341 163.566 151.481 163.566 151.481" stroke="#676B78" stroke-width="0.764724" stroke-miterlimit="10" stroke-linecap="round" stroke-linejoin="round" stroke-dasharray="1.2 1.2"/>
<path d="M92.0918 269.253C92.0918 269.253 94.3627 267.619 96.295 266.728C98.2274 265.837 98.7476 267.1 100.978 265.541C103.208 263.982 102.538 263.017 103.802 261.161C105.066 259.305 105.14 260.418 106.18 261.161C107.221 261.904 109.375 261.309 110.193 259.825C111.011 258.34 111.085 255.074 110.193 254.628C109.301 254.183 108.929 251.436 110.416 250.472C111.902 249.507 113.091 250.917 112.496 248.468C111.902 246.018 109.226 245.499 109.746 243.494C110.266 241.49 111.901 241.564 113.387 240.971C114.874 240.377 116.062 238.447 116.434 235.626C116.806 232.805 116.434 233.399 118.218 231.914C120.002 230.429 119.618 225.587 119.618 225.587" stroke="#676B78" stroke-width="0.764724" stroke-miterlimit="10" stroke-linecap="round" stroke-linejoin="round" stroke-dasharray="1.2 1.2"/>
<path d="M254.69 158.333C254.69 158.333 256.006 163.25 257.79 164.289C259.574 165.328 261.951 165.328 261.357 167.556C260.762 169.783 258.797 166.369 258.07 170.228C257.344 174.088 255.526 175.424 258.07 177.354C260.614 179.285 264.181 179.136 265.073 180.769C265.965 182.402 264.627 183.293 262.993 183.441C261.358 183.589 261.208 182.847 258.831 184.628C256.453 186.41 255.115 188.784 253.778 189.825C252.44 190.864 250.508 189.379 249.319 191.903C248.13 194.427 251.103 197.545 251.995 198.584C252.887 199.623 251.995 201.553 250.211 201.999C248.427 202.444 251.442 208.531 249.042 210.015C246.644 211.5 248.873 212.984 245.454 212.539C242.036 212.093 238.32 213.726 238.617 211.5C238.913 209.274 239.806 208.531 240.401 207.046C240.997 205.562 240.995 202.444 239.213 202.147C237.428 201.849 237.428 204.374 233.713 199.919C229.998 195.464 229.7 193.684 227.916 193.684C226.132 193.684 225.538 194.277 221.823 194.723C218.106 195.168 218.694 196.653 214.907 195.168C211.12 193.684 212.309 192.347 209.04 192.941C205.771 193.534 205.621 193.832 204.135 191.456C202.649 189.081 201.757 193.534 196.851 193.238C191.946 192.942 194.027 189.972 189.568 190.566C185.109 191.161 188.31 188.636 185.297 187.745C182.284 186.854 180.204 190.566 180.798 193.832C181.393 197.098 181.987 198.731 183.623 201.255C185.257 203.778 188.013 207.787 185.297 208.232C182.581 208.678 182.581 203.63 179.163 203.63C175.744 203.63 176.119 202.887 175.635 199.028C175.15 195.168 172.702 191.012 175.635 189.378C178.568 187.745 178.272 186.557 181.839 184.776C185.406 182.994 188.378 178.54 188.082 177.056C187.785 175.571 189.351 172.899 185.297 170.82C181.244 168.742 181.799 166.129 178.568 166.366C175.339 166.603 175.339 166.603 175.339 166.603" stroke="#676B78" stroke-width="0.764724" stroke-miterlimit="10" stroke-linecap="round" stroke-linejoin="round" stroke-dasharray="1.2 1.2"/>
<path d="M314.779 159.616C314.779 159.616 317.244 159.205 319.771 158.333C322.297 157.46 322.595 157.312 323.635 157.312C324.676 157.312 325.602 157.312 325.602 157.312" stroke="#676B78" stroke-width="0.764724" stroke-miterlimit="10" stroke-linecap="round" stroke-linejoin="round" stroke-dasharray="1.2 1.2"/>
<path d="M313.549 170.127C313.549 170.127 317.392 168.689 317.094 170.127C316.796 171.564 315.652 173.94 313.549 175.573C311.446 177.205 312.085 181.957 313.549 183.739C315.013 185.521 311.892 187.301 311 187.895C310.108 188.488 315.327 193.833 314.056 196.061C312.784 198.287 313.825 197.991 312.338 201.703C310.852 205.415 307.582 201.851 306.839 206.454C306.097 211.057 307.137 210.792 301.786 212.706C296.435 214.62 296.435 212.542 293.462 214.62C290.49 216.698 289.895 214.174 287.517 215.659C285.138 217.144 285.138 218.628 287.517 221.152C289.895 223.675 292.124 225.998 294.948 225.654C297.773 225.309 296.435 231.544 298.219 233.622C300.003 235.7 297.773 238.076 295.692 237.334C293.612 236.591 292.72 231.989 291.085 231.989C289.45 231.989 288.855 233.158 288.261 237.474C287.666 241.789 285.882 242.976 283.95 240.749C282.018 238.521 279.937 239.116 276.666 238.819C273.396 238.521 277.113 235.256 274.734 233.919C272.356 232.583 271.613 234.345 267.599 234.727C263.586 235.108 260.91 236.275 260.464 234.727C260.018 233.178 259.87 232.584 261.652 230.209C263.437 227.833 264.477 229.562 262.545 225.654C260.612 221.745 258.68 221.597 258.532 218.331C258.383 215.064 257.916 217.144 253.478 213.58C249.039 210.017 249.039 210.017 249.039 210.017" stroke="#676B78" stroke-width="0.764724" stroke-miterlimit="10" stroke-linecap="round" stroke-linejoin="round" stroke-dasharray="1.2 1.2"/>
<path d="M310.258 245.876C310.258 245.876 311.744 243.392 307.731 241.847C303.719 240.302 300.152 239.56 299.706 238.669C299.26 237.778 298.138 236.822 298.138 236.822" stroke="#676B78" stroke-width="0.764724" stroke-miterlimit="10" stroke-linecap="round" stroke-linejoin="round" stroke-dasharray="1.2 1.2"/>
<path d="M113.388 240.971C113.388 240.971 115.84 242.65 118.665 241.847C121.489 241.045 120.003 243.123 122.529 245.053C125.056 246.983 126.988 247.577 129.813 248.022C132.637 248.468 133.38 248.17 135.61 249.952C137.84 251.734 140.663 249.061 142.447 251.734C144.231 254.406 145.42 255.594 148.392 255.001C151.365 254.407 150.771 253.664 154.189 250.993C157.608 248.321 160.433 246.968 162.513 247.421C164.594 247.875 160.729 253.071 166.378 252.923C172.027 252.775 172.323 246.763 176.486 248.062C180.647 249.36 180.796 252.626 184.512 250.993C188.228 249.36 189.565 247.357 192.687 248.062C195.808 248.766 198.632 251.587 202.645 251.142C206.658 250.696 209.929 251.142 210.225 252.478C210.522 253.815 207.995 253.517 208.887 256.784C209.779 260.051 212.057 261.981 210.25 266.137C208.442 270.293 208.293 272.521 209.631 274.748C210.969 276.976 214.238 279.796 211.861 280.984C209.483 282.171 207.7 283.36 206.212 287.368C204.726 291.376 209.631 293.604 206.51 295.088C203.389 296.573 209.631 296.87 210.226 298.503C210.822 300.136 213.787 300.878 214.905 304.887C216.024 308.895 219.294 308.599 221.077 308.449C222.861 308.301 221.671 308.747 224.198 304.144C226.724 299.542 228.954 296.721 230.143 294.791C231.332 292.861 235.642 295.236 235.048 289.149C234.454 283.062 233.116 288.703 233.413 281.28C233.711 273.857 229.846 272.075 232.67 271.779C235.494 271.482 238.169 276.678 240.399 276.678C242.629 276.678 241.885 273.561 240.399 272.522C238.913 271.483 237.85 267.029 237.341 264.506C236.832 261.982 236.386 261.834 238.616 259.606C240.845 257.379 238.17 255.598 242.481 254.559C246.792 253.52 248.574 257.826 250.061 251.59C251.547 245.354 249.913 245.178 254.222 241.852C258.533 238.526 260.465 234.73 260.465 234.73" stroke="#676B78" stroke-width="0.764724" stroke-miterlimit="10" stroke-linecap="round" stroke-linejoin="round" stroke-dasharray="1.2 1.2"/>
<path d="M103.163 339.849C103.163 339.849 106.775 337.545 108.409 338.734C110.044 339.921 112.57 340.218 114.354 337.397C116.139 334.576 118.071 333.259 116.287 330.716C114.503 328.174 113.84 328.34 116.996 324.48C120.151 320.62 118.517 319.284 122.53 319.729C126.543 320.175 126.841 320.62 130.556 316.612C134.272 312.604 131.744 311.267 136.649 312.306C141.554 313.345 144.973 313.197 147.351 309.485C149.73 305.773 148.838 304.14 152.851 303.249C156.864 302.358 157.161 303.101 161.323 299.093C165.484 295.085 165.484 298.647 166.674 291.522C167.862 284.395 168.308 284.099 171.133 283.356C173.957 282.613 173.213 284.247 175.74 280.684C178.267 277.122 179.159 275.933 181.834 276.528C184.508 277.122 184.806 281.427 189.117 281.575C193.428 281.723 195.508 276.379 198.184 280.684C200.859 284.99 198.036 290.335 199.819 293.304C201.603 296.273 205.647 295.915 205.647 295.915" stroke="#676B78" stroke-width="0.764724" stroke-miterlimit="10" stroke-linecap="round" stroke-linejoin="round" stroke-dasharray="1.2 1.2"/>
<path d="M111.215 352.099C111.215 352.099 112.571 353.578 113.314 350.609C114.058 347.64 112.264 339.308 112.264 339.308" stroke="#676B78" stroke-width="0.764724" stroke-miterlimit="10" stroke-linecap="round" stroke-linejoin="round" stroke-dasharray="1.2 1.2"/>
<path d="M119.389 386.919C119.389 386.919 127.88 389.357 128.772 392.476C129.664 395.593 130.853 395.743 135.462 397.523C140.069 399.305 140.664 395.593 140.961 400.641C141.257 405.688 144.974 408.212 146.014 409.548C147.054 410.885 147.798 417.119 150.473 418.307C153.148 419.495 150.027 427.512 153.148 429.442C156.269 431.373 158.053 428.551 157.161 435.529C156.269 442.506 159.391 441.913 156.567 446.218C153.742 450.524 155.378 448.594 154.783 452.305C154.188 456.017 155.972 457.204 154.783 458.391C153.594 459.578 150.881 459.43 150.881 459.43" stroke="#676B78" stroke-width="0.764724" stroke-miterlimit="10" stroke-linecap="round" stroke-linejoin="round" stroke-dasharray="1.2 1.2"/>
<path d="M221.076 308.446C221.076 308.446 224.197 308.298 226.873 306.813C229.548 305.329 230.59 305.922 235.049 301.617C239.508 297.311 237.873 294.787 241.292 295.678C244.71 296.569 246.197 297.46 247.387 294.342C248.575 291.224 246.346 290.333 250.359 289.294C254.372 288.255 255.412 285.732 257.048 288.255C258.683 290.779 263.44 292.709 265.224 291.522C267.008 290.335 270.055 287.959 270.055 287.959" stroke="#676B78" stroke-width="0.764724" stroke-miterlimit="10" stroke-linecap="round" stroke-linejoin="round" stroke-dasharray="1.2 1.2"/>
<path d="M141.363 402.922C141.363 402.922 146.609 402.72 147.352 404.353C148.094 405.985 151.513 408.213 152.703 407.174C153.891 406.135 154.085 403.907 157.778 403.759C161.471 403.611 163.255 403.166 164.742 399.453C166.228 395.741 161.769 395.891 163.701 392.476C165.634 389.061 162.958 387.725 166.822 387.725C170.687 387.725 171.727 384.481 172.916 386.919C174.105 389.358 176.781 391.436 177.673 389.506C178.565 387.576 179.457 385.497 182.429 385.052C185.402 384.606 186.888 386.982 188.821 386.239C190.753 385.496 194.32 382.824 194.47 381.637C194.618 380.45 196.067 380.894 200.118 379.855C204.168 378.816 203.698 377.329 203.698 377.329" stroke="#676B78" stroke-width="0.764724" stroke-miterlimit="10" stroke-linecap="round" stroke-linejoin="round" stroke-dasharray="1.2 1.2"/>
<path d="M161.324 299.093C161.324 299.093 164.742 304.438 163.702 306.516C162.662 308.594 160.183 310.079 162.611 312.306C165.039 314.534 161.62 317.503 161.324 321.214C161.026 324.925 164.791 326.521 162.611 328.173C160.432 329.824 161.472 332.497 163.256 333.832C165.04 335.169 165.006 337.692 161.306 338.583C157.607 339.474 156.715 339.029 155.675 341.256C154.635 343.482 157.607 346.897 156.864 349.125C156.12 351.352 153.147 350.317 152.851 352.468C152.553 354.617 150.176 362.19 152.851 362.338C155.525 362.486 161.174 359.814 161.026 363.674C160.878 367.534 157.459 365.456 157.161 368.276C156.864 371.097 160.282 371.543 163.404 371.393C166.527 371.244 168.458 370.057 170.093 372.581C171.728 375.104 169.038 374.506 172.539 377.329C176.039 380.153 176.633 379.707 175.593 382.527C174.553 385.348 172.918 386.918 172.918 386.918" stroke="#676B78" stroke-width="0.764724" stroke-miterlimit="10" stroke-linecap="round" stroke-linejoin="round" stroke-dasharray="1.2 1.2"/>
<path d="M339.094 172.603C339.094 172.603 339.725 169.597 340.506 169.041C341.287 168.484 341.709 163.615 341.709 163.615" stroke="#676B78" stroke-width="0.764724" stroke-miterlimit="10" stroke-linecap="round" stroke-linejoin="round" stroke-dasharray="1.2 1.2"/>
<path d="M341.021 177.745C341.021 177.745 344.296 176.167 348.309 176.279C352.322 176.39 355.332 177.071 357.227 177.009C359.122 176.947 359.457 179.211 362.243 177.745C365.03 176.279 366.702 172.27 370.158 172.605C373.614 172.939 375.731 171.714 375.285 174.832C374.839 177.949 375.509 178.729 377.849 178.952C380.19 179.174 382.197 181.847 381.973 183.405C381.749 184.964 379.621 187.637 379.621 187.637" stroke="#676B78" stroke-width="0.764724" stroke-miterlimit="10" stroke-linecap="round" stroke-linejoin="round" stroke-dasharray="1.2 1.2"/>
<path d="M371.679 160.19C371.679 160.19 370.159 160.692 375.397 158.464C380.637 156.235 386.211 157.237 390.335 156.235C394.459 155.233 395.575 157.571 395.797 152.672C396.019 147.773 397.135 148.218 399.699 146.993C402.263 145.767 401.148 144.543 403.601 144.209C406.053 143.874 407.28 146.77 410.623 143.207C413.968 139.644 417.2 138.864 419.765 138.307C422.329 137.751 423.555 135.747 422.998 138.864C422.441 141.981 419.654 141.536 421.773 143.874C423.89 146.213 424.894 147.104 422.665 149.33C420.435 151.558 419.578 150.731 419.951 153.315" stroke="#676B78" stroke-width="0.764724" stroke-miterlimit="10" stroke-linecap="round" stroke-linejoin="round" stroke-dasharray="1.2 1.2"/>
<path d="M409.331 177.514C409.331 177.514 409.733 174.831 408.283 174.72C406.834 174.609 406.945 177.95 404.717 178.506C402.486 179.063 402.153 177.706 398.919 180.11C395.686 182.514 398.251 182.514 393.68 183.739C389.109 184.963 390.559 188.416 389.667 191.087C388.775 193.759 387.883 195.652 388.329 197.991C388.775 200.329 392.602 203.633 392.602 203.633" stroke="#676B78" stroke-width="0.764724" stroke-miterlimit="10" stroke-linecap="round" stroke-linejoin="round" stroke-dasharray="1.2 1.2"/>
<path d="M375.658 201.405C375.658 201.405 378.52 203.657 378.185 205.668C377.85 207.678 377.757 215.311 377.757 215.311" stroke="#676B78" stroke-width="0.764724" stroke-miterlimit="10" stroke-linecap="round" stroke-linejoin="round" stroke-dasharray="1.2 1.2"/>
<path d="M387.66 198.102C387.66 198.102 387.66 197.322 384.761 197.545C381.863 197.767 384.572 201.553 381.991 202.333C379.41 203.113 377.653 203.633 377.653 203.633" stroke="#676B78" stroke-width="0.764724" stroke-miterlimit="10" stroke-linecap="round" stroke-linejoin="round" stroke-dasharray="1.2 1.2"/>
<path d="M393.68 183.738C393.68 183.738 395.018 181.178 393.234 178.059C391.45 174.942 394.684 172.938 395.798 173.16C396.912 173.382 397.446 173.572 398.797 173.143C400.146 172.715 400.703 167.592 402.709 165.477C404.716 163.362 404.494 164.475 406.946 160.689C409.399 156.902 410.291 156.235 413.858 155.344C417.425 154.453 420.557 152.52 420.557 152.52" stroke="#676B78" stroke-width="0.764724" stroke-miterlimit="10" stroke-linecap="round" stroke-linejoin="round" stroke-dasharray="1.2 1.2"/>
<path d="M141.561 40.4173C146.743 40.4173 150.944 36.2216 150.944 31.0458C150.944 25.8701 146.743 21.6743 141.561 21.6743C136.379 21.6743 132.179 25.8701 132.179 31.0458C132.179 36.2216 136.379 40.4173 141.561 40.4173Z" fill="#0BDBB6"/>
<path d="M146.958 31.0457C146.958 34.0223 144.541 36.4361 141.561 36.4361C138.581 36.4361 136.164 34.0223 136.164 31.0457C136.164 28.0691 138.581 25.6553 141.561 25.6553C144.541 25.6553 146.958 28.0691 146.958 31.0457Z" stroke="white" stroke-width="0.763866" stroke-miterlimit="10"/>
<path d="M141.562 40.4185V46.8961" stroke="#0BDBB6" stroke-width="0.916682" stroke-miterlimit="10" stroke-linecap="round" stroke-linejoin="round"/>
<path d="M143.256 48.8362C143.256 49.7716 142.498 50.5294 141.561 50.5294C140.625 50.5294 139.866 49.7716 139.866 48.8362C139.866 47.9008 140.625 47.1431 141.561 47.1431C142.498 47.1431 143.256 47.9008 143.256 48.8362Z" stroke="#0BDBB6" stroke-width="0.916682" stroke-miterlimit="10" stroke-linecap="round" stroke-linejoin="round"/>
<path d="M120.352 157.333C121.546 152.297 118.427 147.247 113.384 146.054C108.342 144.861 103.286 147.976 102.091 153.013C100.897 158.049 104.016 163.099 109.059 164.292C114.101 165.485 119.157 162.37 120.352 157.333Z" fill="#0BDBB6"/>
<path d="M116.611 155.183C116.611 158.16 114.194 160.574 111.214 160.574C108.234 160.574 105.817 158.16 105.817 155.183C105.817 152.207 108.234 149.793 111.214 149.793C114.195 149.793 116.611 152.207 116.611 155.183Z" stroke="white" stroke-width="0.763866" stroke-miterlimit="10"/>
<path d="M111.215 164.555V171.034" stroke="#0BDBB6" stroke-width="0.916682" stroke-miterlimit="10" stroke-linecap="round" stroke-linejoin="round"/>
<path d="M112.91 172.972C112.91 173.908 112.151 174.666 111.215 174.666C110.278 174.666 109.52 173.908 109.52 172.972C109.52 172.037 110.278 171.279 111.215 171.279C112.151 171.279 112.91 172.037 112.91 172.972Z" stroke="#0BDBB6" stroke-width="0.916682" stroke-miterlimit="10" stroke-linecap="round" stroke-linejoin="round"/>
<path d="M125.243 283.175C130.425 283.175 134.625 278.979 134.625 273.803C134.625 268.627 130.425 264.432 125.243 264.432C120.061 264.432 115.86 268.627 115.86 273.803C115.86 278.979 120.061 283.175 125.243 283.175Z" fill="#0BDBB6"/>
<path d="M130.639 273.803C130.639 276.78 128.222 279.193 125.242 279.193C122.262 279.193 119.846 276.78 119.846 273.803C119.846 270.826 122.262 268.413 125.242 268.413C128.222 268.413 130.639 270.826 130.639 273.803Z" stroke="white" stroke-width="0.763866" stroke-miterlimit="10"/>
<path d="M125.243 283.176V289.653" stroke="#0BDBB6" stroke-width="0.916682" stroke-miterlimit="10" stroke-linecap="round" stroke-linejoin="round"/>
<path d="M126.938 291.594C126.938 292.529 126.18 293.287 125.243 293.287C124.306 293.287 123.548 292.529 123.548 291.594C123.548 290.658 124.306 289.9 125.243 289.9C126.178 289.9 126.938 290.658 126.938 291.594Z" stroke="#0BDBB6" stroke-width="0.916682" stroke-miterlimit="10" stroke-linecap="round" stroke-linejoin="round"/>
<path d="M136.165 356.784C141.347 356.784 145.547 352.589 145.547 347.413C145.547 342.237 141.347 338.041 136.165 338.041C130.983 338.041 126.782 342.237 126.782 347.413C126.782 352.589 130.983 356.784 136.165 356.784Z" fill="#0BDBB6"/>
<path d="M141.561 347.413C141.561 350.389 139.144 352.803 136.164 352.803C133.184 352.803 130.768 350.389 130.768 347.413C130.768 344.436 133.184 342.022 136.164 342.022C139.144 342.022 141.561 344.435 141.561 347.413Z" stroke="white" stroke-width="0.763866" stroke-miterlimit="10"/>
<path d="M136.165 356.784V363.262" stroke="#0BDBB6" stroke-width="0.916682" stroke-miterlimit="10" stroke-linecap="round" stroke-linejoin="round"/>
<path d="M137.86 365.202C137.86 366.137 137.101 366.895 136.165 366.895C135.228 366.895 134.47 366.137 134.47 365.202C134.47 364.267 135.228 363.509 136.165 363.509C137.101 363.509 137.86 364.267 137.86 365.202Z" stroke="#0BDBB6" stroke-width="0.916682" stroke-miterlimit="10" stroke-linecap="round" stroke-linejoin="round"/>
<path d="M206.883 167.638C212.065 167.638 216.266 163.442 216.266 158.266C216.266 153.09 212.065 148.895 206.883 148.895C201.702 148.895 197.501 153.09 197.501 158.266C197.501 163.442 201.702 167.638 206.883 167.638Z" fill="#0BDBB6"/>
<path d="M212.28 158.266C212.28 161.243 209.863 163.657 206.883 163.657C203.903 163.657 201.486 161.243 201.486 158.266C201.486 155.29 203.903 152.876 206.883 152.876C209.864 152.876 212.28 155.288 212.28 158.266Z" stroke="white" stroke-width="0.763866" stroke-miterlimit="10"/>
<path d="M206.884 167.638V174.115" stroke="#0BDBB6" stroke-width="0.916682" stroke-miterlimit="10" stroke-linecap="round" stroke-linejoin="round"/>
<path d="M208.579 176.055C208.579 176.991 207.82 177.748 206.884 177.748C205.947 177.748 205.188 176.991 205.188 176.055C205.188 175.12 205.947 174.362 206.884 174.362C207.82 174.362 208.579 175.12 208.579 176.055Z" stroke="#0BDBB6" stroke-width="0.916682" stroke-miterlimit="10" stroke-linecap="round" stroke-linejoin="round"/>
<path d="M148.637 122.579C153.819 122.579 158.02 118.384 158.02 113.208C158.02 108.032 153.819 103.836 148.637 103.836C143.456 103.836 139.255 108.032 139.255 113.208C139.255 118.384 143.456 122.579 148.637 122.579Z" fill="#0BDBB6"/>
<path d="M154.034 113.208C154.034 116.184 151.617 118.598 148.637 118.598C145.657 118.598 143.24 116.184 143.24 113.208C143.24 110.231 145.657 107.817 148.637 107.817C151.618 107.817 154.034 110.23 154.034 113.208Z" stroke="white" stroke-width="0.763866" stroke-miterlimit="10"/>
<path d="M148.638 122.58V129.057" stroke="#0BDBB6" stroke-width="0.916682" stroke-miterlimit="10" stroke-linecap="round" stroke-linejoin="round"/>
<path d="M150.333 130.997C150.333 131.933 149.574 132.69 148.638 132.69C147.701 132.69 146.942 131.933 146.942 130.997C146.942 130.062 147.701 129.304 148.638 129.304C149.574 129.304 150.333 130.062 150.333 130.997Z" stroke="#0BDBB6" stroke-width="0.916682" stroke-miterlimit="10" stroke-linecap="round" stroke-linejoin="round"/>
<path d="M76.9772 217.603C82.1591 217.603 86.3598 213.407 86.3598 208.231C86.3598 203.056 82.1591 198.86 76.9772 198.86C71.7954 198.86 67.5947 203.056 67.5947 208.231C67.5947 213.407 71.7954 217.603 76.9772 217.603Z" fill="#0BDBB6"/>
<path d="M82.3736 208.231C82.3736 211.208 79.9569 213.622 76.9768 213.622C73.9968 213.622 71.5801 211.208 71.5801 208.231C71.5801 205.255 73.9968 202.841 76.9768 202.841C79.9581 202.841 82.3736 205.253 82.3736 208.231Z" stroke="white" stroke-width="0.763866" stroke-miterlimit="10"/>
<path d="M76.9775 217.603V224.08" stroke="#0BDBB6" stroke-width="0.916682" stroke-miterlimit="10" stroke-linecap="round" stroke-linejoin="round"/>
<path d="M78.6725 226.021C78.6725 226.956 77.9139 227.714 76.9774 227.714C76.0408 227.714 75.2822 226.956 75.2822 226.021C75.2822 225.085 76.0408 224.327 76.9774 224.327C77.9139 224.327 78.6725 225.085 78.6725 226.021Z" stroke="#0BDBB6" stroke-width="0.916682" stroke-miterlimit="10" stroke-linecap="round" stroke-linejoin="round"/>
<path d="M279.602 194.155C284.784 194.155 288.985 189.96 288.985 184.784C288.985 179.608 284.784 175.412 279.602 175.412C274.42 175.412 270.22 179.608 270.22 184.784C270.22 189.96 274.42 194.155 279.602 194.155Z" fill="#0BDBB6"/>
<path d="M284.999 184.784C284.999 187.761 282.582 190.174 279.602 190.174C276.622 190.174 274.205 187.761 274.205 184.784C274.205 181.807 276.622 179.394 279.602 179.394C282.583 179.394 284.999 181.806 284.999 184.784Z" stroke="white" stroke-width="0.763866" stroke-miterlimit="10"/>
<path d="M279.603 194.155V200.633" stroke="#0BDBB6" stroke-width="0.916682" stroke-miterlimit="10" stroke-linecap="round" stroke-linejoin="round"/>
<path d="M281.298 202.573C281.298 203.508 280.539 204.266 279.602 204.266C278.666 204.266 277.907 203.508 277.907 202.573C277.907 201.638 278.666 200.88 279.602 200.88C280.539 200.88 281.298 201.638 281.298 202.573Z" stroke="#0BDBB6" stroke-width="0.916682" stroke-miterlimit="10" stroke-linecap="round" stroke-linejoin="round"/>
<path d="M279.602 254.625C284.784 254.625 288.985 250.429 288.985 245.253C288.985 240.078 284.784 235.882 279.602 235.882C274.42 235.882 270.22 240.078 270.22 245.253C270.22 250.429 274.42 254.625 279.602 254.625Z" fill="#0BDBB6"/>
<path d="M284.999 245.253C284.999 248.23 282.582 250.644 279.602 250.644C276.622 250.644 274.205 248.23 274.205 245.253C274.205 242.277 276.622 239.863 279.602 239.863C282.583 239.863 284.999 242.275 284.999 245.253Z" stroke="white" stroke-width="0.763866" stroke-miterlimit="10"/>
<path d="M279.603 254.625V261.102" stroke="#0BDBB6" stroke-width="0.916682" stroke-miterlimit="10" stroke-linecap="round" stroke-linejoin="round"/>
<path d="M281.298 263.042C281.298 263.978 280.539 264.736 279.602 264.736C278.666 264.736 277.907 263.978 277.907 263.042C277.907 262.107 278.666 261.349 279.602 261.349C280.539 261.349 281.298 262.107 281.298 263.042Z" stroke="#0BDBB6" stroke-width="0.916682" stroke-miterlimit="10" stroke-linecap="round" stroke-linejoin="round"/>
<path d="M188.174 327.435C193.355 327.435 197.556 323.239 197.556 318.063C197.556 312.888 193.355 308.692 188.174 308.692C182.992 308.692 178.791 312.888 178.791 318.063C178.791 323.239 182.992 327.435 188.174 327.435Z" fill="#0BDBB6"/>
<path d="M193.57 318.063C193.57 321.04 191.153 323.454 188.173 323.454C185.193 323.454 182.776 321.04 182.776 318.063C182.776 315.087 185.193 312.673 188.173 312.673C191.154 312.673 193.57 315.085 193.57 318.063Z" stroke="white" stroke-width="0.763866" stroke-miterlimit="10"/>
<path d="M188.174 327.435V333.913" stroke="#0BDBB6" stroke-width="0.916682" stroke-miterlimit="10" stroke-linecap="round" stroke-linejoin="round"/>
<path d="M189.869 335.853C189.869 336.788 189.11 337.546 188.174 337.546C187.237 337.546 186.479 336.788 186.479 335.853C186.479 334.917 187.237 334.159 188.174 334.159C189.11 334.159 189.869 334.917 189.869 335.853Z" stroke="#0BDBB6" stroke-width="0.916682" stroke-miterlimit="10" stroke-linecap="round" stroke-linejoin="round"/>
<path d="M388.211 159.834C393.392 159.834 397.593 155.639 397.593 150.463C397.593 145.287 393.392 141.091 388.211 141.091C383.029 141.091 378.828 145.287 378.828 150.463C378.828 155.639 383.029 159.834 388.211 159.834Z" fill="#0BDBB6"/>
<path d="M393.607 150.463C393.607 153.44 391.19 155.853 388.21 155.853C385.23 155.853 382.813 153.44 382.813 150.463C382.813 147.486 385.23 145.073 388.21 145.073C391.19 145.073 393.607 147.486 393.607 150.463Z" stroke="white" stroke-width="0.763866" stroke-miterlimit="10"/>
<path d="M388.211 159.835V166.313" stroke="#0BDBB6" stroke-width="0.916682" stroke-miterlimit="10" stroke-linecap="round" stroke-linejoin="round"/>
<path d="M389.906 168.252C389.906 169.187 389.147 169.945 388.211 169.945C387.274 169.945 386.516 169.187 386.516 168.252C386.516 167.317 387.274 166.559 388.211 166.559C389.147 166.559 389.906 167.318 389.906 168.252Z" stroke="#0BDBB6" stroke-width="0.916682" stroke-miterlimit="10" stroke-linecap="round" stroke-linejoin="round"/>
<path d="M148.382 430.743C153.563 430.743 157.764 426.547 157.764 421.372C157.764 416.196 153.563 412 148.382 412C143.2 412 138.999 416.196 138.999 421.372C138.999 426.547 143.2 430.743 148.382 430.743Z" fill="#0BDBB6"/>
<path d="M153.778 421.372C153.778 424.348 151.361 426.762 148.381 426.762C145.401 426.762 142.984 424.348 142.984 421.372C142.984 418.395 145.401 415.981 148.381 415.981C151.361 415.981 153.778 418.395 153.778 421.372Z" stroke="white" stroke-width="0.763866" stroke-miterlimit="10"/>
<path d="M148.382 430.744V437.222" stroke="#0BDBB6" stroke-width="0.916682" stroke-miterlimit="10" stroke-linecap="round" stroke-linejoin="round"/>
<path d="M150.077 439.161C150.077 440.096 149.318 440.854 148.382 440.854C147.445 440.854 146.687 440.096 146.687 439.161C146.687 438.225 147.445 437.468 148.382 437.468C149.318 437.468 150.077 438.226 150.077 439.161Z" stroke="#0BDBB6" stroke-width="0.916682" stroke-miterlimit="10" stroke-linecap="round" stroke-linejoin="round"/>
<path d="M223.771 240.773C228.953 240.773 233.154 236.578 233.154 231.402C233.154 226.226 228.953 222.03 223.771 222.03C218.589 222.03 214.389 226.226 214.389 231.402C214.389 236.578 218.589 240.773 223.771 240.773Z" fill="#0BDBB6"/>
<path d="M229.168 231.402C229.168 234.378 226.751 236.792 223.771 236.792C220.791 236.792 218.374 234.378 218.374 231.402C218.374 228.425 220.791 226.011 223.771 226.011C226.752 226.011 229.168 228.424 229.168 231.402Z" stroke="white" stroke-width="0.763866" stroke-miterlimit="10"/>
<path d="M223.771 240.773V247.251" stroke="#0BDBB6" stroke-width="0.916682" stroke-miterlimit="10" stroke-linecap="round" stroke-linejoin="round"/>
<path d="M225.466 249.191C225.466 250.126 224.708 250.884 223.771 250.884C222.835 250.884 222.076 250.126 222.076 249.191C222.076 248.255 222.835 247.498 223.771 247.498C224.708 247.498 225.466 248.255 225.466 249.191Z" stroke="#0BDBB6" stroke-width="0.916682" stroke-miterlimit="10" stroke-linecap="round" stroke-linejoin="round"/>
<path d="M186.777 408.431C187.605 403.322 184.13 398.51 179.015 397.683C173.9 396.856 169.082 400.327 168.254 405.436C167.426 410.545 170.901 415.357 176.016 416.184C181.131 417.011 185.949 413.54 186.777 408.431Z" fill="#0BDBB6"/>
<path d="M182.94 406.916C182.94 409.892 180.523 412.306 177.543 412.306C174.563 412.306 172.146 409.892 172.146 406.916C172.146 403.939 174.563 401.525 177.543 401.525C180.523 401.525 182.94 403.939 182.94 406.916Z" stroke="white" stroke-width="0.763866" stroke-miterlimit="10"/>
<path d="M177.543 416.287V422.765" stroke="#0BDBB6" stroke-width="0.916682" stroke-miterlimit="10" stroke-linecap="round" stroke-linejoin="round"/>
<path d="M179.238 424.705C179.238 425.641 178.479 426.398 177.543 426.398C176.606 426.398 175.848 425.641 175.848 424.705C175.848 423.77 176.606 423.012 177.543 423.012C178.479 423.012 179.238 423.77 179.238 424.705Z" stroke="#0BDBB6" stroke-width="0.916682" stroke-miterlimit="10" stroke-linecap="round" stroke-linejoin="round"/>
</svg>
