<svg width="40" height="40" viewBox="0 0 40 40" fill="none" xmlns="http://www.w3.org/2000/svg">
<rect width="40" height="39.9322" rx="8" fill="#0BDBB6"/>
<path d="M20.2803 10.5817C19.6451 10.5817 19.1303 11.0966 19.1303 11.7317V27.7012C19.1303 28.3363 19.6451 28.8512 20.2803 28.8512C20.9154 28.8512 21.4303 28.3363 21.4303 27.7012V11.7317C21.4303 11.0966 20.9154 10.5817 20.2803 10.5817Z" fill="#CEF8F0" stroke="#CEF8F0" stroke-width="0.3" stroke-linecap="round"/>
<path d="M12.2786 18.568C11.6444 18.568 11.1303 19.0821 11.1303 19.7163C11.1303 20.3505 11.6444 20.8646 12.2786 20.8646H28.282C28.9162 20.8646 29.4303 20.3505 29.4303 19.7163C29.4303 19.0821 28.9162 18.568 28.282 18.568H12.2786Z" fill="#CEF8F0" stroke="#CEF8F0" stroke-width="0.3" stroke-linecap="round"/>
</svg>
