<svg width="29" height="20" viewBox="0 0 29 20" fill="none" xmlns="http://www.w3.org/2000/svg">
<path d="M11.8453 14.1281L18.9044 10.0477L11.8453 5.96734V14.1281ZM27.5683 3.47832C27.7452 4.11758 27.8676 4.97445 27.9492 6.06255C28.0444 7.15065 28.0852 8.08914 28.0852 8.90521L28.1668 10.0477C28.1668 13.0264 27.9492 15.2162 27.5683 16.6171C27.2283 17.8412 26.4394 18.6301 25.2153 18.9701C24.5761 19.1469 23.4064 19.2693 21.611 19.3509C19.8428 19.4462 18.2243 19.487 16.7282 19.487L14.5656 19.5686C8.86666 19.5686 5.31675 19.3509 3.91582 18.9701C2.69171 18.6301 1.90284 17.8412 1.56281 16.6171C1.38599 15.9778 1.26358 15.121 1.18198 14.0329C1.08677 12.9448 1.04596 12.0063 1.04596 11.1902L0.964355 10.0477C0.964355 7.06904 1.18198 4.87925 1.56281 3.47832C1.90284 2.25421 2.69171 1.46534 3.91582 1.12531C4.55508 0.948493 5.72478 0.826082 7.52014 0.744475C9.2883 0.649266 10.9068 0.608463 12.403 0.608463L14.5656 0.526855C20.2645 0.526855 23.8144 0.744475 25.2153 1.12531C26.4394 1.46534 27.2283 2.25421 27.5683 3.47832Z" fill="#0BDBB6"/>
</svg>
