<svg width="5" height="5" viewBox="0 0 5 5" fill="none" xmlns="http://www.w3.org/2000/svg">
<path d="M4.7375 5C4.21667 5 3.70208 4.8865 3.19375 4.6595C2.68542 4.4325 2.22292 4.11058 1.80625 3.69375C1.38958 3.27692 1.06775 2.81442 0.84075 2.30625C0.61375 1.79808 0.500167 1.2835 0.5 0.7625C0.5 0.6875 0.525 0.625 0.575 0.575C0.625 0.525 0.6875 0.5 0.7625 0.5H1.775C1.83333 0.5 1.88542 0.519833 1.93125 0.5595C1.97708 0.599167 2.00417 0.646 2.0125 0.7L2.175 1.575C2.18333 1.64167 2.18125 1.69792 2.16875 1.74375C2.15625 1.78958 2.13333 1.82917 2.1 1.8625L1.49375 2.475C1.57708 2.62917 1.676 2.77808 1.7905 2.92175C1.905 3.06542 2.03108 3.204 2.16875 3.3375C2.29792 3.46667 2.43333 3.5865 2.575 3.697C2.71667 3.8075 2.86667 3.9085 3.025 4L3.6125 3.4125C3.65 3.375 3.699 3.34692 3.7595 3.32825C3.82 3.30958 3.87933 3.30433 3.9375 3.3125L4.8 3.4875C4.85833 3.50417 4.90625 3.53442 4.94375 3.57825C4.98125 3.62208 5 3.671 5 3.725V4.7375C5 4.8125 4.975 4.875 4.925 4.925C4.875 4.975 4.8125 5 4.7375 5Z" fill="#FDE9D5"/>
</svg>
