<svg width="6" height="5" viewBox="0 0 6 5" fill="none" xmlns="http://www.w3.org/2000/svg">
<path d="M4.09 3C4.11 2.835 4.125 2.67 4.125 2.5C4.125 2.33 4.11 2.165 4.09 2H4.935C4.975 2.16 5 2.3275 5 2.5C5 2.6725 4.975 2.84 4.935 3M3.6475 4.39C3.7975 4.1125 3.9125 3.8125 3.9925 3.5H4.73C4.48779 3.91707 4.10353 4.233 3.6475 4.39ZM3.585 3H2.415C2.39 2.835 2.375 2.67 2.375 2.5C2.375 2.33 2.39 2.1625 2.415 2H3.585C3.6075 2.1625 3.625 2.33 3.625 2.5C3.625 2.67 3.6075 2.835 3.585 3ZM3 4.49C2.7925 4.19 2.625 3.8575 2.5225 3.5H3.4775C3.375 3.8575 3.2075 4.19 3 4.49ZM2 1.5H1.27C1.50966 1.08176 1.89366 0.76531 2.35 0.61C2.2 0.8875 2.0875 1.1875 2 1.5ZM1.27 3.5H2C2.0875 3.8125 2.2 4.1125 2.35 4.39C1.89457 4.23308 1.51107 3.91705 1.27 3.5ZM1.065 3C1.025 2.84 1 2.6725 1 2.5C1 2.3275 1.025 2.16 1.065 2H1.91C1.89 2.165 1.875 2.33 1.875 2.5C1.875 2.67 1.89 2.835 1.91 3M3 0.5075C3.2075 0.8075 3.375 1.1425 3.4775 1.5H2.5225C2.625 1.1425 2.7925 0.8075 3 0.5075ZM4.73 1.5H3.9925C3.91414 1.1904 3.79828 0.891526 3.6475 0.61C4.1075 0.7675 4.49 1.085 4.73 1.5ZM3 0C1.6175 0 0.5 1.125 0.5 2.5C0.5 3.16304 0.763392 3.79893 1.23223 4.26777C1.46438 4.49991 1.73998 4.68406 2.04329 4.8097C2.34661 4.93534 2.6717 5 3 5C3.66304 5 4.29893 4.73661 4.76777 4.26777C5.23661 3.79893 5.5 3.16304 5.5 2.5C5.5 2.1717 5.43534 1.84661 5.3097 1.54329C5.18406 1.23998 4.99991 0.964379 4.76777 0.732233C4.53562 0.500087 4.26002 0.315938 3.95671 0.190301C3.65339 0.0646644 3.3283 0 3 0Z" fill="#FDE9D5"/>
</svg>
