<svg width="41" height="45" viewBox="0 0 41 45" fill="none" xmlns="http://www.w3.org/2000/svg">
<path d="M12.1 23.2095C18.755 23.2095 24.2 27.5413 24.2 32.8895C24.2 38.2377 18.755 42.5695 12.1 42.5695C10.5996 42.5695 9.1597 42.3517 7.8287 41.9645C4.2955 44.9895 0 44.9895 0 44.9895C2.8193 42.1702 3.267 40.2705 3.3275 39.5445C1.2705 37.8142 0 35.4668 0 32.8895C0 27.5413 5.445 23.2095 12.1 23.2095Z" fill="#C2D2EB"/>
<path d="M22.0996 31.5L22.1007 31.5C23.8396 31.5039 25.5713 31.2781 27.2511 30.8285L27.4358 30.7791L27.6064 30.8655C28.8744 31.5082 31.8422 32.7701 36.8671 33.5944C36.8833 33.5969 36.8924 33.5943 36.8989 33.5915C36.9073 33.5878 36.9187 33.58 36.9293 33.5658C36.9511 33.5365 36.9556 33.5018 36.9416 33.469L36.9414 33.4685C36.1287 31.5492 35.3932 28.9927 35.1716 26.647L35.1495 26.4134L35.3151 26.2472C37.9885 23.5628 39.5996 20.0635 39.5996 16.25C39.5996 7.88828 31.8288 1 22.0996 1C12.3704 1 4.59961 7.88828 4.59961 16.25C4.59961 24.6117 12.3704 31.5 22.0996 31.5ZM28.3496 16.25C28.3496 15.5207 28.6393 14.8212 29.1551 14.3055C29.6708 13.7897 30.3703 13.5 31.0996 13.5C31.829 13.5 32.5284 13.7897 33.0442 14.3055C33.5599 14.8212 33.8496 15.5207 33.8496 16.25C33.8496 16.9793 33.5599 17.6788 33.0442 18.1945C32.5284 18.7103 31.829 19 31.0996 19C30.3703 19 29.6708 18.7103 29.1551 18.1945C28.6393 17.6788 28.3496 16.9793 28.3496 16.25ZM19.3496 16.25C19.3496 15.5207 19.6393 14.8212 20.1551 14.3055C20.6708 13.7897 21.3703 13.5 22.0996 13.5C22.829 13.5 23.5284 13.7897 24.0442 14.3055C24.5599 14.8212 24.8496 15.5207 24.8496 16.25C24.8496 16.9793 24.5599 17.6788 24.0442 18.1945C23.5284 18.7103 22.829 19 22.0996 19C21.3703 19 20.6708 18.7103 20.1551 18.1945C19.6393 17.6788 19.3496 16.9793 19.3496 16.25ZM13.0996 19C12.3703 19 11.6708 18.7103 11.1551 18.1945C10.6393 17.6788 10.3496 16.9793 10.3496 16.25C10.3496 15.5207 10.6393 14.8212 11.1551 14.3055C11.6708 13.7897 12.3703 13.5 13.0996 13.5C13.829 13.5 14.5284 13.7897 15.0442 14.3055C15.5599 14.8212 15.8496 15.5207 15.8496 16.25C15.8496 16.9793 15.5599 17.6788 15.0442 18.1945C14.5284 18.7103 13.829 19 13.0996 19Z" fill="#0BDBB6" stroke="white"/>
</svg>
