<svg width="30" height="19" viewBox="0 0 30 19" fill="none" xmlns="http://www.w3.org/2000/svg">
<path d="M30 4.55004C30 4.84841 29.8815 5.13455 29.6705 5.34553C29.4595 5.55651 29.1734 5.67504 28.875 5.67504H25.2C24.9494 6.60935 24.3976 7.4349 23.6301 8.02369C22.8626 8.61248 21.9223 8.93162 20.955 8.93162C19.9877 8.93162 19.0474 8.61248 18.2799 8.02369C17.5124 7.4349 16.9606 6.60935 16.71 5.67504H1.125C0.977263 5.67504 0.830972 5.64594 0.694481 5.5894C0.55799 5.53287 0.433971 5.45 0.329505 5.34553C0.225039 5.24107 0.142172 5.11705 0.0856354 4.98056C0.0290989 4.84406 0 4.69777 0 4.55004C0 4.4023 0.0290989 4.25601 0.0856354 4.11952C0.142172 3.98303 0.225039 3.85901 0.329505 3.75454C0.433971 3.65008 0.55799 3.56721 0.694481 3.51067C0.830972 3.45414 0.977263 3.42504 1.125 3.42504H16.71C16.9606 2.49072 17.5124 1.66517 18.2799 1.07638C19.0474 0.487592 19.9877 0.168457 20.955 0.168457C21.9223 0.168457 22.8626 0.487592 23.6301 1.07638C24.3976 1.66517 24.9494 2.49072 25.2 3.42504H28.875C29.0233 3.42302 29.1705 3.45074 29.3079 3.50656C29.4453 3.56238 29.5701 3.64518 29.675 3.75005C29.7799 3.85492 29.8627 3.97974 29.9185 4.11714C29.9743 4.25455 30.002 4.40174 30 4.55004ZM30 14.45C30.002 14.5983 29.9743 14.7455 29.9185 14.8829C29.8627 15.0203 29.7799 15.1452 29.675 15.25C29.5701 15.3549 29.4453 15.4377 29.3079 15.4935C29.1705 15.5493 29.0233 15.5771 28.875 15.575H11.325C11.0744 16.5094 10.5226 17.3349 9.75513 17.9237C8.98764 18.5125 8.04733 18.8316 7.08 18.8316C6.11267 18.8316 5.17236 18.5125 4.40487 17.9237C3.63737 17.3349 3.08556 16.5094 2.835 15.575H1.125C0.826631 15.575 0.540483 15.4565 0.329505 15.2455C0.118526 15.0346 0 14.7484 0 14.45C0 14.1517 0.118526 13.8655 0.329505 13.6545C0.540483 13.4436 0.826631 13.325 1.125 13.325H2.835C3.08556 12.3907 3.63737 11.5652 4.40487 10.9764C5.17236 10.3876 6.11267 10.0685 7.08 10.0685C8.04733 10.0685 8.98764 10.3876 9.75513 10.9764C10.5226 11.5652 11.0744 12.3907 11.325 13.325H28.875C29.1734 13.325 29.4595 13.4436 29.6705 13.6545C29.8815 13.8655 30 14.1517 30 14.45Z" fill="black"/>
</svg>
