<svg width="15" height="13" viewBox="0 0 15 13" fill="none" xmlns="http://www.w3.org/2000/svg">
<mask id="path-1-inside-1_1667_15041" fill="white">
<path fill-rule="evenodd" clip-rule="evenodd" d="M1.74662 7.25466L1.42688 6.93536C-0.161906 5.3488 -0.161905 2.77648 1.42688 1.18992C3.01566 -0.39664 5.59159 -0.39664 7.18038 1.18992L7.50012 1.50921L7.81961 1.19017C9.40839 -0.396387 11.9843 -0.396387 13.5731 1.19017C15.1619 2.77673 15.1619 5.34906 13.5731 6.93562L7.49997 13.0003L1.74647 7.25481L1.74662 7.25466Z"/>
</mask>
<path d="M1.74662 7.25466L2.45289 7.9626L3.16217 7.255L2.45323 6.54706L1.74662 7.25466ZM1.42688 6.93536L2.13349 6.22776L1.42688 6.93536ZM1.42688 1.18992L0.720268 0.482318L0.720268 0.482318L1.42688 1.18992ZM7.18038 1.18992L7.88699 0.482319L7.88699 0.482318L7.18038 1.18992ZM7.50012 1.50921L6.79351 2.21682L7.50012 2.92244L8.20673 2.21682L7.50012 1.50921ZM7.81961 1.19017L8.52622 1.89778V1.89777L7.81961 1.19017ZM13.5731 1.19017L12.8665 1.89778V1.89778L13.5731 1.19017ZM13.5731 6.93562L12.8665 6.22801L13.5731 6.93562ZM7.49997 13.0003L6.79336 13.7079L7.49997 14.4135L8.20658 13.7079L7.49997 13.0003ZM1.74647 7.25481L1.0402 6.54686L0.330919 7.25446L1.03986 7.96241L1.74647 7.25481ZM2.45323 6.54706L2.13349 6.22776L0.720267 7.64296L1.04001 7.96226L2.45323 6.54706ZM2.13349 6.22776C0.93589 5.03184 0.935891 3.09345 2.13349 1.89752L0.720268 0.482318C-1.2597 2.45952 -1.2597 5.66577 0.720267 7.64296L2.13349 6.22776ZM2.13349 1.89752C3.33186 0.700826 5.27539 0.700826 6.47376 1.89752L7.88699 0.482318C5.90779 -1.49411 2.69946 -1.49411 0.720268 0.482318L2.13349 1.89752ZM6.47376 1.89752L6.79351 2.21682L8.20673 0.801613L7.88699 0.482319L6.47376 1.89752ZM8.20673 2.21682L8.52622 1.89778L7.11299 0.482571L6.79351 0.801613L8.20673 2.21682ZM8.52622 1.89777C9.72459 0.701079 11.6681 0.701079 12.8665 1.89778L14.2797 0.482572C12.3005 -1.49385 9.09219 -1.49385 7.11299 0.482571L8.52622 1.89777ZM12.8665 1.89778C14.0641 3.0937 14.0641 5.03209 12.8665 6.22801L14.2797 7.64322C16.2597 5.66602 16.2597 2.45977 14.2797 0.482572L12.8665 1.89778ZM12.8665 6.22801L6.79335 12.2926L8.20658 13.7079L14.2797 7.64322L12.8665 6.22801ZM8.20658 12.2926L2.45308 6.54721L1.03986 7.96241L6.79336 13.7079L8.20658 12.2926ZM2.45274 7.96276L2.45289 7.9626L1.04036 6.54671L1.0402 6.54686L2.45274 7.96276Z" fill="#B9B9B9" mask="url(#path-1-inside-1_1667_15041)"/>
</svg>
