<svg width="19" height="17" viewBox="0 0 19 17" fill="none" xmlns="http://www.w3.org/2000/svg">
<mask id="path-1-inside-1_1667_15037" fill="white">
<path fill-rule="evenodd" clip-rule="evenodd" d="M1.97623 9.48686L1.55821 9.06942C-0.519433 6.99469 -0.519432 3.63088 1.55821 1.55615C3.63585 -0.518581 7.00437 -0.518583 9.08201 1.55615L9.50003 1.97358L9.91793 1.55627C11.9956 -0.518462 15.3641 -0.518461 17.4417 1.55627C19.5194 3.631 19.5194 6.99481 17.4417 9.06954L9.49994 17.0002L1.97614 9.48695L1.97623 9.48686Z"/>
</mask>
<path d="M1.97623 9.48686L2.68101 10.1963L3.39326 9.48868L2.68284 8.77925L1.97623 9.48686ZM1.55821 9.06942L2.26482 8.36182H2.26482L1.55821 9.06942ZM1.55821 1.55615L0.851596 0.848548L1.55821 1.55615ZM9.08201 1.55615L9.78862 0.848547V0.848547L9.08201 1.55615ZM9.50003 1.97358L8.79342 2.68119L9.50003 3.38681L10.2066 2.68119L9.50003 1.97358ZM9.91793 1.55627L10.6245 2.26387L10.6245 2.26387L9.91793 1.55627ZM17.4417 1.55627L18.1483 0.848669V0.848668L17.4417 1.55627ZM17.4417 9.06954L16.7351 8.36194L17.4417 9.06954ZM9.49994 17.0002L8.79333 17.7078L9.49994 18.4134L10.2065 17.7078L9.49994 17.0002ZM1.97614 9.48695L1.27135 8.77752L0.559101 9.48512L1.26952 10.1945L1.97614 9.48695ZM2.68284 8.77925L2.26482 8.36182L0.851595 9.77702L1.26961 10.1945L2.68284 8.77925ZM2.26482 8.36182C0.578364 6.67772 0.578364 3.94785 2.26482 2.26375L0.851596 0.848548C-1.61723 3.31392 -1.61723 7.31165 0.851596 9.77702L2.26482 8.36182ZM2.26482 2.26375C3.95205 0.578884 6.68817 0.578884 8.3754 2.26375L9.78862 0.848547C7.32057 -1.61605 3.31965 -1.61605 0.851596 0.848548L2.26482 2.26375ZM8.3754 2.26375L8.79342 2.68119L10.2066 1.26598L9.78862 0.848547L8.3754 2.26375ZM10.2066 2.68119L10.6245 2.26387L9.21132 0.848667L8.79342 1.26598L10.2066 2.68119ZM10.6245 2.26387C12.3118 0.579004 15.0479 0.579004 16.7351 2.26387L18.1483 0.848668C15.6803 -1.61593 11.6794 -1.61593 9.21132 0.848668L10.6245 2.26387ZM16.7351 2.26387C18.4216 3.94797 18.4216 6.67784 16.7351 8.36194L18.1483 9.77714C20.6172 7.31177 20.6172 3.31404 18.1483 0.848669L16.7351 2.26387ZM16.7351 8.36194L8.79333 16.2926L10.2065 17.7078L18.1483 9.77714L16.7351 8.36194ZM10.2065 16.2926L2.68275 8.77934L1.26952 10.1945L8.79333 17.7078L10.2065 16.2926ZM2.68092 10.1964L2.68101 10.1963L1.27144 8.77743L1.27135 8.77752L2.68092 10.1964Z" fill="#B9B9B9" mask="url(#path-1-inside-1_1667_15037)"/>
</svg>
