<svg width="30" height="19" viewBox="0 0 30 19" fill="none" xmlns="http://www.w3.org/2000/svg">
<path d="M30 4.55028C30 4.84865 29.8815 5.1348 29.6705 5.34578C29.4595 5.55676 29.1734 5.67528 28.875 5.67528H25.2C24.9494 6.6096 24.3976 7.43515 23.6301 8.02394C22.8626 8.61273 21.9223 8.93186 20.955 8.93186C19.9877 8.93186 19.0474 8.61273 18.2799 8.02394C17.5124 7.43515 16.9606 6.6096 16.71 5.67528H1.125C0.977263 5.67528 0.830972 5.64618 0.694481 5.58965C0.55799 5.53311 0.433971 5.45024 0.329505 5.34578C0.225039 5.24131 0.142172 5.11729 0.0856354 4.9808C0.0290989 4.84431 0 4.69802 0 4.55028C0 4.40254 0.0290989 4.25625 0.0856354 4.11976C0.142172 3.98327 0.225039 3.85925 0.329505 3.75479C0.433971 3.65032 0.55799 3.56745 0.694481 3.51092C0.830972 3.45438 0.977263 3.42528 1.125 3.42528H16.71C16.9606 2.49097 17.5124 1.66542 18.2799 1.07663C19.0474 0.487836 19.9877 0.168701 20.955 0.168701C21.9223 0.168701 22.8626 0.487836 23.6301 1.07663C24.3976 1.66542 24.9494 2.49097 25.2 3.42528H28.875C29.0233 3.42326 29.1705 3.45098 29.3079 3.50681C29.4453 3.56263 29.5701 3.64542 29.675 3.75029C29.7799 3.85516 29.8627 3.97998 29.9185 4.11739C29.9743 4.25479 30.002 4.40199 30 4.55028ZM30 14.4503C30.002 14.5986 29.9743 14.7458 29.9185 14.8832C29.8627 15.0206 29.7799 15.1454 29.675 15.2503C29.5701 15.3551 29.4453 15.4379 29.3079 15.4938C29.1705 15.5496 29.0233 15.5773 28.875 15.5753H11.325C11.0744 16.5096 10.5226 17.3351 9.75513 17.9239C8.98764 18.5127 8.04733 18.8319 7.08 18.8319C6.11267 18.8319 5.17236 18.5127 4.40487 17.9239C3.63737 17.3351 3.08556 16.5096 2.835 15.5753H1.125C0.826631 15.5753 0.540483 15.4568 0.329505 15.2458C0.118526 15.0348 0 14.7486 0 14.4503C0 14.1519 0.118526 13.8658 0.329505 13.6548C0.540483 13.4438 0.826631 13.3253 1.125 13.3253H2.835C3.08556 12.391 3.63737 11.5654 4.40487 10.9766C5.17236 10.3878 6.11267 10.0687 7.08 10.0687C8.04733 10.0687 8.98764 10.3878 9.75513 10.9766C10.5226 11.5654 11.0744 12.391 11.325 13.3253H28.875C29.1734 13.3253 29.4595 13.4438 29.6705 13.6548C29.8815 13.8658 30 14.1519 30 14.4503Z" fill="#0BDBB6"/>
</svg>
