<svg width="18" height="19" viewBox="0 0 18 19" fill="none" xmlns="http://www.w3.org/2000/svg">
<path d="M16.95 18.7522C14.8667 18.7522 12.8083 18.2982 10.775 17.3902C8.74167 16.4822 6.89167 15.1945 5.225 13.5272C3.55833 11.8599 2.271 10.0099 1.363 7.9772C0.455 5.94453 0.000666667 3.8862 0 1.8022C0 1.5022 0.0999999 1.2522 0.3 1.0522C0.5 0.852197 0.75 0.752197 1.05 0.752197H5.1C5.33333 0.752197 5.54167 0.831531 5.725 0.990197C5.90833 1.14886 6.01667 1.3362 6.05 1.5522L6.7 5.0522C6.73333 5.31886 6.725 5.54386 6.675 5.7272C6.625 5.91053 6.53333 6.06886 6.4 6.2022L3.975 8.6522C4.30833 9.26886 4.704 9.86453 5.162 10.4392C5.62 11.0139 6.12433 11.5682 6.675 12.1022C7.19167 12.6189 7.73333 13.0982 8.3 13.5402C8.86667 13.9822 9.46667 14.3862 10.1 14.7522L12.45 12.4022C12.6 12.2522 12.796 12.1399 13.038 12.0652C13.28 11.9905 13.5173 11.9695 13.75 12.0022L17.2 12.7022C17.4333 12.7689 17.625 12.8899 17.775 13.0652C17.925 13.2405 18 13.4362 18 13.6522V17.7022C18 18.0022 17.9 18.2522 17.7 18.4522C17.5 18.6522 17.25 18.7522 16.95 18.7522Z" fill="white"/>
</svg>
