<svg width="29" height="27" viewBox="0 0 29 27" fill="none" xmlns="http://www.w3.org/2000/svg">
<g filter="url(#filter0_d_1667_15045)">
<mask id="path-1-inside-1_1667_15045" fill="white">
<path fill-rule="evenodd" clip-rule="evenodd" d="M6.18439 10.4855L5.72228 10.024C3.42594 7.73087 3.42594 4.01298 5.72228 1.71985C8.01863 -0.573278 11.7417 -0.573278 14.0381 1.71985L14.5002 2.18131L14.962 1.72015C17.2583 -0.572975 20.9814 -0.572975 23.2778 1.72015C25.5741 4.01328 25.5741 7.73117 23.2778 10.0243L14.5 18.7898L6.1842 10.4856L6.18439 10.4855Z"/>
</mask>
<path fill-rule="evenodd" clip-rule="evenodd" d="M6.18439 10.4855L5.72228 10.024C3.42594 7.73087 3.42594 4.01298 5.72228 1.71985C8.01863 -0.573278 11.7417 -0.573278 14.0381 1.71985L14.5002 2.18131L14.962 1.72015C17.2583 -0.572975 20.9814 -0.572975 23.2778 1.72015C25.5741 4.01328 25.5741 7.73117 23.2778 10.0243L14.5 18.7898L6.1842 10.4856L6.18439 10.4855Z" fill="#FF005C"/>
<path d="M6.18439 10.4855L7.5986 11.8997L9.01381 10.4845L7.59761 9.07025L6.18439 10.4855ZM5.72228 10.024L4.30906 11.4392H4.30906L5.72228 10.024ZM5.72228 1.71985L4.30906 0.304646L4.30906 0.304646L5.72228 1.71985ZM14.0381 1.71985L15.4513 0.304646V0.304646L14.0381 1.71985ZM14.5002 2.18131L13.087 3.59651L14.5002 5.00775L15.9134 3.59651L14.5002 2.18131ZM14.962 1.72015L16.3752 3.13536L14.962 1.72015ZM23.2778 1.72015L21.8645 3.13536V3.13536L23.2778 1.72015ZM23.2778 10.0243L21.8645 8.6091V8.6091L23.2778 10.0243ZM14.5 18.7898L13.0868 20.205L14.5 21.6162L15.9132 20.205L14.5 18.7898ZM6.1842 10.4856L4.76999 9.07143L3.35478 10.4866L4.77098 11.9008L6.1842 10.4856ZM7.59761 9.07025L7.13551 8.6088L4.30906 11.4392L4.77117 11.9007L7.59761 9.07025ZM7.13551 8.6088C5.62153 7.09694 5.62153 4.64691 7.13551 3.13505L4.30906 0.304646C1.23035 3.37905 1.23035 8.3648 4.30906 11.4392L7.13551 8.6088ZM7.13551 3.13505C8.65103 1.62165 11.1093 1.62165 12.6249 3.13505L15.4513 0.304646C12.3741 -2.76821 7.38622 -2.76821 4.30906 0.304646L7.13551 3.13505ZM12.6249 3.13505L13.087 3.59651L15.9134 0.766103L15.4513 0.304646L12.6249 3.13505ZM15.9134 3.59651L16.3752 3.13536L13.5488 0.304949L13.087 0.766103L15.9134 3.59651ZM16.3752 3.13536C17.8907 1.62196 20.349 1.62196 21.8645 3.13536L24.691 0.304949C21.6138 -2.76791 16.6259 -2.76791 13.5488 0.304949L16.3752 3.13536ZM21.8645 3.13536C23.3785 4.64721 23.3785 7.09724 21.8645 8.6091L24.691 11.4395C27.7697 8.3651 27.7697 3.37935 24.691 0.304948L21.8645 3.13536ZM21.8645 8.6091L13.0868 17.3746L15.9132 20.205L24.691 11.4395L21.8645 8.6091ZM15.9132 17.3746L7.59742 9.07044L4.77098 11.9008L13.0868 20.205L15.9132 17.3746ZM7.59841 11.8999L7.5986 11.8997L4.77017 9.07124L4.76999 9.07143L7.59841 11.8999Z" fill="#FF005C" mask="url(#path-1-inside-1_1667_15045)"/>
</g>
<defs>
<filter id="filter0_d_1667_15045" x="0" y="0" width="29" height="26.7898" filterUnits="userSpaceOnUse" color-interpolation-filters="sRGB">
<feFlood flood-opacity="0" result="BackgroundImageFix"/>
<feColorMatrix in="SourceAlpha" type="matrix" values="0 0 0 0 0 0 0 0 0 0 0 0 0 0 0 0 0 0 127 0" result="hardAlpha"/>
<feOffset dy="4"/>
<feGaussianBlur stdDeviation="2"/>
<feComposite in2="hardAlpha" operator="out"/>
<feColorMatrix type="matrix" values="0 0 0 0 1 0 0 0 0 0 0 0 0 0 0.360784 0 0 0 0.25 0"/>
<feBlend mode="normal" in2="BackgroundImageFix" result="effect1_dropShadow_1667_15045"/>
<feBlend mode="normal" in="SourceGraphic" in2="effect1_dropShadow_1667_15045" result="shape"/>
</filter>
</defs>
</svg>
