<svg width="20" height="20" viewBox="0 0 20 20" fill="none" xmlns="http://www.w3.org/2000/svg">
<path d="M11.8338 15.5481L6.37404 12.6146C5.84996 13.1271 5.18359 13.4752 4.45895 13.6152C3.7343 13.7551 2.98382 13.6806 2.30211 13.4009C1.62041 13.1213 1.038 12.6491 0.628312 12.0439C0.218625 11.4386 0 10.7275 0 10C0 9.27254 0.218625 8.56136 0.628312 7.95612C1.038 7.35089 1.62041 6.87869 2.30211 6.59906C2.98382 6.31943 3.7343 6.24489 4.45895 6.38483C5.18359 6.52477 5.84996 6.87294 6.37404 7.38543L11.8338 4.45193C11.6465 3.58644 11.7818 2.68347 12.2148 1.90815C12.6478 1.13282 13.3496 0.536945 14.192 0.229493C15.0343 -0.0779591 15.9608 -0.0764448 16.8021 0.233759C17.6434 0.543963 18.3432 1.14213 18.7736 1.91886C19.204 2.6956 19.3362 3.59901 19.146 4.46388C18.9558 5.32875 18.456 6.09729 17.7379 6.62895C17.0198 7.16061 16.1315 7.41987 15.2353 7.35932C14.3391 7.29877 13.495 6.92245 12.8574 6.29918L7.39761 9.23268C7.50637 9.73826 7.50637 10.2607 7.39761 10.7663L12.8574 13.7008C13.495 13.0776 14.3391 12.7012 15.2353 12.6407C16.1315 12.5801 17.0198 12.8394 17.7379 13.3711C18.456 13.9027 18.9558 14.6713 19.146 15.5361C19.3362 16.401 19.204 17.3044 18.7736 18.0811C18.3432 18.8579 17.6434 19.456 16.8021 19.7662C15.9608 20.0764 15.0343 20.078 14.192 19.7705C13.3496 19.4631 12.6478 18.8672 12.2148 18.0919C11.7818 17.3165 11.6465 16.4136 11.8338 15.5481Z" fill="black"/>
</svg>
