<svg width="166" height="147" viewBox="0 0 166 147" fill="none" xmlns="http://www.w3.org/2000/svg">
<path d="M122.25 4L122.589 5.91112L124.5 6.25L122.589 6.58888L122.25 8.5L121.911 6.58888L120 6.25L121.911 5.91112L122.25 4Z" fill="#73BEC1"/>
<path d="M85.25 28L85.5889 29.9111L87.5 30.25L85.5889 30.5889L85.25 32.5L84.9111 30.5889L83 30.25L84.9111 29.9111L85.25 28Z" fill="#73BEC1"/>
<path d="M92.25 82L92.5889 83.9111L94.5 84.25L92.5889 84.5889L92.25 86.5L91.9111 84.5889L90 84.25L91.9111 83.9111L92.25 82Z" fill="#73BEC1"/>
<path d="M75.25 132L75.5889 133.911L77.5 134.25L75.5889 134.589L75.25 136.5L74.9111 134.589L73 134.25L74.9111 133.911L75.25 132Z" fill="#73BEC1"/>
<path d="M104.25 142L104.589 143.911L106.5 144.25L104.589 144.589L104.25 146.5L103.911 144.589L102 144.25L103.911 143.911L104.25 142Z" fill="#73BEC1"/>
<path d="M2.25 74L2.58888 75.9111L4.5 76.25L2.58888 76.5889L2.25 78.5L1.91112 76.5889L0 76.25L1.91112 75.9111L2.25 74Z" fill="#73BEC1"/>
<path d="M10.25 132L10.5889 133.911L12.5 134.25L10.5889 134.589L10.25 136.5L9.91112 134.589L8 134.25L9.91112 133.911L10.25 132Z" fill="#73BEC1"/>
<path d="M41.25 28L41.5889 29.9111L43.5 30.25L41.5889 30.5889L41.25 32.5L40.9111 30.5889L39 30.25L40.9111 29.9111L41.25 28Z" fill="#73BEC1"/>
<path d="M2.25 6L2.58888 7.91112L4.5 8.25L2.58888 8.58888L2.25 10.5L1.91112 8.58888L0 8.25L1.91112 7.91112L2.25 6Z" fill="#73BEC1"/>
<path d="M62.25 0L62.5889 1.91112L64.5 2.25L62.5889 2.58888L62.25 4.5L61.9111 2.58888L60 2.25L61.9111 1.91112L62.25 0Z" fill="#73BEC1"/>
<path d="M127.25 28L127.589 29.9111L129.5 30.25L127.589 30.5889L127.25 32.5L126.911 30.5889L125 30.25L126.911 29.9111L127.25 28Z" fill="#73BEC1"/>
<path d="M163.25 0L163.589 1.91112L165.5 2.25L163.589 2.58888L163.25 4.5L162.911 2.58888L161 2.25L162.911 1.91112L163.25 0Z" fill="#73BEC1"/>
</svg>
