<svg width="16" height="18" viewBox="0 0 16 18" fill="none" xmlns="http://www.w3.org/2000/svg">
<path d="M15.6442 7.03782C15.3539 5.84549 14.402 4.87412 13.2181 4.56668C12.3694 4.34625 11.557 4.70116 10.8678 5.2082C10.7821 5.27121 10.6842 5.30655 10.5909 5.35269L11.3376 5.83284C11.5333 5.95861 11.5902 6.21964 11.4642 6.41581C11.3466 6.59907 11.0879 6.67579 10.8812 6.54238L8.23104 4.83853C7.68524 4.55245 7.08723 4.40611 6.46945 4.56668C5.28556 4.87439 4.33371 5.84549 4.0434 7.03782C3.7763 8.13522 4.03233 9.16855 4.6103 9.94954C5.22624 10.782 5.47198 11.7599 5.56716 12.7801C5.68318 14.0235 5.83954 15.2628 6.11929 16.4799L6.32496 17.3751C6.40907 17.7408 6.73338 18 7.10727 18C7.47562 18 7.79677 17.7482 7.88616 17.3893L8.79503 13.7396C8.91527 13.2565 9.34769 12.918 9.84339 12.918C10.3391 12.918 10.7715 13.2568 10.8918 13.7396L11.8006 17.3893C11.89 17.7482 12.2112 18 12.5795 18C12.9534 18 13.2777 17.7408 13.3618 17.3751L13.5675 16.4799C13.8473 15.2631 14.0033 14.0235 14.1196 12.7801C14.2148 11.7597 14.4606 10.782 15.0765 9.94954C15.6552 9.16881 15.9113 8.13548 15.6442 7.03782Z" fill="white"/>
<path d="M6.46875 0L6.68055 1.19445L7.875 1.40625L6.68055 1.61805L6.46875 2.8125L6.25695 1.61805L5.0625 1.40625L6.25695 1.19445L6.46875 0Z" fill="white"/>
<path d="M0.84375 6.75L0.97083 7.46667L1.6875 7.59375L0.97083 7.72083L0.84375 8.4375L0.71667 7.72083L0 7.59375L0.71667 7.46667L0.84375 6.75Z" fill="white"/>
<path d="M2.25 1.6875L2.58888 3.59862L4.5 3.9375L2.58888 4.27638L2.25 6.1875L1.91112 4.27638L0 3.9375L1.91112 3.59862L2.25 1.6875Z" fill="white"/>
</svg>
