<svg width="23" height="23" viewBox="0 0 23 23" fill="none" xmlns="http://www.w3.org/2000/svg">
<path d="M0.969477 11.6566C0.968961 13.5111 1.45571 15.322 2.38126 16.9181L0.880961 22.3715L6.48684 20.9082C8.03735 21.7485 9.77458 22.1888 11.54 22.1889H11.5446C17.3725 22.1889 22.1165 17.4678 22.119 11.6649C22.1201 8.85298 21.0211 6.20884 19.0244 4.21954C17.0281 2.2304 14.3731 1.13437 11.5442 1.13308C5.71563 1.13308 0.971883 5.85396 0.969477 11.6566Z" fill="url(#paint0_linear_241_7184)"/>
<path d="M0.591953 11.6532C0.591352 13.5745 1.09555 15.4501 2.05409 17.1033L0.5 22.7522L6.30688 21.2364C7.90687 22.1049 9.70829 22.5628 11.5413 22.5635H11.5461C17.583 22.5635 22.4974 17.6725 22.5 11.6619C22.501 8.74895 21.3625 6.00976 19.2945 3.94919C17.2263 1.88887 14.4763 0.753395 11.5461 0.752197C5.50809 0.752197 0.594359 5.64248 0.591953 11.6532ZM4.05016 16.8186L3.83334 16.4759C2.92189 15.0332 2.44081 13.3659 2.4415 11.6539C2.44339 6.65792 6.52749 2.59332 11.5495 2.59332C13.9815 2.59435 16.2671 3.53818 17.9862 5.25064C19.7052 6.96326 20.6511 9.23986 20.6505 11.6612C20.6483 16.6571 16.5641 20.7223 11.5461 20.7223H11.5425C9.90852 20.7214 8.30605 20.2846 6.90853 19.459L6.57595 19.2627L3.13003 20.1621L4.05016 16.8186Z" fill="url(#paint1_linear_241_7184)"/>
<path d="M8.80827 7.09587C8.60322 6.64217 8.38743 6.63302 8.19244 6.62506C8.03277 6.61822 7.85023 6.61873 7.66787 6.61873C7.48534 6.61873 7.18877 6.68709 6.93809 6.95958C6.68716 7.23233 5.98006 7.89144 5.98006 9.23199C5.98006 10.5726 6.96087 11.8682 7.09759 12.0501C7.23449 12.2318 8.99105 15.0708 11.773 16.163C14.0851 17.0706 14.5556 16.8901 15.0574 16.8446C15.5593 16.7993 16.6768 16.1857 16.9048 15.5494C17.1329 14.9132 17.1329 14.3679 17.0645 14.2539C16.9961 14.1404 16.8136 14.0722 16.5399 13.936C16.2661 13.7997 14.9205 13.1405 14.6696 13.0496C14.4187 12.9587 14.2362 12.9134 14.0537 13.1862C13.8712 13.4586 13.3471 14.0722 13.1873 14.2539C13.0277 14.4361 12.868 14.4587 12.5943 14.3225C12.3204 14.1857 11.439 13.8984 10.3932 12.9702C9.57955 12.2479 9.03024 11.356 8.87057 11.0832C8.7109 10.8108 8.85347 10.6631 8.99071 10.5274C9.11369 10.4053 9.26451 10.2092 9.40149 10.0501C9.53796 9.89101 9.58351 9.77748 9.67477 9.59576C9.76613 9.41387 9.72041 9.25474 9.65209 9.11846C9.58351 8.98217 9.05164 7.6346 8.80827 7.09587Z" fill="white"/>
<defs>
<linearGradient id="paint0_linear_241_7184" x1="1100.5" y1="2200.75" x2="1100.5" y2="0.752197" gradientUnits="userSpaceOnUse">
<stop stop-color="#1FAF38"/>
<stop offset="1" stop-color="#60D669"/>
</linearGradient>
<linearGradient id="paint1_linear_241_7184" x1="1100.5" y1="2200.75" x2="1100.5" y2="0.752197" gradientUnits="userSpaceOnUse">
<stop stop-color="#F9F9F9"/>
<stop offset="1" stop-color="white"/>
</linearGradient>
</defs>
</svg>
