<svg width="4" height="19" viewBox="0 0 4 19" fill="none" xmlns="http://www.w3.org/2000/svg">
<path d="M2 14.5C2.53043 14.5 3.03914 14.7107 3.41421 15.0858C3.78929 15.4609 4 15.9696 4 16.5C4 17.0304 3.78929 17.5391 3.41421 17.9142C3.03914 18.2893 2.53043 18.5 2 18.5C1.46957 18.5 0.96086 18.2893 0.585787 17.9142C0.210714 17.5391 0 17.0304 0 16.5C0 15.9696 0.210714 15.4609 0.585787 15.0858C0.96086 14.7107 1.46957 14.5 2 14.5ZM2 7.5C2.53043 7.5 3.03914 7.71071 3.41421 8.08579C3.78929 8.46086 4 8.96957 4 9.5C4 10.0304 3.78929 10.5391 3.41421 10.9142C3.03914 11.2893 2.53043 11.5 2 11.5C1.46957 11.5 0.96086 11.2893 0.585787 10.9142C0.210714 10.5391 0 10.0304 0 9.5C0 8.96957 0.210714 8.46086 0.585787 8.08579C0.96086 7.71071 1.46957 7.5 2 7.5ZM2 0.5C2.53043 0.5 3.03914 0.710714 3.41421 1.08579C3.78929 1.46086 4 1.96957 4 2.5C4 3.03043 3.78929 3.53914 3.41421 3.91421C3.03914 4.28929 2.53043 4.5 2 4.5C1.46957 4.5 0.96086 4.28929 0.585787 3.91421C0.210714 3.53914 0 3.03043 0 2.5C0 1.96957 0.210714 1.46086 0.585787 1.08579C0.96086 0.710714 1.46957 0.5 2 0.5Z" fill="black"/>
</svg>
