<svg width="18" height="16" viewBox="0 0 18 16" fill="none" xmlns="http://www.w3.org/2000/svg">
<path d="M12.3346 4.66667V2.16667H5.66797V4.66667H4.0013V0.5H14.0013V4.66667H12.3346ZM14.0013 8.41667C14.2374 8.41667 14.4355 8.33667 14.5955 8.17667C14.7555 8.01667 14.8352 7.81889 14.8346 7.58333C14.8341 7.34778 14.7541 7.15 14.5946 6.99C14.4352 6.83 14.2374 6.75 14.0013 6.75C13.7652 6.75 13.5674 6.83 13.408 6.99C13.2485 7.15 13.1685 7.34778 13.168 7.58333C13.1674 7.81889 13.2474 8.01694 13.408 8.1775C13.5685 8.33806 13.7663 8.41778 14.0013 8.41667ZM12.3346 13.8333V10.5H5.66797V13.8333H12.3346ZM14.0013 15.5H4.0013V12.1667H0.667969V7.16667C0.667969 6.45833 0.911024 5.86472 1.39714 5.38583C1.88325 4.90694 2.47352 4.66722 3.16797 4.66667H14.8346C15.543 4.66667 16.1369 4.90639 16.6163 5.38583C17.0957 5.86528 17.3352 6.45889 17.3346 7.16667V12.1667H14.0013V15.5ZM15.668 10.5V7.16667C15.668 6.93056 15.588 6.73278 15.428 6.57333C15.268 6.41389 15.0702 6.33389 14.8346 6.33333H3.16797C2.93186 6.33333 2.73408 6.41333 2.57464 6.57333C2.41519 6.73333 2.33519 6.93111 2.33464 7.16667V10.5H4.0013V8.83333H14.0013V10.5H15.668Z" fill="#938F96"/>
</svg>
