<svg width="16" height="16" viewBox="0 0 16 16" fill="none" xmlns="http://www.w3.org/2000/svg">
<path d="M14.5126 7.18598C14.3135 5.75348 13.649 4.42617 12.6213 3.40851C11.5937 2.39086 10.26 1.7393 8.82559 1.55422C7.39122 1.36914 5.93578 1.6608 4.68348 2.38427C3.43117 3.10774 2.45147 4.22289 1.89529 5.55794M1.48828 2.30186V5.55794H4.74436M1.48828 8.81402C1.68736 10.2465 2.3519 11.5738 3.37954 12.5915C4.40719 13.6091 5.74092 14.2607 7.1753 14.4458C8.60967 14.6309 10.0651 14.3392 11.3174 13.6157C12.5697 12.8923 13.5494 11.7771 14.1056 10.4421M14.5126 13.6981V10.4421H11.2565" stroke="#938F96" stroke-width="1.5" stroke-linecap="round" stroke-linejoin="round"/>
</svg>
