<svg width="15" height="11" viewBox="0 0 15 11" fill="none" xmlns="http://www.w3.org/2000/svg">
<path d="M10.5 0.5C10.5 0.223858 10.7239 0 11 0C11.2761 0 11.5 0.223858 11.5 0.5H10.5ZM11.3536 10.8536C11.1583 11.0488 10.8417 11.0488 10.6464 10.8536L7.46447 7.67157C7.2692 7.47631 7.2692 7.15973 7.46447 6.96447C7.65973 6.7692 7.97631 6.7692 8.17157 6.96447L11 9.79289L13.8284 6.96447C14.0237 6.7692 14.3403 6.7692 14.5355 6.96447C14.7308 7.15973 14.7308 7.47631 14.5355 7.67157L11.3536 10.8536ZM11.5 0.5V10.5H10.5V0.5H11.5Z" fill="#938F96"/>
<path d="M3.64645 0.146447C3.84171 -0.0488155 4.15829 -0.0488155 4.35355 0.146447L7.53553 3.32843C7.7308 3.52369 7.7308 3.84027 7.53553 4.03553C7.34027 4.2308 7.02369 4.2308 6.82843 4.03553L4 1.20711L1.17157 4.03553C0.976311 4.2308 0.659728 4.2308 0.464466 4.03553C0.269204 3.84027 0.269204 3.52369 0.464466 3.32843L3.64645 0.146447ZM4.5 10.5C4.5 10.7761 4.27614 11 4 11C3.72386 11 3.5 10.7761 3.5 10.5H4.5ZM4.5 0.5V10.5H3.5V0.5H4.5Z" fill="#938F96"/>
</svg>
