<svg width="208" height="164" viewBox="0 0 208 164" fill="none" xmlns="http://www.w3.org/2000/svg">
<path d="M18.8091 129.346C6.12728 98.954 12.8632 62.1742 35.6361 37.5411C51.4267 20.4508 73.5966 9.51032 96.4969 2.57907C123.279 -5.57534 151.65 -8.82012 179.74 -7.8263C194.12 -7.31665 209.104 -5.49041 220.996 2.12038C240.643 14.6918 246.632 39.4948 246.36 61.843C245.926 99.3617 231.291 137.586 202.08 163.17C159.609 200.324 91.7911 199.958 47.2986 165.718C34.7867 156.052 24.7295 143.531 18.8091 129.346Z" fill="#B75B5B"/>
<path d="M65.3574 18.0893C64.8519 18.6456 64.2277 19.081 63.5311 19.3634C62.929 19.6414 62.2616 19.7472 61.6029 19.6692C61.2748 19.6285 60.9612 19.5101 60.6879 19.324C60.4146 19.1379 60.1896 18.8893 60.0315 18.5989C59.8526 18.157 59.7687 17.6824 59.7852 17.2059L59.7088 14.6576C59.6584 14.0877 59.7043 13.5134 59.8446 12.9588C60.4817 10.9966 62.4439 11.4553 63.752 12.3217C66.0879 13.8847 66.8609 16.3395 65.3574 18.0893Z" fill="#B75B5B"/>
<path d="M44.2068 23.4237C44.3218 24.0473 44.2957 24.6887 44.1304 25.3009C44.0123 25.8524 43.7449 26.3607 43.3574 26.7704C43.1612 26.9705 42.9203 27.1211 42.6545 27.2097C42.3886 27.2983 42.1055 27.3225 41.8285 27.2801C41.4378 27.1754 41.0732 26.9902 40.7582 26.7364L39.0084 25.4623C38.6023 25.2055 38.2408 24.8842 37.9381 24.511C36.9358 23.0755 38.2524 21.9627 39.5095 21.538C41.735 20.7905 43.7906 21.5125 44.2068 23.4237Z" fill="#B75B5B"/>
<path d="M35.9255 22.965C36.4584 23.0757 36.9585 23.3083 37.3865 23.6445C37.7818 23.9199 38.0934 24.2991 38.2869 24.7403C38.3803 24.9613 38.4198 25.2013 38.4021 25.4406C38.3843 25.6799 38.3099 25.9115 38.1849 26.1163C37.9706 26.3897 37.7015 26.6154 37.395 26.7789L35.8406 27.7472C35.5065 27.9867 35.1326 28.165 34.7363 28.2739C33.2753 28.5881 32.8421 27.1951 32.9101 26.0569C32.9865 24.0353 34.2267 22.6592 35.9255 22.965Z" fill="#B75B5B"/>
<path d="M27.4304 39.4183C27.342 39.8313 27.1588 40.218 26.8953 40.5481C26.6824 40.8526 26.388 41.091 26.0459 41.2361C25.8752 41.3089 25.6895 41.3392 25.5045 41.3244C25.3196 41.3096 25.141 41.2501 24.9841 41.1511C24.7748 40.9871 24.6013 40.7818 24.4745 40.5481L23.727 39.3334C23.5425 39.0774 23.4071 38.7894 23.3277 38.484C23.0814 37.3542 24.1771 37.023 25.0266 37.0824C26.6405 37.1759 27.7022 38.1527 27.4304 39.4183Z" fill="#B75B5B"/>
<path d="M21.4855 53.9519C21.1862 53.2822 21.0439 52.5529 21.0693 51.8198C21.0562 51.1724 21.2238 50.534 21.5535 49.9766C21.7217 49.7012 21.9523 49.4692 22.2268 49.2995C22.5013 49.1298 22.8118 49.0271 23.1334 48.9998C23.5987 49.017 24.0555 49.1298 24.4755 49.331L26.7689 50.2569C27.2908 50.4381 27.7788 50.7051 28.2129 51.0469C29.7164 52.3889 28.5357 53.9604 27.2446 54.7843C24.9851 56.2538 22.4878 55.982 21.4855 53.9519Z" fill="#B75B5B"/>
<path d="M29.4691 70.1417C29.6413 70.714 29.6848 71.3174 29.5965 71.9085C29.5415 72.4367 29.3416 72.9394 29.0189 73.361C28.8545 73.5665 28.6446 73.731 28.4058 73.8416C28.167 73.9522 27.9058 74.0057 27.6428 73.9981C27.2713 73.9365 26.9159 73.8008 26.598 73.5989L24.8227 72.622C24.4188 72.4247 24.0512 72.1605 23.7355 71.8406C22.6482 70.6089 23.7355 69.4537 24.8822 68.9101C26.8868 67.9332 28.883 68.4089 29.4691 70.1417Z" fill="#B75B5B"/>
<path d="M6.99391 76.0368C6.56746 76.7412 5.98657 77.3395 5.29508 77.7866C4.70046 78.21 4.00135 78.4626 3.27346 78.5171C2.91045 78.5365 2.54802 78.4696 2.21583 78.322C1.88364 78.1743 1.59113 77.9501 1.36227 77.6677C1.07845 77.2284 0.892992 76.7329 0.818628 76.2152L0.207072 73.497C0.0370518 72.9012 -0.0290723 72.2806 0.0116705 71.6623C0.300473 69.4198 2.50052 69.5048 4.09742 70.1758C6.90899 71.331 8.25105 73.8793 6.99391 76.0368Z" fill="#B75B5B"/>
<path d="M8.03004 89.3895C7.32937 89.9232 6.51579 90.2893 5.65167 90.4598C4.897 90.6535 4.10357 90.6359 3.35824 90.4088C2.98841 90.2872 2.65257 90.0799 2.37801 89.8039C2.10346 89.5279 1.89798 89.1909 1.77833 88.8204C1.66373 88.2771 1.66373 87.7159 1.77833 87.1725C1.93123 86.1872 2.07565 85.2104 2.22855 84.2251C2.29034 83.5647 2.46863 82.9205 2.75518 82.3224C3.91039 80.1988 6.06788 81.1502 7.39297 82.4328C9.77134 84.7092 10.1366 87.7077 8.03004 89.3895Z" fill="#B75B5B"/>
<path d="M19.4803 103.413C18.8959 103.427 18.3156 103.311 17.7815 103.074C17.2913 102.893 16.8636 102.574 16.5498 102.156C16.3923 101.95 16.2868 101.709 16.2425 101.453C16.1981 101.197 16.2161 100.934 16.295 100.687C16.4434 100.344 16.6636 100.037 16.9406 99.7865L18.3336 98.351C18.6197 98.009 18.965 97.7213 19.3529 97.5015C20.8054 96.7795 21.6208 98.1386 21.8502 99.3533C22.2409 101.519 21.2896 103.303 19.4803 103.413Z" fill="#B75B5B"/>
</svg>
