<svg width="191" height="164" viewBox="0 0 191 164" fill="none" xmlns="http://www.w3.org/2000/svg">
<path d="M16.4581 120.178C5.36156 93.5848 11.2555 61.4025 31.1817 39.8485C44.9986 24.8945 64.3972 15.3215 84.435 9.25669C107.869 2.12157 132.694 -0.717606 157.273 0.151986C169.856 0.597931 182.966 2.19589 193.372 8.85533C210.563 19.8553 215.803 41.5579 215.565 61.1126C215.186 93.9415 202.38 127.387 176.82 149.774C139.658 182.283 80.3174 181.964 41.3865 152.004C30.4385 143.545 21.6385 132.59 16.4581 120.178Z" fill="#0BDBB6"/>
<path d="M57.1879 22.8282C56.7456 23.3149 56.1995 23.696 55.5899 23.943C55.063 24.1862 54.4791 24.2788 53.9028 24.2106C53.6157 24.1749 53.3412 24.0714 53.1021 23.9086C52.863 23.7457 52.6661 23.5282 52.5278 23.2741C52.3712 22.8874 52.2978 22.4721 52.3123 22.0552L52.2453 19.8255C52.2013 19.3268 52.2415 18.8243 52.3642 18.339C52.9217 16.6221 54.6386 17.0235 55.7832 17.7816C57.8271 19.1491 58.5035 21.2971 57.1879 22.8282Z" fill="#0BDBB6"/>
<path d="M38.6812 27.4957C38.7818 28.0414 38.7589 28.6026 38.6143 29.1383C38.511 29.6208 38.2771 30.0656 37.938 30.4241C37.7663 30.5992 37.5555 30.731 37.3229 30.8085C37.0903 30.886 36.8425 30.9072 36.6002 30.8701C36.2583 30.7784 35.9393 30.6164 35.6637 30.3944L34.1326 29.2795C33.7772 29.0548 33.4609 28.7737 33.1961 28.4471C32.3191 27.191 33.4711 26.2174 34.5711 25.8458C36.5184 25.1917 38.317 25.8235 38.6812 27.4957Z" fill="#0BDBB6"/>
<path d="M31.4349 27.0943C31.9012 27.1912 32.3388 27.3947 32.7133 27.6889C33.0592 27.9299 33.3318 28.2617 33.5012 28.6477C33.5829 28.8411 33.6174 29.0511 33.6019 29.2605C33.5864 29.4699 33.5213 29.6725 33.4119 29.8517C33.2244 30.091 32.9889 30.2884 32.7207 30.4315L31.3606 31.2788C31.0684 31.4883 30.7412 31.6443 30.3944 31.7396C29.116 32.0146 28.737 30.7957 28.7964 29.7997C28.8633 28.0308 29.9485 26.8268 31.4349 27.0943Z" fill="#0BDBB6"/>
<path d="M24.0016 41.491C23.9241 41.8523 23.7638 42.1907 23.5333 42.4795C23.347 42.746 23.0894 42.9546 22.7901 43.0815C22.6408 43.1452 22.4782 43.1717 22.3164 43.1588C22.1546 43.1458 21.9983 43.0938 21.861 43.0072C21.6779 42.8636 21.5261 42.684 21.4151 42.4795L20.761 41.4167C20.5996 41.1927 20.4811 40.9407 20.4117 40.6734C20.1962 39.6849 21.1549 39.395 21.8982 39.4471C23.3103 39.5288 24.2394 40.3836 24.0016 41.491Z" fill="#0BDBB6"/>
<path d="M18.7998 54.2079C18.5379 53.6219 18.4134 52.9838 18.4356 52.3423C18.4242 51.7758 18.5709 51.2172 18.8593 50.7295C19.0065 50.4885 19.2083 50.2856 19.4484 50.1371C19.6886 49.9886 19.9604 49.8987 20.2417 49.8748C20.6489 49.8899 21.0486 49.9886 21.416 50.1646L23.4228 50.9748C23.8794 51.1333 24.3065 51.3669 24.6863 51.666C26.0018 52.8403 24.9687 54.2153 23.839 54.9362C21.862 56.222 19.6768 55.9842 18.7998 54.2079Z" fill="#0BDBB6"/>
<path d="M25.7856 68.3741C25.9364 68.8749 25.9744 69.4028 25.8971 69.92C25.849 70.3821 25.6741 70.822 25.3917 71.191C25.2479 71.3708 25.0642 71.5147 24.8553 71.6115C24.6464 71.7082 24.4178 71.7551 24.1876 71.7484C23.8625 71.6945 23.5516 71.5757 23.2735 71.3991L21.7201 70.5443C21.3666 70.3717 21.045 70.1405 20.7687 69.8606C19.8174 68.7829 20.7687 67.772 21.7721 67.2964C23.5262 66.4416 25.2728 66.8579 25.7856 68.3741Z" fill="#0BDBB6"/>
<path d="M6.11968 73.5322C5.74653 74.1486 5.23825 74.6721 4.63319 75.0633C4.11291 75.4337 3.50118 75.6548 2.86428 75.7025C2.54665 75.7194 2.22952 75.6609 1.93885 75.5317C1.64819 75.4026 1.39224 75.2064 1.19198 74.9592C0.943646 74.5748 0.781368 74.1413 0.7163 73.6883L0.181188 71.3099C0.0324203 70.7886 -0.0254382 70.2455 0.0102117 69.7045C0.262914 67.7424 2.18795 67.8167 3.58524 68.4039C6.04537 69.4147 7.21967 71.6444 6.11968 73.5322Z" fill="#0BDBB6"/>
<path d="M7.02592 85.2159C6.41283 85.6828 5.70095 86.0032 4.94485 86.1523C4.28451 86.3218 3.59025 86.3064 2.93809 86.1077C2.61449 86.0013 2.32063 85.82 2.0804 85.5784C1.84016 85.3369 1.66037 85.042 1.55567 84.7179C1.4554 84.2425 1.4554 83.7514 1.55567 83.276C1.68946 82.4138 1.81583 81.5591 1.94961 80.6969C2.00368 80.1191 2.15969 79.5555 2.41042 79.0321C3.42123 77.174 5.30903 78.0064 6.46848 79.1287C8.54956 81.1206 8.86915 83.7442 7.02592 85.2159Z" fill="#0BDBB6"/>
<path d="M17.0453 97.4868C16.5339 97.499 16.0262 97.3974 15.5588 97.1895C15.1299 97.0311 14.7557 96.7524 14.4811 96.3868C14.3432 96.2063 14.251 95.9951 14.2122 95.7712C14.1734 95.5474 14.1891 95.3175 14.2581 95.101C14.388 94.8011 14.5806 94.5325 14.823 94.3132L16.0419 93.0571C16.2922 92.7579 16.5943 92.5062 16.9338 92.3139C18.2047 91.6821 18.9182 92.8713 19.1189 93.9341C19.4608 95.8294 18.6284 97.3902 17.0453 97.4868Z" fill="#0BDBB6"/>
<path d="M109.475 107.729C108.732 110.486 107.246 112.419 105.759 114.752C105.016 116.001 104.607 117.77 104.116 119.16C103.574 120.646 103.054 122.177 102.533 123.686C100.475 129.743 98.5273 135.823 96.1638 141.762C95.1604 144.296 94.5584 147.514 91.8679 148.815C89.824 149.804 86.8733 148.956 84.7848 148.436C79.3717 147.179 74.4988 144.232 70.8713 140.023L70.745 139.866C68.6713 137.369 66.6497 133.809 66.843 130.472C66.8603 129.987 66.9531 129.508 67.118 129.052C67.8612 127.031 68.9612 125.061 69.8531 123.106C71.7842 119.087 73.4308 114.937 74.7808 110.687C74.8584 110.481 74.8584 110.254 74.7808 110.048C74.7001 109.91 74.5881 109.792 74.4537 109.706C72.4693 108.264 70.1206 106.941 68.6862 104.882C67.9429 103.827 67.7943 102.214 67.4598 100.988C66.7166 98.2896 66.1889 95.376 64.3531 93.176C63.5504 92.2247 62.5321 91.4146 61.7963 90.426C61.395 89.8835 61.1497 89.2072 60.7409 88.6795C57.2105 84.1457 51.8964 81.6558 47.5335 78.1031C46.597 77.3599 46.4187 76.6166 46.6788 75.9477C47.2883 74.4018 50.3059 73.2646 51.7923 73.064C53.1367 72.9223 54.4957 73.0706 55.7778 73.4989C57.06 73.9271 58.2354 74.6253 59.2247 75.5464C61.3355 77.3302 62.6511 79.8646 64.6207 81.693C65.2747 82.3284 66.0278 82.853 66.8504 83.2463C67.3112 83.4619 67.7571 83.6923 68.2179 83.9227C69.5186 84.5693 70.8193 85.2457 72.1571 85.7659C72.1571 85.7659 72.1571 85.7659 72.1571 85.7213C71.5221 83.3299 70.6764 80.9994 69.6301 78.7572C66.7092 72.4768 66.1592 65.2525 63.0598 59.0613C62.9548 58.8891 62.8897 58.6956 62.8691 58.495C62.8485 58.2944 62.8731 58.0917 62.9409 57.9018C63.2531 57.1066 64.4274 56.6978 65.3936 56.6235C66.7919 56.3839 68.2291 56.533 69.5484 57.0545C69.3626 56.2072 69.0578 55.0849 69.6598 54.4532C69.9879 54.1704 70.3813 53.9737 70.8044 53.8809C71.8254 53.6105 72.8934 53.5682 73.9326 53.757C74.9718 53.9458 75.9566 54.3612 76.8172 54.9735C77.4201 54.8807 78.0364 54.9316 78.6159 55.1221C81.6759 56.2053 84.4206 58.0283 86.6057 60.4289C87.7652 61.6329 87.9213 63.4018 88.4044 65.0146C88.947 66.8356 89.5415 68.6417 90.1733 70.4403C90.8045 72.3916 91.6416 74.2703 92.6706 76.0444C93.0942 76.7356 95.0118 79.6268 96.03 79.1065C96.1772 79.0246 96.2963 78.9003 96.3719 78.7497C96.441 78.5878 96.474 78.4128 96.4685 78.2369C96.538 74.5964 96.0365 70.9674 94.9821 67.4822C94.8462 67.1081 94.8229 66.7025 94.9151 66.3153C94.9333 66.2544 94.9609 66.1968 94.9969 66.1444C95.428 65.4606 96.4834 65.639 97.0854 65.966C99.9692 67.5565 100.876 70.8937 101.835 73.8443C102.637 76.3045 102.935 78.7869 103.5 81.2768C104.117 84.0385 104.93 86.7531 105.93 89.4004C107.067 92.3734 108.405 95.0862 109.319 98.0889C110.255 101.227 110.309 104.562 109.475 107.729Z" fill="url(#paint0_linear_309_27606)"/>
<path d="M87.1104 79.1138C83.2679 74.3571 82.428 68.0916 81.3875 62.2869C81.1645 61.0308 81.1571 59.5443 80.4212 58.5261C79.6066 57.5616 78.661 56.716 77.6118 56.0139C78.678 56.5238 79.6386 57.2297 80.4436 58.095C81.0903 59.0109 81.5245 60.0596 81.7145 61.1646C82.7253 65.5348 82.8294 70.1801 84.7989 74.2085C85.7747 76.057 86.9378 77.8004 88.2699 79.4111C87.8595 79.466 87.4438 79.3594 87.1104 79.1138Z" fill="#D96D5F"/>
<path d="M70.6631 57.8646C71.9468 59.3124 73.0362 60.9215 73.9036 62.6511C74.5087 64.1528 74.9716 65.7081 75.286 67.2964C76.187 71.0545 77.3569 74.743 78.7867 78.3335C79.2995 79.6267 79.8347 79.9761 81.1576 79.9463C78.9279 77.7166 77.9914 74.543 77.1144 71.5105L75.0631 64.3829C74.8043 63.3262 74.4226 62.3034 73.9259 61.3356C73.1529 60.1281 72.2005 59.0455 71.1016 58.1248L70.6631 57.8646Z" fill="#D96D5F"/>
<path d="M89.6379 96.9145C84.6613 92.1148 78.7692 88.3662 72.313 85.8922C79.4407 88.0104 86.5163 91.4665 90.8123 97.5388C90.4035 97.3649 90.0106 97.156 89.6379 96.9145Z" fill="url(#paint1_linear_309_27606)"/>
<path d="M101.99 90.27C98.4899 92.1134 95.6043 94.9396 93.6885 98.4011C94.0445 96.3343 95.1312 94.4642 96.7506 93.1315C98.317 91.8794 100.09 90.9109 101.99 90.27Z" fill="url(#paint2_linear_309_27606)"/>
<path d="M99.2183 86.8064C91.8378 85.2804 84.2626 84.9293 76.7725 85.7659C84.2792 85.9219 91.4738 86.2341 99.2183 86.8064Z" fill="url(#paint3_linear_309_27606)"/>
<path d="M98.936 111.579C96.9516 112.684 95.3362 114.349 94.2907 116.365C93.2578 118.374 92.4048 120.471 91.7414 122.631C89.5563 128.938 87.1036 135.132 84.3833 141.212C85.4257 139.653 86.3261 138.004 87.0738 136.284C89.5513 130.635 92.0164 124.992 94.4691 119.353C95.6109 116.296 97.4779 113.562 99.9096 111.385C99.5791 111.415 99.2527 111.48 98.936 111.579Z" fill="url(#paint4_linear_309_27606)"/>
<path d="M92.6402 116.112C91.0858 120.703 89.2972 125.21 87.2814 129.617C87.2814 129.55 87.2294 129.231 87.2814 129.164C89.1916 124.593 89.9571 119.777 92.6402 116.112Z" fill="url(#paint5_linear_309_27606)"/>
<g style="mix-blend-mode:multiply">
<path d="M86.4345 93.5252C85.6466 92.611 83.9521 91.8232 83.0007 91.1988C81.6257 90.2921 80.2358 89.4299 78.8088 88.6198C76.6609 87.3934 74.4014 86.7394 72.194 85.736C71.559 83.3445 70.7133 81.0141 69.667 78.7718C66.746 72.4915 66.196 65.2672 63.0967 59.076C62.9917 58.9038 62.9266 58.7103 62.906 58.5097C62.8854 58.3091 62.9099 58.1064 62.9778 57.9165C63.171 59.0537 64.2487 59.8266 64.9102 60.8895C65.8501 62.3963 66.5991 64.0141 67.1399 65.7057C68.069 68.478 68.6264 71.3617 69.4366 74.1638C70.0887 76.4832 70.9883 78.7258 72.1197 80.8529C72.8629 82.2428 73.896 84.0637 75.2487 84.9631C76.6014 85.8624 78.9649 85.7806 80.652 85.9961C80.0769 86.3383 79.5301 86.726 79.0169 87.1556C81.9612 88.6582 84.5041 90.8419 86.4345 93.5252Z" fill="#F0D3E1"/>
</g>
<g style="mix-blend-mode:multiply">
<path d="M83.3875 111.415C82.6533 111.714 81.8748 111.89 81.0834 111.935C79.7605 112.069 78.4449 112.21 77.1368 112.359C75.026 117.406 72.8558 122.43 71.6294 127.751C70.662 131.72 70.363 135.822 70.745 139.889C68.6713 137.391 66.6497 133.831 66.843 130.494C66.8603 130.009 66.9531 129.53 67.118 129.074C67.8612 127.053 68.9612 125.083 69.8531 123.128C71.7842 119.109 73.4308 114.959 74.7808 110.709C74.8584 110.503 74.8584 110.276 74.7808 110.07C74.7001 109.932 74.5881 109.815 74.4537 109.728C72.4693 108.286 70.1206 106.963 68.6862 104.904C67.9429 103.849 67.7943 102.236 67.4598 101.01C66.7166 98.3117 66.1889 95.3982 64.3531 93.1982C63.5504 92.2468 62.5321 91.4367 61.7963 90.4482C61.395 89.9056 61.1497 89.2293 60.7409 88.7016C57.2105 84.1678 51.8964 81.6779 47.5335 78.1252C46.597 77.382 46.4187 76.6388 46.6788 75.9698C46.9482 76.6519 47.3915 77.2515 47.9646 77.709C50.9694 80.1297 54.3483 82.0451 57.9687 83.38C59.1375 83.8934 60.4098 84.1275 61.6849 84.0637C62.3173 84.0248 62.9251 83.8043 63.4353 83.4286C63.9455 83.0529 64.3364 82.5379 64.5612 81.9455L64.6281 81.7151C65.2821 82.3505 66.0352 82.8752 66.8578 83.2685C67.3186 83.484 67.7646 83.7144 68.2254 83.9448C67.8061 83.9989 67.4193 84.1989 67.1328 84.5097C66.6614 85.1586 66.4018 85.9374 66.3896 86.7394C66.1878 89.8042 66.4382 92.882 67.1328 95.8738C67.4281 97.5633 67.8759 99.2226 68.4707 100.831C69.5891 103.553 71.379 105.946 73.6733 107.788C76.3416 109.78 80.2808 110.553 83.3875 111.415Z" fill="#F0D3E1"/>
</g>
<g style="mix-blend-mode:multiply">
<path d="M97.7693 79.5895C97.7614 79.6505 97.7407 79.7091 97.7087 79.7616C97.6767 79.8141 97.634 79.8593 97.5834 79.8942C97.5186 79.9212 97.4481 79.9319 97.3782 79.9254C97.3082 79.919 97.2409 79.8955 97.1821 79.857C96.7712 79.674 96.3942 79.4227 96.0672 79.1138C96.2144 79.0319 96.3335 78.9076 96.4091 78.7571C96.4782 78.5952 96.5112 78.4202 96.5057 78.2442C96.5752 74.6037 96.0737 70.9747 95.0193 67.4895C94.8834 67.1155 94.8602 66.7098 94.9524 66.3226C95.3314 68.9611 97.0112 71.2652 97.7321 73.8442C98.2547 75.722 98.2675 77.7051 97.7693 79.5895Z" fill="#F0D3E1"/>
</g>
<path d="M120.779 107.729C121.523 110.486 123.009 112.418 124.496 114.752C125.276 116.001 125.648 117.77 126.138 119.16C126.681 120.646 127.201 122.177 127.721 123.686C129.78 129.743 131.727 135.823 134.091 141.762C135.094 144.296 135.696 147.514 138.387 148.815C140.431 149.803 143.381 148.956 145.477 148.436C150.877 147.171 155.735 144.225 159.354 140.022L159.48 139.866C161.554 137.369 163.575 133.809 163.389 130.472C163.366 129.987 163.271 129.509 163.107 129.052C162.364 127.031 161.264 125.061 160.379 123.106C158.446 119.087 156.797 114.937 155.444 110.687C155.354 110.485 155.341 110.258 155.407 110.048C155.49 109.911 155.601 109.795 155.734 109.706C157.718 108.264 160.067 106.941 161.502 104.882C162.245 103.827 162.401 102.214 162.728 100.987C163.471 98.2894 163.999 95.3759 165.842 93.1759C166.637 92.2246 167.656 91.4145 168.391 90.4259C168.793 89.8834 169.038 89.207 169.447 88.6793C172.985 84.1456 178.291 81.6557 182.654 78.103C183.591 77.3598 183.769 76.6165 183.509 75.9476C182.899 74.4017 179.882 73.2645 178.395 73.0638C177.051 72.9222 175.692 73.0705 174.41 73.4988C173.128 73.927 171.952 74.6252 170.963 75.5463C168.852 77.33 167.537 79.8645 165.567 81.6929C164.913 82.3283 164.16 82.8529 163.337 83.2462C162.884 83.4618 162.431 83.6922 161.977 83.9226C160.669 84.5692 159.368 85.2456 158.031 85.7658C158.031 85.7658 158.031 85.7658 158.031 85.7212C158.666 83.3298 159.511 80.9993 160.558 78.7571C163.479 72.4767 164.036 65.2524 167.135 59.0612C167.238 58.8879 167.301 58.6942 167.32 58.4939C167.339 58.2935 167.314 58.0914 167.247 57.9017C166.935 57.1065 165.76 56.6977 164.794 56.6234C163.396 56.3842 161.959 56.5333 160.639 57.0544C160.825 56.2071 161.13 55.0848 160.528 54.4531C160.202 54.1716 159.811 53.975 159.391 53.8808C158.369 53.6103 157.299 53.5679 156.259 53.7567C155.219 53.9455 154.232 54.3609 153.37 54.9734C152.768 54.8811 152.151 54.932 151.572 55.122C148.512 56.2052 145.767 58.0282 143.582 60.4288C142.423 61.6328 142.266 63.4017 141.791 65.0145C141.241 66.833 140.649 68.6416 140.014 70.4402C139.386 72.3928 138.549 74.2717 137.517 76.0443C137.101 76.7355 135.176 79.6267 134.158 79.1064C134.011 79.0245 133.891 78.9001 133.816 78.7496C133.747 78.5877 133.714 78.4127 133.719 78.2368C133.65 74.5963 134.151 70.9673 135.206 67.4821C135.345 67.1088 135.368 66.702 135.273 66.3152C135.254 66.2543 135.227 66.1966 135.191 66.1443C134.76 65.4605 133.704 65.6389 133.102 65.9659C130.219 67.5564 129.312 70.8936 128.353 73.8442C127.55 76.3044 127.26 78.7868 126.688 81.2766C126.077 84.0402 125.265 86.7553 124.258 89.4003C123.121 92.3733 121.783 95.0861 120.869 98.0888C119.955 101.233 119.924 104.568 120.779 107.729Z" fill="url(#paint6_linear_309_27606)"/>
<path d="M143.114 79.1139C146.956 74.3571 147.804 68.0916 148.837 62.2869C149.06 61.0308 149.067 59.5444 149.811 58.5261C150.613 57.5702 151.546 56.732 152.583 56.0363C151.518 56.5479 150.557 57.2537 149.751 58.1173C149.104 59.0332 148.67 60.0819 148.48 61.1869C147.477 65.5572 147.365 70.2024 145.396 74.2308C144.423 76.0792 143.262 77.8225 141.932 79.4335C142.14 79.4609 142.352 79.4468 142.555 79.3919C142.758 79.3371 142.948 79.2426 143.114 79.1139Z" fill="#D96D5F"/>
<path d="M159.569 57.8646C158.275 59.311 157.176 60.9201 156.299 62.6511C155.693 64.1528 155.231 65.7081 154.916 67.2964C154.022 71.0539 152.86 74.7425 151.438 78.3335C150.925 79.6267 150.39 79.9761 149.067 79.9463C151.297 77.7166 152.241 74.543 153.11 71.5105L155.161 64.3829C155.668 61.8791 157.082 59.6506 159.13 58.1248L159.569 57.8646Z" fill="#D96D5F"/>
<path d="M140.594 96.9145C145.563 92.1089 151.451 88.355 157.904 85.8773C150.776 87.9956 143.701 91.4516 139.405 97.5239C139.818 97.3552 140.216 97.1513 140.594 96.9145Z" fill="url(#paint7_linear_309_27606)"/>
<path d="M128.242 90.27C131.739 92.1156 134.621 94.9414 136.536 98.4011C136.18 96.3343 135.093 94.4642 133.474 93.1315C131.909 91.881 130.139 90.9127 128.242 90.27Z" fill="url(#paint8_linear_309_27606)"/>
<path d="M131.029 86.8063C138.393 85.286 145.95 84.9348 153.423 85.7658C145.946 85.9219 138.751 86.234 131.029 86.8063Z" fill="url(#paint9_linear_309_27606)"/>
<path d="M131.289 111.579C133.273 112.684 134.889 114.349 135.934 116.365C136.959 118.375 137.805 120.472 138.461 122.631C140.646 128.938 143.099 135.132 145.819 141.212C144.777 139.653 143.877 138.004 143.129 136.284C140.651 130.635 138.186 124.992 135.734 119.353C134.584 116.309 132.715 113.588 130.286 111.423C130.625 111.438 130.961 111.49 131.289 111.579Z" fill="url(#paint10_linear_309_27606)"/>
<path d="M137.584 116.112C139.128 120.703 140.91 125.211 142.921 129.617C142.921 129.55 142.966 129.231 142.921 129.164C141.033 124.593 140.268 119.777 137.584 116.112Z" fill="url(#paint11_linear_309_27606)"/>
<g style="mix-blend-mode:multiply">
<path d="M143.79 93.5252C144.585 92.611 146.272 91.8232 147.224 91.1988C148.599 90.2921 149.989 89.4299 151.416 88.6198C153.564 87.3934 155.823 86.7394 158.031 85.736C158.666 83.3445 159.511 81.0141 160.558 78.7718C163.478 72.4915 164.036 65.2672 167.135 59.076C167.238 58.9026 167.301 58.709 167.32 58.5086C167.339 58.3083 167.314 58.1061 167.247 57.9165C167.053 59.0537 165.976 59.8266 165.314 60.8895C164.374 62.3963 163.625 64.0141 163.085 65.7057C162.156 68.478 161.598 71.3617 160.795 74.1638C160.137 76.4823 159.236 78.7245 158.105 80.8529C157.362 82.2428 156.329 84.0637 154.983 84.9631C153.638 85.8624 151.267 85.7806 149.572 85.9961C150.148 86.3383 150.694 86.726 151.208 87.1556C148.264 88.6596 145.722 90.8431 143.79 93.5252Z" fill="#F0D3E1"/>
</g>
<g style="mix-blend-mode:multiply">
<path d="M146.837 111.415C147.574 111.715 148.355 111.89 149.149 111.935C150.464 112.069 151.78 112.21 153.088 112.359C155.199 117.406 157.369 122.43 158.595 127.751C159.563 131.72 159.862 135.822 159.48 139.889C161.554 137.391 163.575 133.831 163.389 130.494C163.366 130.009 163.271 129.531 163.107 129.074C162.364 127.053 161.264 125.083 160.379 123.128C158.446 119.109 156.797 114.959 155.444 110.709C155.354 110.507 155.341 110.28 155.407 110.07C155.49 109.933 155.601 109.817 155.734 109.728C157.718 108.286 160.067 106.963 161.502 104.904C162.245 103.849 162.401 102.236 162.728 101.01C163.471 98.3117 163.999 95.3982 165.842 93.1982C166.637 92.2468 167.656 91.4367 168.391 90.4482C168.793 89.9056 169.038 89.2293 169.447 88.7016C172.985 84.1678 178.291 81.6779 182.654 78.1252C183.591 77.382 183.769 76.6388 183.509 75.9698C183.239 76.6519 182.796 77.2515 182.223 77.709C179.218 80.1297 175.839 82.0451 172.219 83.38C171.05 83.8934 169.778 84.1275 168.503 84.0637C167.871 84.0239 167.263 83.8031 166.753 83.4275C166.243 83.0518 165.852 82.5374 165.627 81.9455C165.627 81.8712 165.582 81.7894 165.56 81.7151C164.906 82.3505 164.153 82.8752 163.33 83.2685C162.877 83.484 162.423 83.7144 161.97 83.9448C162.386 84.0005 162.77 84.2004 163.055 84.5097C163.526 85.1586 163.786 85.9374 163.798 86.7394C164.004 89.8042 163.753 92.8826 163.055 95.8738C162.763 97.5641 162.315 99.2237 161.717 100.831C160.599 103.553 158.809 105.946 156.514 107.788C153.883 109.78 149.944 110.553 146.837 111.415Z" fill="#F0D3E1"/>
</g>
<g style="mix-blend-mode:multiply">
<path d="M132.456 79.5895C132.475 79.7116 132.542 79.8212 132.642 79.8942C132.706 79.9212 132.777 79.9319 132.847 79.9254C132.917 79.919 132.984 79.8955 133.043 79.857C133.455 79.6758 133.832 79.4243 134.158 79.1138C134.011 79.0319 133.892 78.9076 133.816 78.7571C133.747 78.5952 133.714 78.4202 133.719 78.2442C133.65 74.6037 134.151 70.9747 135.206 67.4895C135.345 67.1162 135.368 66.7094 135.273 66.3226C134.894 68.9611 133.214 71.2652 132.493 73.8442C131.97 75.722 131.958 77.7051 132.456 79.5895Z" fill="#F0D3E1"/>
</g>
<path d="M135.176 56.7794C133.291 59.0899 131.274 61.2886 129.134 63.3645C125.655 66.8726 120.393 70.6483 116.201 73.3091L116.008 73.4354C110.947 70.5445 106.139 67.2328 101.634 63.5354C97.2262 60.0496 92.9005 56.3632 89.6526 51.7625C86.4046 47.1619 84.3161 41.5653 84.8958 35.9761C85.4755 30.3869 89.1026 24.9612 94.4465 23.2146C98.7201 21.8173 103.157 22.9173 106.97 25.0579C110.426 26.9754 112.916 31.2045 114.759 34.772C114.871 35.0099 114.99 35.2328 115.101 35.4558C117.078 31.9997 119.234 28.4842 122.534 26.2842C128.145 22.568 136.469 23.8984 140.78 29.0788C148.123 37.8713 141.003 49.347 135.176 56.7794Z" fill="url(#paint12_linear_309_27606)"/>
<path d="M116.201 73.2867L116.008 73.4131C110.947 70.5221 106.139 67.2104 101.634 63.5131C97.2262 60.0273 92.9005 56.3408 89.6526 51.7402C86.4046 47.1395 84.3161 41.5429 84.8958 35.9537C85.4755 30.3646 89.1026 24.9389 94.4465 23.1923C98.7201 21.795 103.157 22.895 106.97 25.0355C110.426 26.9531 112.916 31.1821 114.759 34.7497L116.201 73.2867Z" fill="url(#paint13_linear_309_27606)"/>
<defs>
<linearGradient id="paint0_linear_309_27606" x1="53.7322" y1="26.7526" x2="83.0382" y2="99.7909" gradientUnits="userSpaceOnUse">
<stop stop-color="#F07969"/>
<stop offset="0.21" stop-color="#F4937C"/>
<stop offset="0.53" stop-color="#FAB596"/>
<stop offset="0.8" stop-color="#FECAA5"/>
<stop offset="0.98" stop-color="#FFD2AB"/>
</linearGradient>
<linearGradient id="paint1_linear_309_27606" x1="84.4575" y1="70.0389" x2="79.5076" y2="107.164" gradientUnits="userSpaceOnUse">
<stop stop-color="#F07969"/>
<stop offset="0.21" stop-color="#F4937C"/>
<stop offset="0.53" stop-color="#FAB596"/>
<stop offset="0.8" stop-color="#FECAA5"/>
<stop offset="0.98" stop-color="#FFD2AB"/>
</linearGradient>
<linearGradient id="paint2_linear_309_27606" x1="100.786" y1="72.2093" x2="95.8364" y2="109.342" gradientUnits="userSpaceOnUse">
<stop stop-color="#F07969"/>
<stop offset="0.21" stop-color="#F4937C"/>
<stop offset="0.53" stop-color="#FAB596"/>
<stop offset="0.8" stop-color="#FECAA5"/>
<stop offset="0.98" stop-color="#FFD2AB"/>
</linearGradient>
<linearGradient id="paint3_linear_309_27606" x1="90.0765" y1="70.7896" x2="85.1339" y2="107.914" gradientUnits="userSpaceOnUse">
<stop stop-color="#F07969"/>
<stop offset="0.21" stop-color="#F4937C"/>
<stop offset="0.53" stop-color="#FAB596"/>
<stop offset="0.8" stop-color="#FECAA5"/>
<stop offset="0.98" stop-color="#FFD2AB"/>
</linearGradient>
<linearGradient id="paint4_linear_309_27606" x1="102.02" y1="92.6111" x2="88.3448" y2="139.309" gradientUnits="userSpaceOnUse">
<stop stop-color="#F07969"/>
<stop offset="0.21" stop-color="#F4937C"/>
<stop offset="0.53" stop-color="#FAB596"/>
<stop offset="0.8" stop-color="#FECAA5"/>
<stop offset="0.98" stop-color="#FFD2AB"/>
</linearGradient>
<linearGradient id="paint5_linear_309_27606" x1="98.9948" y1="91.7267" x2="85.3266" y2="138.424" gradientUnits="userSpaceOnUse">
<stop stop-color="#F07969"/>
<stop offset="0.21" stop-color="#F4937C"/>
<stop offset="0.53" stop-color="#FAB596"/>
<stop offset="0.8" stop-color="#FECAA5"/>
<stop offset="0.98" stop-color="#FFD2AB"/>
</linearGradient>
<linearGradient id="paint6_linear_309_27606" x1="176.493" y1="26.7525" x2="147.187" y2="99.7908" gradientUnits="userSpaceOnUse">
<stop stop-color="#F07969"/>
<stop offset="0.21" stop-color="#F4937C"/>
<stop offset="0.53" stop-color="#FAB596"/>
<stop offset="0.8" stop-color="#FECAA5"/>
<stop offset="0.98" stop-color="#FFD2AB"/>
</linearGradient>
<linearGradient id="paint7_linear_309_27606" x1="145.767" y1="70.0388" x2="150.717" y2="107.164" gradientUnits="userSpaceOnUse">
<stop stop-color="#F07969"/>
<stop offset="0.21" stop-color="#F4937C"/>
<stop offset="0.53" stop-color="#FAB596"/>
<stop offset="0.8" stop-color="#FECAA5"/>
<stop offset="0.98" stop-color="#FFD2AB"/>
</linearGradient>
<linearGradient id="paint8_linear_309_27606" x1="129.446" y1="72.2093" x2="134.388" y2="109.342" gradientUnits="userSpaceOnUse">
<stop stop-color="#F07969"/>
<stop offset="0.21" stop-color="#F4937C"/>
<stop offset="0.53" stop-color="#FAB596"/>
<stop offset="0.8" stop-color="#FECAA5"/>
<stop offset="0.98" stop-color="#FFD2AB"/>
</linearGradient>
<linearGradient id="paint9_linear_309_27606" x1="140.148" y1="70.7895" x2="145.091" y2="107.914" gradientUnits="userSpaceOnUse">
<stop stop-color="#F07969"/>
<stop offset="0.21" stop-color="#F4937C"/>
<stop offset="0.53" stop-color="#FAB596"/>
<stop offset="0.8" stop-color="#FECAA5"/>
<stop offset="0.98" stop-color="#FFD2AB"/>
</linearGradient>
<linearGradient id="paint10_linear_309_27606" x1="128.205" y1="92.6112" x2="141.88" y2="139.309" gradientUnits="userSpaceOnUse">
<stop stop-color="#F07969"/>
<stop offset="0.21" stop-color="#F4937C"/>
<stop offset="0.53" stop-color="#FAB596"/>
<stop offset="0.8" stop-color="#FECAA5"/>
<stop offset="0.98" stop-color="#FFD2AB"/>
</linearGradient>
<linearGradient id="paint11_linear_309_27606" x1="131.23" y1="91.7267" x2="144.898" y2="138.425" gradientUnits="userSpaceOnUse">
<stop stop-color="#F07969"/>
<stop offset="0.21" stop-color="#F4937C"/>
<stop offset="0.53" stop-color="#FAB596"/>
<stop offset="0.8" stop-color="#FECAA5"/>
<stop offset="0.98" stop-color="#FFD2AB"/>
</linearGradient>
<linearGradient id="paint12_linear_309_27606" x1="79.106" y1="57.0915" x2="162.438" y2="29.0491" gradientUnits="userSpaceOnUse">
<stop stop-color="#E83A23"/>
<stop offset="1" stop-color="#7A0843"/>
</linearGradient>
<linearGradient id="paint13_linear_309_27606" x1="71.0567" y1="17.841" x2="127.387" y2="62.4874" gradientUnits="userSpaceOnUse">
<stop stop-color="#E83A23"/>
<stop offset="1" stop-color="#7A0843"/>
</linearGradient>
</defs>
</svg>
