<svg width="25" height="24" viewBox="0 0 25 24" fill="none" xmlns="http://www.w3.org/2000/svg">
<path d="M14.7753 3.54987C14.8008 3.45485 14.8447 3.36577 14.9047 3.28772C14.9647 3.20966 15.0394 3.14417 15.1248 3.09497C15.2101 3.04578 15.3043 3.01385 15.402 3.00101C15.4996 2.98817 15.5989 2.99468 15.6941 3.02015C17.0844 3.3823 18.353 4.1079 19.369 5.12224C20.3851 6.13657 21.1119 7.40296 21.4747 8.79097C21.5002 8.88598 21.5067 8.98508 21.4939 9.0826C21.481 9.18012 21.449 9.27415 21.3997 9.35933C21.3505 9.4445 21.2849 9.51915 21.2067 9.57901C21.1285 9.63886 21.0393 9.68275 20.9441 9.70817C20.8807 9.72478 20.8155 9.73327 20.75 9.73344C20.5847 9.73343 20.4241 9.67893 20.293 9.5784C20.162 9.47786 20.0679 9.33693 20.0253 9.17751C19.7295 8.04442 19.1363 7.0106 18.3069 6.18261C17.4775 5.35462 16.4419 4.76243 15.3069 4.46707C15.2116 4.44175 15.1223 4.39793 15.044 4.33812C14.9657 4.27831 14.9 4.20367 14.8506 4.11849C14.8013 4.0333 14.7692 3.93923 14.7563 3.84166C14.7433 3.7441 14.7498 3.64494 14.7753 3.54987ZM14.5569 7.46198C15.8497 7.8064 16.6803 8.63561 17.0253 9.92623C17.0679 10.0857 17.162 10.2266 17.293 10.3271C17.4241 10.4277 17.5847 10.4822 17.75 10.4822C17.8155 10.482 17.8807 10.4735 17.9441 10.4569C18.0393 10.4315 18.1285 10.3876 18.2067 10.3277C18.2849 10.2679 18.3505 10.1932 18.3997 10.1081C18.449 10.0229 18.481 9.92884 18.4939 9.83132C18.5067 9.7338 18.5002 9.63471 18.4747 9.5397C17.9947 7.7465 16.7403 6.49425 14.9441 6.01506C14.8489 5.98968 14.7497 5.98326 14.652 5.99617C14.5544 6.00908 14.4602 6.04107 14.3749 6.0903C14.2897 6.13953 14.2149 6.20505 14.155 6.28311C14.0951 6.36117 14.0512 6.45025 14.0258 6.54526C14.0004 6.64026 13.9939 6.73934 14.0069 6.83682C14.0198 6.93431 14.0518 7.0283 14.1012 7.11342C14.1505 7.19855 14.2161 7.27315 14.2943 7.33295C14.3725 7.39276 14.4617 7.4366 14.5569 7.46198ZM22.2388 16.3859C22.0716 17.6541 21.4477 18.8182 20.4837 19.6607C19.5196 20.5033 18.2813 20.9667 17 20.9644C9.55626 20.9644 3.50001 14.9184 3.50001 7.48725C3.49771 6.20813 3.9619 4.97192 4.80588 4.00949C5.64986 3.04707 6.81592 2.42426 8.08626 2.25738C8.4075 2.21822 8.7328 2.28383 9.01362 2.44441C9.29444 2.60499 9.5157 2.85193 9.64438 3.14837L11.6244 7.56119V7.57242C11.7229 7.79933 11.7636 8.04707 11.7428 8.29352C11.722 8.53996 11.6404 8.77742 11.5053 8.98471C11.4884 9.00998 11.4706 9.03338 11.4519 9.05677L9.50001 11.3666C10.2022 12.7911 11.6947 14.2679 13.1403 14.9708L15.4222 13.0325C15.4446 13.0137 15.4681 12.9962 15.4925 12.9801C15.7 12.842 15.9387 12.7577 16.187 12.7348C16.4353 12.7119 16.6854 12.7512 16.9147 12.8491L16.9269 12.8547L21.3434 14.8304C21.6409 14.9584 21.8889 15.1791 22.0503 15.4595C22.2116 15.7399 22.2778 16.0649 22.2388 16.3859ZM20.75 16.1987H20.7397L16.3334 14.2286L14.0506 16.1669C14.0285 16.1856 14.0053 16.2031 13.9813 16.2193C13.7654 16.3631 13.5159 16.4485 13.2571 16.4672C12.9983 16.4859 12.739 16.4372 12.5047 16.326C10.7488 15.479 8.99845 13.7448 8.14907 12.0105C8.0366 11.7783 7.98613 11.521 8.00255 11.2635C8.01898 11.0061 8.10174 10.7572 8.24282 10.5411C8.25872 10.5158 8.27659 10.4917 8.29626 10.4691L10.25 8.15643L8.28126 3.75764C8.28089 3.75391 8.28089 3.75015 8.28126 3.74641C7.37212 3.86481 6.53739 4.30999 5.93339 4.99858C5.3294 5.68718 4.99755 6.57197 5.00001 7.48725C5.00348 10.6634 6.26888 13.7084 8.51856 15.9543C10.7682 18.2002 13.8185 19.4634 17 19.4669C17.9163 19.4701 18.8023 19.1399 19.4925 18.5383C20.1827 17.9366 20.6297 17.1046 20.75 16.1978V16.1987Z" fill="#0BDBB6"/>
</svg>
