<svg width="9" height="8" viewBox="0 0 9 8" fill="none" xmlns="http://www.w3.org/2000/svg">
<path d="M7.83538 7.89806L5.1067 5.16937C4.89013 5.34262 4.64109 5.47978 4.35956 5.58084C4.07802 5.6819 3.77845 5.73243 3.46082 5.73243C2.67398 5.73243 2.00805 5.45992 1.46303 4.91491C0.918016 4.36989 0.645508 3.70396 0.645508 2.91712C0.645508 2.13028 0.918016 1.46435 1.46303 0.91933C2.00805 0.374315 2.67398 0.101807 3.46082 0.101807C4.24766 0.101807 4.91359 0.374315 5.45861 0.91933C6.00363 1.46435 6.27613 2.13028 6.27613 2.91712C6.27613 3.23474 6.2256 3.53432 6.12454 3.81585C6.02348 4.09739 5.88632 4.34643 5.71307 4.56299L8.44176 7.29168L7.83538 7.89806ZM3.46082 4.86618C4.00223 4.86618 4.46242 4.67669 4.84141 4.29771C5.22039 3.91872 5.40988 3.45853 5.40988 2.91712C5.40988 2.37571 5.22039 1.91552 4.84141 1.53653C4.46242 1.15755 4.00223 0.968057 3.46082 0.968057C2.91941 0.968057 2.45922 1.15755 2.08023 1.53653C1.70125 1.91552 1.51176 2.37571 1.51176 2.91712C1.51176 3.45853 1.70125 3.91872 2.08023 4.29771C2.45922 4.67669 2.91941 4.86618 3.46082 4.86618Z" fill="#6E6E6E"/>
</svg>
