<svg width="28" height="30" viewBox="0 0 28 30" fill="none" xmlns="http://www.w3.org/2000/svg">
<path d="M25.5882 2.35294H21.7647V0.882353C21.7647 0.648338 21.6717 0.423908 21.5063 0.258435C21.3408 0.0929618 21.1164 0 20.8823 0C20.6483 0 20.4239 0.0929618 20.2584 0.258435C20.093 0.423908 20 0.648338 20 0.882353V2.35294H7.64706V0.882353C7.64706 0.648338 7.55409 0.423908 7.38862 0.258435C7.22315 0.0929618 6.99872 0 6.7647 0C6.53069 0 6.30626 0.0929618 6.14079 0.258435C5.97531 0.423908 5.88235 0.648338 5.88235 0.882353V2.35294H2.05882C1.51279 2.35294 0.98912 2.56985 0.603015 2.95596C0.216911 3.34206 0 3.86573 0 4.41176V27.9412C0 28.4872 0.216911 29.0109 0.603015 29.397C0.98912 29.7831 1.51279 30 2.05882 30H25.5882C26.1343 30 26.6579 29.7831 27.044 29.397C27.4301 29.0109 27.6471 28.4872 27.6471 27.9412V4.41176C27.6471 3.86573 27.4301 3.34206 27.044 2.95596C26.6579 2.56985 26.1343 2.35294 25.5882 2.35294ZM2.05882 4.11765H5.88235V5.58824C5.88235 5.82225 5.97531 6.04668 6.14079 6.21215C6.30626 6.37763 6.53069 6.47059 6.7647 6.47059C6.99872 6.47059 7.22315 6.37763 7.38862 6.21215C7.55409 6.04668 7.64706 5.82225 7.64706 5.58824V4.11765H20V5.58824C20 5.82225 20.093 6.04668 20.2584 6.21215C20.4239 6.37763 20.6483 6.47059 20.8823 6.47059C21.1164 6.47059 21.3408 6.37763 21.5063 6.21215C21.6717 6.04668 21.7647 5.82225 21.7647 5.58824V4.11765H25.5882C25.6662 4.11765 25.741 4.14863 25.7962 4.20379C25.8514 4.25895 25.8823 4.33376 25.8823 4.41176V9.41177H1.76471V4.41176C1.76471 4.33376 1.79569 4.25895 1.85085 4.20379C1.90601 4.14863 1.98082 4.11765 2.05882 4.11765ZM25.5882 28.2353H2.05882C1.98082 28.2353 1.90601 28.2043 1.85085 28.1492C1.79569 28.094 1.76471 28.0192 1.76471 27.9412V11.1765H25.8823V27.9412C25.8823 28.0192 25.8514 28.094 25.7962 28.1492C25.741 28.2043 25.6662 28.2353 25.5882 28.2353ZM11.1765 15V24.4118C11.1765 24.6458 11.0835 24.8702 10.918 25.0357C10.7526 25.2012 10.5281 25.2941 10.2941 25.2941C10.0601 25.2941 9.83567 25.2012 9.6702 25.0357C9.50472 24.8702 9.41176 24.6458 9.41176 24.4118V16.4279L8.33529 16.9662C8.23159 17.0179 8.1187 17.0488 8.00308 17.0569C7.88747 17.065 7.77138 17.0503 7.66145 17.0136C7.55152 16.9768 7.44991 16.9188 7.3624 16.8428C7.2749 16.7668 7.20322 16.6743 7.15147 16.5706C7.09971 16.4669 7.06889 16.354 7.06076 16.2384C7.05263 16.1228 7.06735 16.0067 7.10408 15.8967C7.14082 15.7868 7.19884 15.6852 7.27485 15.5977C7.35086 15.5102 7.44335 15.4385 7.54706 15.3868L9.9 14.2103C10.0345 14.1431 10.184 14.1115 10.3342 14.1183C10.4845 14.1251 10.6305 14.1703 10.7583 14.2494C10.8862 14.3285 10.9918 14.439 11.0649 14.5704C11.1381 14.7017 11.1765 14.8496 11.1765 15ZM19.9368 19.3015L16.7647 23.5294H19.7059C19.9399 23.5294 20.1643 23.6224 20.3298 23.7878C20.4953 23.9533 20.5882 24.1777 20.5882 24.4118C20.5882 24.6458 20.4953 24.8702 20.3298 25.0357C20.1643 25.2012 19.9399 25.2941 19.7059 25.2941H15C14.8361 25.2941 14.6755 25.2485 14.5361 25.1623C14.3967 25.0762 14.2841 24.9529 14.2108 24.8064C14.1375 24.6598 14.1065 24.4957 14.1212 24.3325C14.1359 24.1693 14.1958 24.0134 14.2941 23.8824L18.5294 18.2353C18.6514 18.075 18.7391 17.8915 18.7872 17.6959C18.8353 17.5004 18.8427 17.297 18.809 17.0985C18.7753 16.8999 18.7012 16.7104 18.5912 16.5417C18.4813 16.373 18.3378 16.2287 18.1698 16.1177C18.0018 16.0067 17.8128 15.9314 17.6144 15.8964C17.4161 15.8615 17.2127 15.8676 17.0169 15.9145C16.821 15.9614 16.6369 16.048 16.4759 16.1689C16.3149 16.2899 16.1804 16.4426 16.0809 16.6176C16.0283 16.7274 15.9535 16.825 15.8613 16.9044C15.7692 16.9839 15.6616 17.0434 15.5453 17.0792C15.429 17.1151 15.3066 17.1265 15.1857 17.1128C15.0648 17.099 14.948 17.0604 14.8428 16.9994C14.7375 16.9384 14.646 16.8563 14.574 16.7582C14.502 16.6601 14.4511 16.5482 14.4244 16.4294C14.3977 16.3107 14.3959 16.1878 14.419 16.0683C14.4422 15.9489 14.4898 15.8355 14.5588 15.7353C14.7806 15.3546 15.0777 15.0232 15.4321 14.7614C15.7865 14.4997 16.1906 14.313 16.6196 14.213C17.0487 14.1129 17.4936 14.1015 17.9272 14.1795C18.3608 14.2575 18.7739 14.4233 19.1412 14.6666C19.5085 14.9099 19.8222 15.2257 20.0631 15.5945C20.304 15.9634 20.4671 16.3776 20.5423 16.8117C20.6174 17.2458 20.6032 17.6906 20.5003 18.119C20.3975 18.5474 20.2082 18.9503 19.9441 19.3029L19.9368 19.3015Z" fill="#0BDBB6"/>
</svg>
