<svg width="18" height="19" viewBox="0 0 18 19" fill="none" xmlns="http://www.w3.org/2000/svg">
<path d="M16.6596 1.91176H14.1702V1.02941C14.1702 0.889003 14.1097 0.754345 14.002 0.655061C13.8942 0.555777 13.7481 0.5 13.5957 0.5C13.4434 0.5 13.2973 0.555777 13.1895 0.655061C13.0818 0.754345 13.0213 0.889003 13.0213 1.02941V1.91176H4.97872V1.02941C4.97872 0.889003 4.9182 0.754345 4.81046 0.655061C4.70273 0.555777 4.55661 0.5 4.40426 0.5C4.2519 0.5 4.10578 0.555777 3.99805 0.655061C3.89031 0.754345 3.82979 0.889003 3.82979 1.02941V1.91176H1.34043C0.984923 1.91176 0.64398 2.04191 0.392602 2.27357C0.141223 2.50524 0 2.81944 0 3.14706V17.2647C0 17.5923 0.141223 17.9065 0.392602 18.1382C0.64398 18.3699 0.984923 18.5 1.34043 18.5H16.6596C17.0151 18.5 17.356 18.3699 17.6074 18.1382C17.8588 17.9065 18 17.5923 18 17.2647V3.14706C18 2.81944 17.8588 2.50524 17.6074 2.27357C17.356 2.04191 17.0151 1.91176 16.6596 1.91176ZM1.34043 2.97059H3.82979V3.85294C3.82979 3.99335 3.89031 4.12801 3.99805 4.22729C4.10578 4.32658 4.2519 4.38235 4.40426 4.38235C4.55661 4.38235 4.70273 4.32658 4.81046 4.22729C4.9182 4.12801 4.97872 3.99335 4.97872 3.85294V2.97059H13.0213V3.85294C13.0213 3.99335 13.0818 4.12801 13.1895 4.22729C13.2973 4.32658 13.4434 4.38235 13.5957 4.38235C13.7481 4.38235 13.8942 4.32658 14.002 4.22729C14.1097 4.12801 14.1702 3.99335 14.1702 3.85294V2.97059H16.6596C16.7104 2.97059 16.7591 2.98918 16.795 3.02228C16.8309 3.05537 16.8511 3.10026 16.8511 3.14706V6.14706H1.14894V3.14706C1.14894 3.10026 1.16911 3.05537 1.20502 3.02228C1.24093 2.98918 1.28964 2.97059 1.34043 2.97059ZM16.6596 17.4412H1.34043C1.28964 17.4412 1.24093 17.4226 1.20502 17.3895C1.16911 17.3564 1.14894 17.3115 1.14894 17.2647V7.20588H16.8511V17.2647C16.8511 17.3115 16.8309 17.3564 16.795 17.3895C16.7591 17.4226 16.7104 17.4412 16.6596 17.4412ZM7.2766 9.5V15.1471C7.2766 15.2875 7.21607 15.4221 7.10834 15.5214C7.0006 15.6207 6.85449 15.6765 6.70213 15.6765C6.54977 15.6765 6.40365 15.6207 6.29592 15.5214C6.18818 15.4221 6.12766 15.2875 6.12766 15.1471V10.3568L5.42681 10.6797C5.35929 10.7108 5.28579 10.7293 5.21052 10.7341C5.13525 10.739 5.05967 10.7302 4.9881 10.7081C4.91652 10.6861 4.85037 10.6513 4.7934 10.6057C4.73643 10.5601 4.68976 10.5046 4.65606 10.4424C4.62237 10.3801 4.6023 10.3124 4.59701 10.243C4.59171 10.1737 4.6013 10.104 4.62521 10.038C4.64913 9.97209 4.68691 9.91112 4.73639 9.85862C4.78588 9.80612 4.8461 9.76311 4.91362 9.73206L6.44553 9.02618C6.53313 8.98587 6.63045 8.96687 6.72826 8.97098C6.82606 8.97508 6.9211 9.00215 7.00437 9.04962C7.08763 9.09709 7.15634 9.16339 7.20399 9.24221C7.25163 9.32103 7.27663 9.40977 7.2766 9.5ZM12.9801 12.0809L10.9149 14.6176H12.8298C12.9821 14.6176 13.1283 14.6734 13.236 14.7727C13.3437 14.872 13.4043 15.0066 13.4043 15.1471C13.4043 15.2875 13.3437 15.4221 13.236 15.5214C13.1283 15.6207 12.9821 15.6765 12.8298 15.6765H9.76596C9.65927 15.6765 9.55469 15.6491 9.46394 15.5974C9.37319 15.5457 9.29985 15.4718 9.25214 15.3838C9.20443 15.2959 9.18423 15.1974 9.19381 15.0995C9.20339 15.0016 9.24237 14.9081 9.30638 14.8294L12.0638 11.4412C12.1432 11.345 12.2004 11.2349 12.2317 11.1175C12.263 11.0002 12.2678 10.8782 12.2459 10.7591C12.2239 10.64 12.1757 10.5263 12.1041 10.425C12.0325 10.3238 11.9391 10.2372 11.8297 10.1706C11.7203 10.104 11.5972 10.0588 11.4681 10.0378C11.339 10.0169 11.2066 10.0206 11.0791 10.0487C10.9516 10.0768 10.8317 10.1288 10.7269 10.2013C10.622 10.2739 10.5345 10.3656 10.4697 10.4706C10.4354 10.5364 10.3868 10.595 10.3268 10.6427C10.2667 10.6903 10.1967 10.726 10.121 10.7475C10.0453 10.7691 9.96557 10.7759 9.88686 10.7677C9.80815 10.7594 9.73213 10.7363 9.6636 10.6997C9.59506 10.663 9.53549 10.6138 9.48861 10.5549C9.44173 10.496 9.40857 10.4289 9.39121 10.3577C9.37385 10.2864 9.37266 10.2127 9.38772 10.141C9.40278 10.0693 9.43376 10.0013 9.47872 9.94118C9.6231 9.71276 9.81657 9.51393 10.0473 9.35686C10.278 9.1998 10.5411 9.08782 10.8204 9.02778C11.0998 8.96774 11.3895 8.96091 11.6718 9.00771C11.9541 9.05451 12.223 9.15396 12.4622 9.29995C12.7013 9.44594 12.9055 9.6354 13.0624 9.85671C13.2192 10.078 13.3254 10.3265 13.3743 10.587C13.4233 10.8475 13.414 11.1144 13.347 11.3714C13.28 11.6285 13.1568 11.8702 12.9849 12.0818L12.9801 12.0809Z" fill="white"/>
</svg>
