<svg width="20" height="21" viewBox="0 0 20 21" fill="none" xmlns="http://www.w3.org/2000/svg">
<path d="M2.02 20.5C1.46 20.5 0.983333 20.3252 0.59 19.9756C0.196667 19.6259 0 19.2026 0 18.7056V4.51667C0 4.02037 0.196667 3.59704 0.59 3.24667C0.983333 2.89704 1.46 2.72222 2.02 2.72222H7.895C7.78083 2.15481 7.93333 1.64259 8.3525 1.18556C8.77083 0.728519 9.32 0.5 10 0.5C10.6958 0.5 11.2533 0.728519 11.6725 1.18556C12.0917 1.64259 12.2363 2.15481 12.1063 2.72222H17.9813C18.5396 2.72222 19.0158 2.89704 19.41 3.24667C19.8033 3.5963 20 4.02 20 4.51778V18.7056C20 19.2019 19.8033 19.6252 19.41 19.9756C19.0167 20.3252 18.5404 20.5 17.9813 20.5H2.02ZM2.02 19.3889H17.9813C18.1729 19.3889 18.3492 19.3178 18.51 19.1756C18.6708 19.0333 18.7508 18.8763 18.75 18.7044V4.51778C18.75 4.34667 18.67 4.18963 18.51 4.04667C18.35 3.9037 18.1733 3.83259 17.98 3.83333H2.02C1.8275 3.83333 1.65083 3.90444 1.49 4.04667C1.32917 4.18889 1.24917 4.34593 1.25 4.51778V18.7056C1.25 18.8759 1.33 19.0326 1.49 19.1756C1.65 19.3185 1.82625 19.3896 2.01875 19.3889M4.375 16.3556H11.875V15.2444H4.375V16.3556ZM4.375 12.1667H15.625V11.0556H4.375V12.1667ZM4.375 7.97778H15.625V6.86667H4.375V7.97778ZM10 3.21444C10.2708 3.21444 10.495 3.13593 10.6725 2.97889C10.85 2.82185 10.9383 2.62259 10.9375 2.38111C10.9367 2.13963 10.8479 1.94074 10.6712 1.78444C10.4946 1.62815 10.2708 1.54889 10 1.54667C9.72917 1.54444 9.50542 1.62333 9.32875 1.78333C9.15208 1.94333 9.06333 2.14222 9.0625 2.38C9.06167 2.61778 9.15042 2.81704 9.32875 2.97778C9.50708 3.13852 9.73083 3.21815 10 3.21444Z" fill="black"/>
</svg>
