<svg width="20" height="21" viewBox="0 0 20 21" fill="none" xmlns="http://www.w3.org/2000/svg">
<path d="M18.5106 2.06863H15.7447V1.08824C15.7447 0.932226 15.6774 0.782606 15.5577 0.67229C15.438 0.561975 15.2757 0.5 15.1064 0.5C14.9371 0.5 14.7747 0.561975 14.655 0.67229C14.5353 0.782606 14.4681 0.932226 14.4681 1.08824V2.06863H5.53192V1.08824C5.53192 0.932226 5.46467 0.782606 5.34496 0.67229C5.22526 0.561975 5.0629 0.5 4.89362 0.5C4.72433 0.5 4.56198 0.561975 4.44227 0.67229C4.32257 0.782606 4.25532 0.932226 4.25532 1.08824V2.06863H1.48936C1.09436 2.06863 0.715534 2.21324 0.436224 2.47064C0.156915 2.72804 0 3.07715 0 3.44118V19.1275C0 19.4915 0.156915 19.8406 0.436224 20.098C0.715534 20.3554 1.09436 20.5 1.48936 20.5H18.5106C18.9056 20.5 19.2845 20.3554 19.5638 20.098C19.8431 19.8406 20 19.4915 20 19.1275V3.44118C20 3.07715 19.8431 2.72804 19.5638 2.47064C19.2845 2.21324 18.9056 2.06863 18.5106 2.06863ZM1.48936 3.2451H4.25532V4.22549C4.25532 4.3815 4.32257 4.53112 4.44227 4.64144C4.56198 4.75175 4.72433 4.81373 4.89362 4.81373C5.0629 4.81373 5.22526 4.75175 5.34496 4.64144C5.46467 4.53112 5.53192 4.3815 5.53192 4.22549V3.2451H14.4681V4.22549C14.4681 4.3815 14.5353 4.53112 14.655 4.64144C14.7747 4.75175 14.9371 4.81373 15.1064 4.81373C15.2757 4.81373 15.438 4.75175 15.5577 4.64144C15.6774 4.53112 15.7447 4.3815 15.7447 4.22549V3.2451H18.5106C18.5671 3.2451 18.6212 3.26576 18.6611 3.30253C18.701 3.3393 18.7234 3.38917 18.7234 3.44118V6.77451H1.2766V3.44118C1.2766 3.38917 1.29901 3.3393 1.33891 3.30253C1.37881 3.26576 1.43293 3.2451 1.48936 3.2451ZM18.5106 19.3235H1.48936C1.43293 19.3235 1.37881 19.3029 1.33891 19.2661C1.29901 19.2293 1.2766 19.1795 1.2766 19.1275V7.95098H18.7234V19.1275C18.7234 19.1795 18.701 19.2293 18.6611 19.2661C18.6212 19.3029 18.5671 19.3235 18.5106 19.3235ZM8.08511 10.5V16.7745C8.08511 16.9305 8.01786 17.0801 7.89815 17.1905C7.77845 17.3008 7.6161 17.3627 7.44681 17.3627C7.27752 17.3627 7.11517 17.3008 6.99546 17.1905C6.87576 17.0801 6.80851 16.9305 6.80851 16.7745V11.452L6.02979 11.8108C5.95477 11.8453 5.87311 11.8658 5.78947 11.8713C5.70583 11.8767 5.62185 11.8669 5.54233 11.8424C5.46281 11.8179 5.3893 11.7792 5.326 11.7285C5.2627 11.6779 5.21084 11.6162 5.1734 11.5471C5.13596 11.4779 5.11367 11.4027 5.10778 11.3256C5.1019 11.2485 5.11255 11.1711 5.13913 11.0978C5.1657 11.0245 5.20768 10.9568 5.26266 10.8985C5.31764 10.8401 5.38455 10.7923 5.45957 10.7578L7.1617 9.97353C7.25903 9.92875 7.36717 9.90764 7.47584 9.9122C7.58451 9.91676 7.69012 9.94684 7.78263 9.99958C7.87514 10.0523 7.95149 10.126 8.00443 10.2136C8.05737 10.3011 8.08514 10.3997 8.08511 10.5ZM14.4223 13.3676L12.1277 16.1863H14.2553C14.4246 16.1863 14.587 16.2483 14.7067 16.3586C14.8264 16.4689 14.8936 16.6185 14.8936 16.7745C14.8936 16.9305 14.8264 17.0801 14.7067 17.1905C14.587 17.3008 14.4246 17.3627 14.2553 17.3627H10.8511C10.7325 17.3627 10.6163 17.3323 10.5155 17.2749C10.4147 17.2175 10.3332 17.1353 10.2802 17.0376C10.2271 16.9399 10.2047 16.8305 10.2153 16.7217C10.226 16.6129 10.2693 16.509 10.3404 16.4216L13.4043 12.6569C13.4925 12.55 13.556 12.4276 13.5908 12.2973C13.6255 12.1669 13.6309 12.0313 13.6065 11.899C13.5821 11.7666 13.5285 11.6403 13.449 11.5278C13.3694 11.4153 13.2657 11.3191 13.1441 11.2451C13.0226 11.1711 12.8858 11.1209 12.7424 11.0976C12.5989 11.0743 12.4518 11.0784 12.3101 11.1097C12.1684 11.1409 12.0352 11.1986 11.9187 11.2793C11.8023 11.3599 11.705 11.4617 11.633 11.5784C11.5949 11.6516 11.5408 11.7167 11.4742 11.7696C11.4075 11.8226 11.3297 11.8623 11.2455 11.8862C11.1614 11.9101 11.0729 11.9177 10.9854 11.9085C10.8979 11.8994 10.8135 11.8736 10.7373 11.8329C10.6612 11.7923 10.595 11.7375 10.5429 11.6721C10.4908 11.6067 10.454 11.5321 10.4347 11.453C10.4154 11.3738 10.4141 11.2918 10.4308 11.2122C10.4475 11.1326 10.482 11.057 10.5319 10.9902C10.6923 10.7364 10.9073 10.5155 11.1636 10.341C11.42 10.1664 11.7123 10.042 12.0227 9.97531C12.3331 9.9086 12.655 9.90101 12.9686 9.95301C13.2823 10.005 13.5811 10.1155 13.8468 10.2777C14.1125 10.4399 14.3395 10.6504 14.5138 10.8963C14.688 11.1422 14.806 11.4184 14.8604 11.7078C14.9148 11.9972 14.9044 12.2938 14.83 12.5794C14.7556 12.8649 14.6187 13.1335 14.4277 13.3686L14.4223 13.3676Z" fill="black"/>
</svg>
