<svg width="20" height="21" viewBox="0 0 20 21" fill="none" xmlns="http://www.w3.org/2000/svg">
<path d="M1 18.8965V3.51232C1 2.97862 1.21071 2.46678 1.58579 2.0894C1.96086 1.71201 2.46957 1.5 3 1.5H17C17.5304 1.5 18.0391 1.71201 18.4142 2.0894C18.7893 2.46678 19 2.97862 19 3.51232V13.5739C19 14.1076 18.7893 14.6195 18.4142 14.9969C18.0391 15.3742 17.5304 15.5863 17 15.5863H5.961C5.66123 15.5863 5.36531 15.6541 5.09511 15.7847C4.82491 15.9154 4.58735 16.1054 4.4 16.3409L2.069 19.2728C1.99143 19.3706 1.88556 19.4418 1.76604 19.4764C1.64652 19.5111 1.51926 19.5075 1.40186 19.4661C1.28446 19.4248 1.18273 19.3478 1.11073 19.2457C1.03874 19.1437 1.00005 19.0217 1 18.8965Z" stroke="white" stroke-width="1.5"/>
</svg>
