<svg width="22" height="23" viewBox="0 0 22 23" fill="none" xmlns="http://www.w3.org/2000/svg">
<path d="M1 20.8295V3.73591C1 3.14291 1.23413 2.5742 1.65087 2.15488C2.06762 1.73557 2.63285 1.5 3.22222 1.5H18.7778C19.3671 1.5 19.9324 1.73557 20.3491 2.15488C20.7659 2.5742 21 3.14291 21 3.73591V14.9155C21 15.5085 20.7659 16.0772 20.3491 16.4965C19.9324 16.9158 19.3671 17.1514 18.7778 17.1514H6.51222C6.17915 17.1514 5.85034 17.2268 5.55012 17.3719C5.2499 17.5171 4.98595 17.7283 4.77778 17.9899L2.18778 21.2476C2.10159 21.3563 1.98395 21.4353 1.85115 21.4738C1.71836 21.5123 1.57695 21.5083 1.44651 21.4624C1.31607 21.4165 1.20303 21.3309 1.12304 21.2175C1.04305 21.1041 1.00005 20.9685 1 20.8295Z" stroke="black" stroke-width="1.5"/>
</svg>
