<svg width="19" height="20" viewBox="0 0 19 20" fill="none" xmlns="http://www.w3.org/2000/svg">
<path d="M7.14615 1.2489C7.29556 0.879613 7.55185 0.563358 7.88217 0.340674C8.21249 0.11799 8.60178 -0.000976563 9.00015 -0.000976562C9.39852 -0.000976562 9.78781 0.11799 10.1181 0.340674C10.4484 0.563358 10.7047 0.879613 10.8541 1.2489C12.3329 1.65558 13.6373 2.53646 14.5669 3.75624C15.4966 4.97601 16.0001 6.46724 16.0002 8.0009V12.6979L17.8322 15.4459C17.9326 15.5965 17.9903 15.7716 17.9991 15.9524C18.0079 16.1332 17.9674 16.313 17.882 16.4727C17.7966 16.6323 17.6695 16.7657 17.5142 16.8588C17.3588 16.9518 17.1812 17.0009 17.0002 17.0009H12.4651C12.3447 17.834 11.9282 18.5958 11.2919 19.1468C10.6555 19.6978 9.84191 20.0011 9.00015 20.0011C8.15839 20.0011 7.34481 19.6978 6.70845 19.1468C6.07209 18.5958 5.65555 17.834 5.53515 17.0009H1.00015C0.819107 17.0009 0.641453 16.9518 0.486141 16.8588C0.330829 16.7657 0.203685 16.6323 0.118276 16.4727C0.032866 16.313 -0.00760575 16.1332 0.00117785 15.9524C0.00996145 15.7716 0.067671 15.5965 0.16815 15.4459L2.00015 12.6979V8.0009C2.00015 4.7769 4.18015 2.0609 7.14615 1.2489ZM7.58615 17.0009C7.68943 17.2935 7.88093 17.547 8.13427 17.7262C8.38761 17.9055 8.69031 18.0017 9.00065 18.0017C9.31099 18.0017 9.61369 17.9055 9.86703 17.7262C10.1204 17.547 10.3119 17.2935 10.4151 17.0009H7.58615ZM9.00015 3.0009C7.67407 3.0009 6.4023 3.52768 5.46462 4.46537C4.52693 5.40305 4.00015 6.67482 4.00015 8.0009V13.0009C4.00019 13.1984 3.94174 13.3916 3.83215 13.5559L2.86915 15.0009H15.1301L14.1671 13.5559C14.0579 13.3914 13.9998 13.1983 14.0001 13.0009V8.0009C14.0001 6.67482 13.4734 5.40305 12.5357 4.46537C11.598 3.52768 10.3262 3.0009 9.00015 3.0009Z" fill="black"/>
<circle cx="14.5" cy="14.499" r="3.75" fill="#FF0000" stroke="#F2F2F2" stroke-width="1.5"/>
</svg>
