<svg width="22" height="23" viewBox="0 0 22 23" fill="none" xmlns="http://www.w3.org/2000/svg">
<path d="M1 19H0.25H1ZM6 14V13.25V14ZM16 14V13.25V14ZM1.75 19C1.75 17.8728 2.19777 16.7918 2.9948 15.9948L1.93414 14.9341C0.855802 16.0125 0.25 17.475 0.25 19H1.75ZM2.9948 15.9948C3.79183 15.1978 4.87283 14.75 6 14.75V13.25C4.47501 13.25 3.01247 13.8558 1.93414 14.9341L2.9948 15.9948ZM6 14.75H16V13.25H6V14.75ZM16 14.75C17.1272 14.75 18.2082 15.1978 19.0052 15.9948L20.0659 14.9341C18.9875 13.8558 17.525 13.25 16 13.25V14.75ZM19.0052 15.9948C19.8022 16.7918 20.25 17.8728 20.25 19H21.75C21.75 17.475 21.1442 16.0125 20.0659 14.9341L19.0052 15.9948ZM20.25 19C20.25 19.4641 20.0656 19.9092 19.7374 20.2374L20.7981 21.2981C21.4076 20.6886 21.75 19.862 21.75 19H20.25ZM19.7374 20.2374C19.4092 20.5656 18.9641 20.75 18.5 20.75V22.25C19.362 22.25 20.1886 21.9076 20.7981 21.2981L19.7374 20.2374ZM18.5 20.75H3.5V22.25H18.5V20.75ZM3.5 20.75C3.03587 20.75 2.59075 20.5656 2.26256 20.2374L1.2019 21.2981C1.8114 21.9076 2.63805 22.25 3.5 22.25V20.75ZM2.26256 20.2374C1.93437 19.9092 1.75 19.4641 1.75 19H0.25C0.25 19.862 0.59241 20.6886 1.2019 21.2981L2.26256 20.2374ZM14 5.25C14 6.90685 12.6569 8.25 11 8.25V9.75C13.4853 9.75 15.5 7.73528 15.5 5.25H14ZM11 8.25C9.34315 8.25 8 6.90685 8 5.25H6.5C6.5 7.73528 8.51472 9.75 11 9.75V8.25ZM8 5.25C8 3.59315 9.34315 2.25 11 2.25V0.75C8.51472 0.75 6.5 2.76472 6.5 5.25H8ZM11 2.25C12.6569 2.25 14 3.59315 14 5.25H15.5C15.5 2.76472 13.4853 0.75 11 0.75V2.25Z" fill="black"/>
</svg>
