<svg width="17" height="13" viewBox="0 0 17 13" fill="none" xmlns="http://www.w3.org/2000/svg">
<path d="M2.47883 3.7626C2.47897 3.11387 2.65287 2.47619 2.98368 1.91145C3.31448 1.3467 3.79094 0.874066 4.36682 0.539409C4.9427 0.204751 5.59844 0.0194365 6.27042 0.00144745C6.94239 -0.0165416 7.60777 0.133406 8.20199 0.436739C8.79621 0.740073 9.29909 1.18649 9.66183 1.73267C10.0246 2.27885 10.2348 2.90624 10.2722 3.55397C10.3096 4.20169 10.1729 4.84775 9.87532 5.42944C9.57772 6.01114 9.12936 6.50872 8.57375 6.87389C9.77026 7.2974 10.8081 8.05677 11.5536 9.05427C12.2991 10.0518 12.7183 11.2417 12.7571 12.4711C12.7554 12.6036 12.7008 12.7304 12.6045 12.825C12.5083 12.9195 12.3779 12.9746 12.2406 12.9785C12.1033 12.9825 11.9697 12.9351 11.8678 12.8463C11.7658 12.7575 11.7034 12.6341 11.6935 12.5019C11.6513 11.1686 11.0728 9.90353 10.0806 8.97483C9.08838 8.04612 7.76044 7.52674 6.3782 7.52674C4.99596 7.52674 3.66803 8.04612 2.67582 8.97483C1.68361 9.90353 1.10509 11.1686 1.06287 12.5019C1.05577 12.6359 0.994572 12.7619 0.892386 12.8528C0.790201 12.9438 0.655154 12.9926 0.516179 12.9886C0.377203 12.9847 0.245352 12.9284 0.148872 12.8318C0.0523926 12.7352 -0.00104222 12.6059 1.54059e-05 12.4718C0.0386946 11.2423 0.457778 10.0522 1.20332 9.05455C1.94886 8.05692 2.98674 7.29744 4.18336 6.87389C3.65802 6.52861 3.22809 6.06464 2.93101 5.52238C2.63392 4.98011 2.47869 4.37599 2.47883 3.7626ZM6.37855 1.02559C5.62636 1.02559 4.90497 1.31396 4.37308 1.82724C3.8412 2.34053 3.54239 3.0367 3.54239 3.7626C3.54239 4.4885 3.8412 5.18467 4.37308 5.69796C4.90497 6.21125 5.62636 6.49961 6.37855 6.49961C7.13075 6.49961 7.85214 6.21125 8.38403 5.69796C8.91591 5.18467 9.21472 4.4885 9.21472 3.7626C9.21472 3.0367 8.91591 2.34053 8.38403 1.82724C7.85214 1.31396 7.13075 1.02559 6.37855 1.02559ZM12.2565 3.7626C12.152 3.7626 12.0495 3.76944 11.9488 3.78313C11.8785 3.79527 11.8064 3.79363 11.7368 3.7783C11.6671 3.76297 11.6014 3.73426 11.5435 3.69389C11.4857 3.65352 11.4368 3.60231 11.3999 3.54332C11.363 3.48434 11.3387 3.41877 11.3286 3.35055C11.3185 3.28233 11.3228 3.21284 11.3411 3.14623C11.3594 3.07962 11.3915 3.01726 11.4353 2.96287C11.4792 2.90847 11.5339 2.86315 11.5963 2.82962C11.6587 2.79609 11.7275 2.77503 11.7985 2.7677C12.5037 2.66931 13.2227 2.79999 13.8425 3.13919C14.4623 3.4784 14.9477 4.00686 15.2222 4.6414C15.4966 5.27595 15.5447 5.98056 15.3587 6.64435C15.1728 7.30814 14.7634 7.89342 14.195 8.30808C15.0306 8.66913 15.74 9.25578 16.2377 9.99725C16.7354 10.7387 17.0002 11.6034 17 12.4868C17 12.6229 16.944 12.7534 16.8442 12.8497C16.7445 12.9459 16.6093 13 16.4682 13C16.3272 13 16.1919 12.9459 16.0922 12.8497C15.9925 12.7534 15.9364 12.6229 15.9364 12.4868C15.9367 11.7232 15.6819 10.9799 15.2098 10.367C14.7378 9.7542 14.0736 9.30452 13.3158 9.08471L12.9372 8.97523V7.82842L13.2279 7.68542C13.6588 7.47476 14.0036 7.13011 14.2066 6.7071C14.4096 6.28409 14.4589 5.8074 14.3466 5.354C14.2344 4.9006 13.967 4.49695 13.5878 4.2082C13.2086 3.91946 12.7396 3.76248 12.2565 3.7626Z" fill="#A169E9"/>
</svg>
