<svg width="20" height="21" viewBox="0 0 20 21" fill="none" xmlns="http://www.w3.org/2000/svg">
<g clip-path="url(#clip0_2547_10615)">
<path fill-rule="evenodd" clip-rule="evenodd" d="M3 0.799263C3 0.587286 3.08421 0.38399 3.2341 0.234099C3.38399 0.0842078 3.58729 0 3.79926 0H16.5875C16.7995 4.4671e-09 17.0028 0.0842078 17.1526 0.234099C17.3025 0.38399 17.3867 0.587286 17.3867 0.799263C17.3867 1.01124 17.3025 1.21454 17.1526 1.36443C17.0028 1.51432 16.7995 1.59853 16.5875 1.59853H11.3454C11.4242 1.67384 11.501 1.75092 11.5756 1.82978C12.3694 2.68427 12.8849 3.75981 13.0537 4.91387H16.5875C16.7995 4.91387 17.0028 4.99808 17.1526 5.14797C17.3025 5.29786 17.3867 5.50116 17.3867 5.71314C17.3867 5.92511 17.3025 6.12841 17.1526 6.2783C17.0028 6.42819 16.7995 6.5124 16.5875 6.5124H13.0878C12.9556 7.73261 12.4569 8.92511 11.5756 9.86291C10.5237 10.984 8.97529 11.6927 6.99632 11.6927H5.85603L13.3968 18.593C13.4784 18.6627 13.5451 18.748 13.5929 18.844C13.6408 18.94 13.6689 19.0446 13.6755 19.1517C13.682 19.2587 13.667 19.366 13.6313 19.4671C13.5955 19.5683 13.5398 19.6612 13.4674 19.7403C13.395 19.8194 13.3074 19.8832 13.2098 19.9277C13.1123 19.9723 13.0067 19.9968 12.8995 19.9997C12.7923 20.0026 12.6856 19.9839 12.5857 19.9448C12.4859 19.9056 12.395 19.8467 12.3183 19.7716L3.26003 11.4828C3.1417 11.3739 3.05895 11.2319 3.02258 11.0753C2.9862 10.9187 2.99789 10.7548 3.05613 10.605C3.11436 10.4551 3.21643 10.3263 3.34901 10.2354C3.48158 10.1444 3.6385 10.0956 3.79926 10.0952H6.99632C8.57033 10.0952 9.68504 9.54321 10.4097 8.77058C10.9886 8.14544 11.3613 7.3575 11.4775 6.51347H3.79926C3.58729 6.51347 3.38399 6.42926 3.2341 6.27937C3.08421 6.12948 3 5.92618 3 5.7142C3 5.50222 3.08421 5.29893 3.2341 5.14904C3.38399 4.99915 3.58729 4.91494 3.79926 4.91494H11.4296C11.2779 4.17064 10.9252 3.48214 10.4097 2.92424C9.68504 2.15268 8.57033 1.59853 6.99632 1.59853H3.79926C3.58729 1.59853 3.38399 1.51432 3.2341 1.36443C3.08421 1.21454 3 1.01124 3 0.799263Z" fill="black"/>
</g>
<defs>
<clipPath id="clip0_2547_10615">
<rect width="20" height="20" fill="white" transform="translate(0 0.5)"/>
</clipPath>
</defs>
</svg>
