<svg width="13" height="17" viewBox="0 0 13 17" fill="none" xmlns="http://www.w3.org/2000/svg">
<path fill-rule="evenodd" clip-rule="evenodd" d="M0 0.679374C0 0.499193 0.076091 0.326391 0.211534 0.198984C0.346977 0.0715766 0.530677 0 0.722222 0H12.2778C12.4693 3.79703e-09 12.653 0.0715766 12.7885 0.198984C12.9239 0.326391 13 0.499193 13 0.679374C13 0.859555 12.9239 1.03236 12.7885 1.15976C12.653 1.28717 12.4693 1.35875 12.2778 1.35875H7.54096C7.61222 1.42276 7.68156 1.48828 7.74896 1.55531C8.4663 2.28163 8.93208 3.19584 9.08459 4.17679H12.2778C12.4693 4.17679 12.653 4.24837 12.7885 4.37578C12.9239 4.50318 13 4.67598 13 4.85617C13 5.03635 12.9239 5.20915 12.7885 5.33656C12.653 5.46396 12.4693 5.53554 12.2778 5.53554H9.11541C8.996 6.57272 8.54533 7.58634 7.74896 8.38348C6.79852 9.33641 5.39933 9.93879 3.61111 9.93879H2.58074L9.39467 15.8041C9.46836 15.8633 9.52863 15.9358 9.57189 16.0174C9.61514 16.099 9.6405 16.1879 9.64645 16.2789C9.6524 16.3699 9.63882 16.4611 9.60651 16.5471C9.57421 16.633 9.52384 16.712 9.45842 16.7792C9.39299 16.8465 9.31385 16.9007 9.22569 16.9386C9.13754 16.9765 9.04218 16.9973 8.9453 16.9997C8.84841 17.0022 8.75199 16.9864 8.66177 16.9531C8.57155 16.9197 8.48938 16.8697 8.42015 16.8059L0.234963 9.76034C0.128045 9.66783 0.0532682 9.54714 0.0203994 9.41403C-0.0124695 9.28093 -0.00190271 9.14159 0.0507193 9.01422C0.103341 8.88685 0.195573 8.77737 0.315368 8.70008C0.435163 8.62278 0.576954 8.58126 0.722222 8.58095H3.61111C5.03341 8.58095 6.04067 8.11172 6.69548 7.455C7.21856 6.92363 7.55539 6.25388 7.66037 5.53645H0.722222C0.530677 5.53645 0.346977 5.46487 0.211534 5.33746C0.076091 5.21005 0 5.03725 0 4.85707C0 4.67689 0.076091 4.50409 0.211534 4.37668C0.346977 4.24927 0.530677 4.1777 0.722222 4.1777H7.61704C7.48 3.54505 7.16127 2.95982 6.69548 2.4856C6.04067 1.82978 5.03341 1.35875 3.61111 1.35875H0.722222C0.530677 1.35875 0.346977 1.28717 0.211534 1.15976C0.076091 1.03236 0 0.859555 0 0.679374Z" fill="white"/>
</svg>
