<svg width="20" height="21" viewBox="0 0 20 21" fill="none" xmlns="http://www.w3.org/2000/svg">
<path d="M9.59001 12.5507C10.7227 12.5507 11.6409 11.6325 11.6409 10.4998C11.6409 9.36709 10.7227 8.44885 9.59001 8.44885C8.4573 8.44885 7.53906 9.36709 7.53906 10.4998C7.53906 11.6325 8.4573 12.5507 9.59001 12.5507Z" stroke="black" stroke-width="1.5"/>
<path d="M2.82086 4.22413L3.20541 3.55757C3.05443 3.47047 2.87834 3.43724 2.70601 3.46333C2.53367 3.48941 2.3753 3.57326 2.25685 3.70114L2.82086 4.22413ZM0.770945 7.77636L0.0356816 7.54871C-0.0157536 7.71529 -0.00906185 7.89441 0.05466 8.0567C0.118382 8.21899 0.235352 8.35481 0.386393 8.44189L0.770945 7.77636ZM0.768894 13.2226L0.384342 12.5561C0.233269 12.6434 0.116364 12.7794 0.0528209 12.9419C-0.0107226 13.1044 -0.0171281 13.2837 0.034656 13.4503L0.768894 13.2226ZM2.81984 16.7749L2.25583 17.2979C2.37427 17.4257 2.53264 17.5096 2.70498 17.5357C2.87732 17.5618 3.05341 17.5285 3.20439 17.4414L2.81984 16.7749ZM7.53701 19.4975H6.7679C6.7679 19.8564 7.01709 20.1671 7.36678 20.2471L7.53701 19.4975ZM11.6399 19.4995L11.8112 20.2502C11.9812 20.2114 12.1329 20.1159 12.2415 19.9796C12.3502 19.8432 12.4092 19.6739 12.409 19.4995H11.6399ZM16.3581 16.7759L15.9736 17.4425C16.1245 17.5296 16.3006 17.5628 16.473 17.5367C16.6453 17.5106 16.8037 17.4268 16.9221 17.2989L16.3581 16.7759ZM18.407 13.2216L19.1423 13.4493C19.1937 13.2827 19.187 13.1036 19.1233 12.9413C19.0596 12.779 18.9426 12.6432 18.7916 12.5561L18.407 13.2216ZM18.4091 7.77534L18.7936 8.44189C18.9447 8.35461 19.0616 8.21855 19.1251 8.05606C19.1887 7.89356 19.1951 7.71429 19.1433 7.54768L18.4091 7.77534ZM16.3581 4.22208L16.9221 3.70011C16.8037 3.57224 16.6453 3.48839 16.473 3.4623C16.3006 3.43622 16.1245 3.46945 15.9736 3.55655L16.3581 4.22208ZM11.6409 1.5015H12.41C12.41 1.32731 12.3508 1.1583 12.2422 1.02212C12.1336 0.885945 11.982 0.790665 11.8122 0.75188L11.6409 1.5015ZM7.53906 1.49945L7.3678 0.748804C7.19782 0.787628 7.04607 0.883059 6.93745 1.01945C6.82882 1.15584 6.76976 1.32509 6.76995 1.49945H7.53906ZM1.50621 8.00401C1.87944 6.7908 2.52121 5.67725 3.38385 4.74609L2.25583 3.70011C1.23645 4.80042 0.477978 6.11618 0.036707 7.54973L1.50621 8.00401ZM2.26301 14.7301C1.94628 14.1825 1.69175 13.6012 1.50416 12.997L0.0356816 13.4513C0.256863 14.1652 0.557139 14.8521 0.930918 15.4992L2.26301 14.7301ZM3.38487 16.2539C2.95531 15.7894 2.57902 15.2782 2.26301 14.7301L0.930918 15.4992C1.30413 16.1466 1.74852 16.7492 2.25583 17.2979L3.38487 16.2539ZM11.4697 18.751C10.2323 19.0326 8.94738 19.0319 7.71031 18.7489L7.3678 20.2481C8.83024 20.5829 10.3493 20.584 11.8122 20.2512L11.4697 18.751ZM17.6738 12.996C17.3005 14.2092 16.6588 15.3228 15.7962 16.2539L16.9242 17.2999C17.9436 16.1996 18.702 14.8838 19.1433 13.4503L17.6738 12.996ZM16.917 6.26994C17.24 6.83088 17.4913 7.41129 17.6758 8.00299L19.1443 7.54871C18.9232 6.83485 18.6229 6.14797 18.2491 5.50084L16.917 6.26994ZM15.7941 4.74609C16.2145 5.20038 16.5919 5.71003 16.916 6.26994L18.2491 5.50084C17.8756 4.85339 17.4298 4.24872 16.9221 3.70011L15.7941 4.74609ZM7.70929 2.24907C8.94667 1.96745 10.2316 1.96815 11.4687 2.25112L11.8122 0.75188C10.3498 0.417082 8.82967 0.41603 7.36678 0.748804L7.70929 2.24907ZM8.30713 3.39555V1.49842H6.76893V3.39555H8.30713ZM4.84719 4.50511L3.20541 3.55757L2.43631 4.88966L4.07706 5.83719L4.84719 4.50511ZM2.02715 11.6106L0.385367 12.5581L1.15447 13.8902L2.79625 12.9427L2.02715 11.6106ZM2.79625 8.05734L1.1555 7.11083L0.386393 8.44394L2.02715 9.39045L2.79625 8.05734ZM8.30816 19.4985V17.6045H6.76995V19.4985H8.30816ZM4.07809 15.1628L2.43631 16.1104L3.20541 17.4435L4.84617 16.4949L4.07809 15.1628ZM16.7437 16.1104L15.1019 15.1628L14.3328 16.4949L15.9736 17.4425L16.7437 16.1104ZM12.41 19.5006V17.6045H10.8718V19.5016L12.41 19.5006ZM18.0255 7.1098L16.3837 8.05734L17.1529 9.39045L18.7936 8.44189L18.0255 7.1098ZM18.7926 12.5571L17.1529 11.6096L16.3837 12.9427L18.0245 13.8892L18.7926 12.5571ZM12.41 3.39555V1.5015H10.8718V3.39555H12.41ZM15.9746 3.55757L14.3328 4.50511L15.1019 5.83822L16.7437 4.88966L15.9746 3.55757ZM10.8718 3.39555C10.8718 5.56647 13.2222 6.92419 15.1019 5.83822L14.3328 4.50511C14.138 4.61759 13.917 4.67682 13.692 4.67684C13.4671 4.67686 13.2461 4.61768 13.0512 4.50524C12.8564 4.3928 12.6945 4.23106 12.582 4.03627C12.4694 3.84149 12.4101 3.62051 12.41 3.39555H10.8718ZM16.3837 8.05734C14.5041 9.14331 14.5041 11.8567 16.3837 12.9427L17.1529 11.6096C16.958 11.4971 16.7962 11.3352 16.6837 11.1404C16.5712 10.9455 16.512 10.7245 16.512 10.4995C16.512 10.2745 16.5712 10.0535 16.6837 9.85861C16.7962 9.66375 16.958 9.50194 17.1529 9.38943L16.3837 8.05734ZM15.1019 15.1628C13.2222 14.0769 10.8718 15.4336 10.8718 17.6045H12.41C12.4101 17.3795 12.4694 17.1585 12.582 16.9638C12.6945 16.769 12.8564 16.6072 13.0512 16.4948C13.2461 16.3823 13.4671 16.3232 13.692 16.3232C13.917 16.3232 14.138 16.3824 14.3328 16.4949L15.1019 15.1628ZM8.30816 17.6045C8.30816 15.4336 5.95778 14.0769 4.07809 15.1628L4.84617 16.4949C5.04099 16.3824 5.26301 16.3232 5.48798 16.3232C5.71294 16.3232 5.93395 16.3823 6.1288 16.4948C6.32365 16.6072 6.48547 16.769 6.59802 16.9638C6.71056 17.1585 6.76986 17.3795 6.76995 17.6045H8.30816ZM2.79625 12.9427C4.67594 11.8567 4.67594 9.14331 2.79625 8.05734L2.02715 9.39045C2.222 9.50296 2.3838 9.66478 2.49629 9.85963C2.60879 10.0545 2.66801 10.2755 2.66801 10.5005C2.66801 10.7255 2.60879 10.9466 2.49629 11.1414C2.3838 11.3363 2.222 11.4981 2.02715 11.6106L2.79625 12.9427ZM6.76995 3.39555C6.76986 3.62051 6.71056 3.84149 6.59802 4.03627C6.48547 4.23106 6.32365 4.3928 6.1288 4.50524C5.93395 4.61768 5.71294 4.67686 5.48798 4.67684C5.26301 4.67682 5.04202 4.61759 4.84719 4.50511L4.07809 5.83822C5.95778 6.92317 8.30816 5.56647 8.30816 3.39555H6.76995Z" fill="black"/>
</svg>
