<svg width="22" height="25" viewBox="0 0 22 25" fill="none" xmlns="http://www.w3.org/2000/svg">
<path d="M17.8713 23.9739C16.522 25.2819 15.0488 25.0754 13.6306 24.4558C12.1298 23.8224 10.753 23.7949 9.1696 24.4558C7.18693 25.3094 6.14053 25.0616 4.95644 23.9739C-1.7626 17.0483 -0.771265 6.50163 6.85649 6.11611C8.71524 6.21249 10.0095 7.13498 11.0972 7.2176C12.7219 6.88715 14.2777 5.93712 16.0126 6.06104C18.0916 6.22626 19.6612 7.05237 20.6938 8.53937C16.3981 11.1141 17.4169 16.7729 21.3547 18.3563C20.5699 20.4216 19.5511 22.4731 17.8575 23.9876L17.8713 23.9739ZM10.9595 6.0335C10.753 2.96312 13.2451 0.429718 16.1089 0.181885C16.5082 3.73416 12.8871 6.37772 10.9595 6.0335Z" fill="white"/>
</svg>
