<svg width="1440" height="1285" viewBox="0 0 1440 1285" fill="none" xmlns="http://www.w3.org/2000/svg">
<g opacity="0.14">
<circle cx="67" cy="121" r="249" stroke="#0BDBB6" stroke-opacity="0.7" stroke-width="2"/>
<circle cx="67" cy="121" r="221" stroke="#0BDBB6" stroke-opacity="0.7" stroke-width="2"/>
<circle cx="67" cy="121" r="187" stroke="#0BDBB6" stroke-opacity="0.7" stroke-width="2"/>
<circle cx="67" cy="121" r="150" stroke="#0BDBB6" stroke-opacity="0.7" stroke-width="2"/>
<circle cx="67" cy="121" r="117" stroke="#0BDBB6" stroke-opacity="0.7" stroke-width="2"/>
<circle cx="67" cy="121" r="89" stroke="#0BDBB6" stroke-opacity="0.7" stroke-width="2"/>
<circle cx="67" cy="121" r="62" stroke="#0BDBB6" stroke-opacity="0.7" stroke-width="2"/>
</g>
<g opacity="0.14">
<circle cx="1445" cy="407" r="249" stroke="#0BDBB6" stroke-opacity="0.7" stroke-width="2"/>
<circle cx="1445" cy="407" r="221" stroke="#0BDBB6" stroke-opacity="0.7" stroke-width="2"/>
<circle cx="1445" cy="407" r="187" stroke="#0BDBB6" stroke-opacity="0.7" stroke-width="2"/>
<circle cx="1445" cy="407" r="150" stroke="#0BDBB6" stroke-opacity="0.7" stroke-width="2"/>
<circle cx="1445" cy="407" r="117" stroke="#0BDBB6" stroke-opacity="0.7" stroke-width="2"/>
<circle cx="1445" cy="407" r="89" stroke="#0BDBB6" stroke-opacity="0.7" stroke-width="2"/>
<circle cx="1445" cy="407" r="62" stroke="#0BDBB6" stroke-opacity="0.7" stroke-width="2"/>
</g>
<g opacity="0.14">
<circle cx="333" cy="1035" r="249" stroke="#0BDBB6" stroke-opacity="0.7" stroke-width="2"/>
<circle cx="333" cy="1035" r="221" stroke="#0BDBB6" stroke-opacity="0.7" stroke-width="2"/>
<circle cx="333" cy="1035" r="187" stroke="#0BDBB6" stroke-opacity="0.7" stroke-width="2"/>
<circle cx="333" cy="1035" r="150" stroke="#0BDBB6" stroke-opacity="0.7" stroke-width="2"/>
<circle cx="333" cy="1035" r="117" stroke="#0BDBB6" stroke-opacity="0.7" stroke-width="2"/>
<circle cx="333" cy="1035" r="89" stroke="#0BDBB6" stroke-opacity="0.7" stroke-width="2"/>
<circle cx="333" cy="1035" r="62" stroke="#0BDBB6" stroke-opacity="0.7" stroke-width="2"/>
</g>
</svg>
