<svg width="32" height="32" viewBox="0 0 32 32" fill="none" xmlns="http://www.w3.org/2000/svg">
<path d="M31.6172 15.6674C31.6172 7.01747 24.605 0.00524902 15.9551 0.00524902C7.30519 0.00524902 0.292969 7.01747 0.292969 15.6674C0.292969 23.4847 6.02041 29.9643 13.5079 31.1392V20.1947H9.53117V15.6674H13.5079V12.2168C13.5079 8.29148 15.8462 6.12326 19.4237 6.12326C21.1373 6.12326 22.9296 6.42916 22.9296 6.42916V10.2835H20.9547C19.0091 10.2835 18.4023 11.4908 18.4023 12.7295V15.6674H22.7461L22.0517 20.1947H18.4023V31.1392C25.8897 29.9643 31.6172 23.4848 31.6172 15.6674Z" fill="#1877F2"/>
<path d="M22.0517 20.1947L22.7461 15.6674H18.4023V12.7295C18.4023 11.4908 19.0091 10.2835 20.9547 10.2835H22.9296V6.42916C22.9296 6.42916 21.1373 6.12326 19.4237 6.12326C15.8462 6.12326 13.5079 8.29148 13.5079 12.2168V15.6674H9.53117V20.1947H13.5079V31.1392C14.3174 31.2661 15.1356 31.3297 15.9551 31.3295C16.7745 31.3297 17.5927 31.2661 18.4023 31.1392V20.1947H22.0517Z" fill="white"/>
</svg>
