<svg width="24" height="25" viewBox="0 0 24 25" fill="none" xmlns="http://www.w3.org/2000/svg">
<path d="M23.3483 9.88188H22.4231V9.83205H12.0861V14.6351H18.5772C17.6302 17.4311 15.0856 19.4381 12.0861 19.4381C8.2804 19.4381 5.1948 16.2123 5.1948 12.2336C5.1948 8.25485 8.2804 5.029 12.0861 5.029C13.8428 5.029 15.4411 5.72184 16.658 6.85356L19.9066 3.4572C17.8553 1.45853 15.1114 0.225952 12.0861 0.225952C5.74324 0.225952 0.600586 5.60236 0.600586 12.2336C0.600586 18.8648 5.74324 24.2412 12.0861 24.2412C18.429 24.2412 23.5717 18.8648 23.5717 12.2336C23.5717 11.4285 23.4924 10.6426 23.3483 9.88188Z" fill="#FFC107"/>
<path d="M1.92487 6.64462L5.69845 9.53786C6.71951 6.89498 9.19235 5.029 12.0861 5.029C13.8428 5.029 15.4411 5.72184 16.658 6.85356L19.9066 3.4572C17.8553 1.45853 15.1114 0.225952 12.0861 0.225952C7.67453 0.225952 3.8487 2.8298 1.92487 6.64462Z" fill="#FF3D00"/>
<path d="M12.0861 24.2412C15.0528 24.2412 17.7485 23.0542 19.7866 21.124L16.2318 17.9792C15.04 18.9268 13.5835 19.4394 12.0861 19.4381C9.09874 19.4381 6.56216 17.4467 5.60656 14.6675L1.86112 17.6844C3.76198 21.5731 7.62227 24.2412 12.0861 24.2412Z" fill="#4CAF50"/>
<path d="M23.3483 9.88188H22.4231V9.83205H12.0861V14.6351H18.5772C18.1242 15.9658 17.3082 17.1286 16.2301 17.9798L16.2318 17.9792L19.7866 21.124C19.5351 21.363 23.5717 18.2374 23.5717 12.2336C23.5717 11.4285 23.4924 10.6426 23.3483 9.88188Z" fill="#1976D2"/>
</svg>
