<svg width="22" height="15" viewBox="0 0 22 15" fill="none" xmlns="http://www.w3.org/2000/svg">
<path d="M11.141 4.35308C11.8795 4.35308 12.5877 4.64643 13.1099 5.1686C13.632 5.69077 13.9254 6.39899 13.9254 7.13745C13.9254 7.87591 13.632 8.58413 13.1099 9.1063C12.5877 9.62847 11.8795 9.92183 11.141 9.92183C10.4026 9.92183 9.69434 9.62847 9.17216 9.1063C8.64999 8.58413 8.35664 7.87591 8.35664 7.13745C8.35664 6.39899 8.64999 5.69077 9.17216 5.1686C9.69434 4.64643 10.4026 4.35308 11.141 4.35308ZM11.141 0.176514C15.7816 0.176514 19.7447 3.06298 21.3504 7.13745C19.7447 11.2119 15.7816 14.0984 11.141 14.0984C6.50039 14.0984 2.5373 11.2119 0.931641 7.13745C2.5373 3.06298 6.50039 0.176514 11.141 0.176514ZM2.95495 7.13745C3.70511 8.66914 4.86996 9.95965 6.31707 10.8623C7.76417 11.7649 9.43549 12.2434 11.141 12.2434C12.8465 12.2434 14.5179 11.7649 15.965 10.8623C17.4121 9.95965 18.5769 8.66914 19.3271 7.13745C18.5769 5.60576 17.4121 4.31526 15.965 3.41265C14.5179 2.51004 12.8465 2.03154 11.141 2.03154C9.43549 2.03154 7.76417 2.51004 6.31707 3.41265C4.86996 4.31526 3.70511 5.60576 2.95495 7.13745Z" fill="#8C8C8C"/>
</svg>
