<svg width="37" height="36" viewBox="0 0 37 36" fill="none" xmlns="http://www.w3.org/2000/svg">
<path d="M17.4913 17.8693C17.6372 17.286 17.7222 16.812 17.8802 16.3502C19.4601 11.6836 22 7.52732 24.8924 3.57767C25.2327 3.11586 25.658 2.67836 26.132 2.3867C26.3872 2.22871 26.8976 2.25302 27.1893 2.411C27.408 2.53253 27.566 3.00649 27.5174 3.27385C27.4323 3.78427 27.25 4.30684 26.9948 4.76864C25.3177 7.81899 23.6285 10.8572 21.9149 13.8832C21.2708 15.0134 20.5903 16.1315 19.9219 17.2495C19.7031 17.6263 19.4601 17.9909 19.2049 18.3311C18.9254 18.72 18.5 18.9509 18.0747 18.6957C17.7952 18.5256 17.4913 18.4041 17.4913 17.8693Z" fill="#0BDBB6"/>
<path d="M34.6996 35.9652C34.1163 35.868 33.4358 35.795 32.7795 35.6492C30.191 35.0659 27.6024 34.4826 25.026 33.8749C24.467 33.7412 23.9201 33.5103 23.4219 33.243C22.7535 32.8905 22.5226 32.3923 22.6319 31.8454C22.7413 31.2985 23.1788 30.9582 23.9444 30.9461C24.467 30.9339 25.026 30.9461 25.5243 31.0676C28.7934 31.894 32.0625 32.7447 35.3194 33.6076C35.684 33.7048 36.0608 33.8749 36.3403 34.118C37.0451 34.7135 36.8264 35.6492 35.9271 35.8801C35.5746 35.9652 35.1736 35.9287 34.6996 35.9652Z" fill="#0BDBB6"/>
<path d="M0.550403 3.38335C0.599014 2.81217 0.720542 2.24099 0.866375 1.68196C1.00006 1.1837 1.34033 0.831269 1.88721 0.782658C2.34901 0.7462 2.84728 1.20801 2.92019 1.81564C3.01742 2.62988 3.10249 3.45627 3.06603 4.27051C2.95665 6.72537 2.79867 9.19238 2.62853 11.6472C2.56776 12.4615 2.45839 13.2757 2.32471 14.09C2.2761 14.3695 2.17887 14.6611 2.02089 14.8799C1.59554 15.4997 0.817764 15.4511 0.513945 14.7827C0.343806 14.4059 0.270889 13.9441 0.270889 13.5309C0.210125 12.1698 0.392416 5.40071 0.550403 3.38335Z" fill="#0BDBB6"/>
</svg>
