<svg width="13" height="12" viewBox="0 0 13 12" fill="none" xmlns="http://www.w3.org/2000/svg">
<path d="M12.0139 4.30886C11.9782 4.20358 11.9123 4.11107 11.8246 4.04275C11.7369 3.97444 11.6311 3.93331 11.5202 3.92444L8.27776 3.66683L6.87464 0.561289C6.82995 0.461266 6.75727 0.376311 6.66536 0.316677C6.57346 0.257043 6.46625 0.22528 6.35669 0.22522C6.24712 0.22516 6.13988 0.256806 6.04791 0.316338C5.95594 0.375871 5.88316 0.460746 5.83837 0.56072L4.43525 3.66683L1.19278 3.92444C1.08384 3.93307 0.979692 3.97289 0.892796 4.03916C0.8059 4.10542 0.739937 4.19531 0.702797 4.29807C0.665658 4.40084 0.658915 4.51212 0.683375 4.61862C0.707836 4.72512 0.762464 4.82231 0.840724 4.89858L3.23689 7.23413L2.38944 10.9032C2.36371 11.0143 2.37196 11.1305 2.41311 11.2368C2.45427 11.3431 2.52643 11.4346 2.62024 11.4994C2.71405 11.5642 2.82518 11.5994 2.93919 11.6002C3.05321 11.6011 3.16485 11.5677 3.25964 11.5043L6.3565 9.44002L9.45337 11.5043C9.55025 11.5686 9.6645 11.6017 9.78076 11.5992C9.89702 11.5966 10.0097 11.5586 10.1037 11.4901C10.1976 11.4216 10.2684 11.3259 10.3064 11.216C10.3444 11.1061 10.3478 10.9873 10.3162 10.8754L9.27592 7.23583L11.8558 4.9145C12.0247 4.76209 12.0867 4.52439 12.0139 4.30886Z" fill="#FABB48"/>
</svg>
