<svg width="22" height="21" viewBox="0 0 22 21" fill="none" xmlns="http://www.w3.org/2000/svg">
<path d="M2 10.5C2 14.271 2 18.157 3.318 19.328C4.636 20.5 6.758 20.5 11 20.5C15.243 20.5 17.364 20.5 18.682 19.328C20 18.157 20 14.271 20 10.5M13.66 12.702L19.668 10.9C20.263 10.721 20.561 10.632 20.75 10.418C20.787 10.3762 20.8205 10.3314 20.85 10.284C21 10.041 21 9.731 21 9.109C21 6.659 21 5.434 20.327 4.607C20.1976 4.44786 20.0521 4.30243 19.893 4.173C19.066 3.5 17.841 3.5 15.391 3.5H6.61C4.16 3.5 2.935 3.5 2.108 4.173C1.948 4.303 1.803 4.448 1.674 4.607C1 5.434 1 6.659 1 9.109C1 9.731 1 10.041 1.15 10.284C1.18 10.331 1.213 10.376 1.25 10.418C1.44 10.632 1.737 10.721 2.332 10.9L8.34 12.702M5.5 3.5C6.323 3.48 7.16 2.955 7.44 2.18L7.475 2.077L7.5 2C7.542 1.873 7.564 1.81 7.586 1.754C7.72726 1.40281 7.96529 1.09892 8.27241 0.877652C8.57954 0.65638 8.94315 0.52681 9.321 0.504C9.38 0.5 9.448 0.5 9.58 0.5H12.418C12.551 0.5 12.618 0.5 12.678 0.504C13.0558 0.52681 13.4195 0.65638 13.7266 0.877652C14.0337 1.09892 14.2717 1.40281 14.413 1.754C14.436 1.81 14.457 1.874 14.499 2L14.525 2.077C14.543 2.13 14.551 2.157 14.56 2.18C14.84 2.955 15.676 3.48 16.499 3.5M13 11H9C8.86739 11 8.74021 11.0527 8.64645 11.1464C8.55268 11.2402 8.5 11.3674 8.5 11.5V13.662C8.50002 13.7619 8.52994 13.8594 8.58591 13.9421C8.64187 14.0248 8.72131 14.0889 8.814 14.126L9.514 14.406C10.4679 14.7877 11.5321 14.7877 12.486 14.406L13.186 14.126C13.2787 14.0889 13.3581 14.0248 13.4141 13.9421C13.4701 13.8594 13.5 13.7619 13.5 13.662V11.5C13.5 11.3674 13.4473 11.2402 13.3536 11.1464C13.2598 11.0527 13.1326 11 13 11Z" stroke="#A169E9"/>
</svg>
