<svg width="19" height="19" viewBox="0 0 19 19" fill="none" xmlns="http://www.w3.org/2000/svg">
<path d="M12.2188 11.4995L11.4788 11.6225C11.4609 11.5151 11.4666 11.405 11.4956 11.3C11.5246 11.195 11.5761 11.0976 11.6465 11.0145C11.7169 10.9315 11.8046 10.8647 11.9034 10.8189C12.0022 10.7732 12.1098 10.7495 12.2188 10.7495V11.4995ZM1.21875 11.4995V12.2495C1.01984 12.2495 0.829072 12.1705 0.68842 12.0298C0.547768 11.8892 0.46875 11.6984 0.46875 11.4995H1.21875ZM3.21875 0.749489H14.5788V2.24949H3.21875V0.749489ZM15.7787 12.2495H12.2188V10.7495H15.7787V12.2495ZM12.9587 11.3765L13.7647 16.2115L12.2847 16.4585L11.4788 11.6225L12.9587 11.3765ZM12.0387 18.2495H11.8247V16.7495H12.0378L12.0387 18.2495ZM8.70375 16.5795L6.18875 12.8065L7.43675 11.9745L9.95175 15.7475L8.70375 16.5795ZM5.14875 12.2495H1.21875V10.7495H5.14875V12.2495ZM0.46875 11.4995V3.49949H1.96875V11.4995H0.46875ZM17.2757 2.95949L18.4757 8.95949L17.0058 9.25449L15.8057 3.25449L17.2757 2.95949ZM6.18875 12.8065C6.07465 12.6352 5.92002 12.4957 5.7386 12.3986C5.55717 12.3014 5.35456 12.2505 5.14875 12.2505V10.7505C6.06875 10.7505 6.92675 11.2095 7.43675 11.9745L6.18875 12.8065ZM13.7647 16.2115C13.8064 16.4621 13.793 16.7198 13.7255 16.9647C13.6579 17.2097 13.5378 17.437 13.3736 17.6308C13.2094 17.8246 13.0049 17.9804 12.7744 18.0872C12.5438 18.1941 12.2928 18.2494 12.0387 18.2495L12.0378 16.7495C12.074 16.7494 12.1108 16.7414 12.1437 16.7261C12.1765 16.7108 12.2057 16.6886 12.2291 16.6609C12.2525 16.6332 12.2696 16.6008 12.2792 16.5658C12.2888 16.5309 12.2907 16.4942 12.2847 16.4585L13.7647 16.2115ZM15.7787 10.7505C16.5688 10.7505 17.1587 10.0285 17.0047 9.25549L18.4757 8.96049C18.5553 9.3594 18.5454 9.77199 18.4467 10.1666C18.3481 10.5612 18.1631 10.929 17.9051 11.2435C17.6471 11.558 17.3226 11.8114 16.9549 11.9853C16.5872 12.1593 16.1855 12.2495 15.7787 12.2495V10.7505ZM14.5788 0.749489C15.2145 0.749365 15.8306 0.970488 16.3223 1.37341C16.814 1.77633 17.1509 2.33716 17.2757 2.96049L15.8057 3.25549C15.7491 2.97189 15.5958 2.71672 15.3721 2.53346C15.1483 2.35021 14.868 2.2492 14.5788 2.24949V0.749489ZM11.8247 18.2495C11.2074 18.2494 10.5996 18.098 10.0554 17.8067C9.5111 17.5153 9.04716 17.0942 8.70475 16.5805L9.95175 15.7475C10.1573 16.0558 10.4358 16.3096 10.7626 16.4844C11.0893 16.6592 11.4542 16.7496 11.8247 16.7495V18.2495ZM3.21875 2.24949C2.52875 2.24949 1.96875 2.80949 1.96875 3.49949H0.46875C0.46875 2.77014 0.758481 2.07067 1.27421 1.55494C1.78993 1.03922 2.4894 0.749489 3.21875 0.749489V2.24949Z" fill="#2EB47B"/>
</svg>
