<svg width="19" height="19" viewBox="0 0 19 19" fill="none" xmlns="http://www.w3.org/2000/svg">
<path d="M12.2188 7.50051L11.4788 7.37751C11.4609 7.48495 11.4666 7.59499 11.4956 7.69998C11.5246 7.80497 11.5761 7.90239 11.6465 7.98547C11.7169 8.06855 11.8046 8.13529 11.9034 8.18107C12.0022 8.22684 12.1098 8.25053 12.2188 8.25051V7.50051ZM1.21875 7.50051V6.75051C1.01984 6.75051 0.829072 6.82953 0.68842 6.97018C0.547768 7.11083 0.46875 7.3016 0.46875 7.50051H1.21875ZM3.21875 18.2505H14.5788V16.7505H3.21875V18.2505ZM15.7787 6.75051H12.2188V8.25051H15.7787V6.75051ZM12.9587 7.62351L13.7647 2.78851L12.2847 2.54151L11.4788 7.37751L12.9587 7.62351ZM12.0387 0.750512H11.8247V2.25051H12.0378L12.0387 0.750512ZM8.70375 2.42051L6.18875 6.19351L7.43675 7.02551L9.95175 3.25251L8.70375 2.42051ZM5.14875 6.75051H1.21875V8.25051H5.14875V6.75051ZM0.46875 7.50051V15.5005H1.96875V7.50051H0.46875ZM17.2757 16.0405L18.4757 10.0405L17.0058 9.74551L15.8057 15.7455L17.2757 16.0405ZM6.18875 6.19351C6.07465 6.3648 5.92002 6.50426 5.7386 6.60142C5.55717 6.69859 5.35456 6.74946 5.14875 6.74951V8.24951C6.06875 8.24951 6.92675 7.79051 7.43675 7.02551L6.18875 6.19351ZM13.7647 2.78851C13.8064 2.53788 13.793 2.28018 13.7255 2.03525C13.6579 1.79033 13.5378 1.56304 13.3736 1.3692C13.2094 1.17536 13.0049 1.01961 12.7744 0.912764C12.5438 0.805923 12.2928 0.750556 12.0387 0.750512L12.0378 2.25051C12.074 2.2506 12.1108 2.25857 12.1437 2.27387C12.1765 2.28917 12.2057 2.31143 12.2291 2.33911C12.2525 2.3668 12.2696 2.39923 12.2792 2.43418C12.2888 2.46913 12.2907 2.50575 12.2847 2.54151L13.7647 2.78851ZM15.7787 8.24951C16.5688 8.24951 17.1587 8.97151 17.0047 9.74451L18.4757 10.0395C18.5553 9.6406 18.5454 9.22801 18.4467 8.8334C18.3481 8.43878 18.1631 8.07097 17.9051 7.75647C17.6471 7.44197 17.3226 7.18861 16.9549 7.01466C16.5872 6.84071 16.1855 6.75049 15.7787 6.75051V8.24951ZM14.5788 18.2505C15.2145 18.2506 15.8306 18.0295 16.3223 17.6266C16.814 17.2237 17.1509 16.6628 17.2757 16.0395L15.8057 15.7445C15.7491 16.0281 15.5958 16.2833 15.3721 16.4665C15.1483 16.6498 14.868 16.7508 14.5788 16.7505V18.2505ZM11.8247 0.750512C11.2074 0.750556 10.5996 0.902007 10.0554 1.19333C9.5111 1.48466 9.04716 1.90584 8.70475 2.41951L9.95175 3.25251C10.1573 2.94417 10.4358 2.69037 10.7626 2.51557C11.0893 2.34077 11.4542 2.25037 11.8247 2.25051V0.750512ZM3.21875 16.7505C2.52875 16.7505 1.96875 16.1905 1.96875 15.5005H0.46875C0.46875 16.2299 0.758481 16.9293 1.27421 17.4451C1.78993 17.9608 2.4894 18.2505 3.21875 18.2505V16.7505Z" fill="#185DC4"/>
</svg>
