<svg width="24" height="19" viewBox="0 0 24 19" fill="none" xmlns="http://www.w3.org/2000/svg">
<path d="M0.960394 10.4992C1.05421 11.2167 1.40581 11.8756 1.94961 12.3529C2.49341 12.8302 3.19227 13.0934 3.91585 13.0934C4.63942 13.0934 5.33829 12.8302 5.88209 12.3529C6.42589 11.8756 6.77749 11.2167 6.8713 10.4992H0.960394ZM17.0646 16.4997C17.0647 16.5604 17.053 16.6205 17.0299 16.6766C17.0069 16.7327 16.973 16.7837 16.9302 16.8267C16.8874 16.8697 16.8366 16.9038 16.7806 16.9272C16.7246 16.9505 16.6645 16.9626 16.6039 16.9627H7.99209C7.73913 16.9627 7.53048 16.755 7.53048 16.4997C7.53109 16.3778 7.58002 16.261 7.66655 16.1751C7.75308 16.0892 7.87015 16.0411 7.99209 16.0413H16.6034C16.8582 16.0413 17.0646 16.2463 17.0646 16.4997ZM7.5808 17.1986H17.0147V18.5312H7.5808V17.1986ZM17.8576 10.4992C17.9508 11.2172 18.3021 11.8767 18.8459 12.3546C19.3897 12.8325 20.0889 13.0961 20.8128 13.0963C21.5367 13.0963 22.2358 12.8327 22.7794 12.3547C23.323 11.8767 23.674 11.2172 23.7667 10.4992H17.8576ZM23.6042 9.57187L21.184 6.23813H22.4779C22.7927 6.23813 23.0461 5.98009 23.0461 5.66112C23.0461 5.34492 22.7922 5.08964 22.4779 5.08964H15.6239C15.4204 4.52921 15.0729 4.03226 14.6164 3.6488C14.1598 3.26534 13.6103 3.00891 13.0232 2.90531V1.10642C13.0232 0.786522 12.7665 0.531252 12.4485 0.531252L12.3949 0.537253L12.3414 0.531252C12.2659 0.531068 12.191 0.54583 12.1213 0.574687C12.0515 0.603544 11.9881 0.645925 11.9348 0.699389C11.8814 0.752853 11.8392 0.816342 11.8105 0.886199C11.7818 0.956056 11.7672 1.0309 11.7676 1.10642V2.90439C11.1805 3.00791 10.6311 3.26433 10.1747 3.64781C9.71827 4.03129 9.37098 4.52828 9.16781 5.08872H2.31245C1.99994 5.08872 1.74513 5.34399 1.74513 5.66019C1.74513 5.97963 1.99994 6.23721 2.31245 6.23721H3.54725L1.12657 9.57095H0.824219V10.1867H7.00886V9.57095H6.70512L4.28537 6.23813H9.90269C9.90269 6.10796 9.917 5.98009 9.93639 5.85776C9.95624 5.80006 9.96963 5.74144 9.96963 5.68097C10.0737 5.24241 10.2965 4.84099 10.6137 4.52074C10.9308 4.20048 11.3301 3.97376 11.7676 3.86546V10.1881H11.7436C11.6942 12.5663 10.5628 14.6403 8.88438 15.8059H15.9073C14.2284 14.6403 13.098 12.5663 13.0458 10.1881H13.0236V3.86546C13.4611 3.97379 13.8603 4.20052 14.1773 4.52078C14.4944 4.84104 14.7172 5.24245 14.8211 5.68097C14.823 5.74144 14.8355 5.80006 14.8558 5.85776C14.8742 5.98055 14.8858 6.10796 14.8858 6.23813H20.4445L18.0238 9.57187H17.7219V10.1877H23.9047V9.57187H23.6042ZM3.67004 9.57187H1.73821L3.67004 6.91069V9.57187ZM4.16442 9.57187V6.91069L6.09626 9.57187H4.16442ZM20.5663 9.57187H18.6336L20.5663 6.91069V9.57187ZM21.0584 9.57187V6.91069L22.9925 9.57187H21.0584ZM4.48986 4.28737C4.48562 4.43667 4.42334 4.57843 4.31624 4.68253C4.20914 4.78664 4.06567 4.84488 3.91631 4.84488C3.76695 4.84488 3.62348 4.78664 3.51638 4.68253C3.40928 4.57843 3.347 4.43667 3.34276 4.28737C3.34276 3.9707 3.60034 3.7122 3.91746 3.7122C4.2332 3.71174 4.48986 3.9707 4.48986 4.28737ZM21.3866 4.2569C21.3866 4.57587 21.13 4.82884 20.8133 4.82884C20.738 4.82932 20.6633 4.81487 20.5936 4.78632C20.5239 4.75777 20.4606 4.71568 20.4073 4.66249C20.354 4.60931 20.3117 4.54607 20.283 4.47645C20.2543 4.40683 20.2397 4.33221 20.24 4.2569C20.2369 4.17968 20.2494 4.10262 20.2768 4.03036C20.3042 3.9581 20.346 3.89212 20.3995 3.83639C20.4531 3.78065 20.5173 3.73631 20.5884 3.70602C20.6595 3.67572 20.736 3.66011 20.8133 3.66011C20.8906 3.66011 20.9671 3.67572 21.0382 3.70602C21.1093 3.73631 21.1735 3.78065 21.2271 3.83639C21.2806 3.89212 21.3223 3.9581 21.3498 4.03036C21.3772 4.10262 21.3897 4.17968 21.3866 4.2569Z" fill="black"/>
</svg>
