<svg width="24" height="18" viewBox="0 0 24 18" fill="none" xmlns="http://www.w3.org/2000/svg">
<path d="M0.959173 9.968C1.05299 10.6855 1.40458 11.3443 1.94839 11.8216C2.49219 12.299 3.19105 12.5622 3.91463 12.5622C4.6382 12.5622 5.33707 12.299 5.88087 11.8216C6.42467 11.3443 6.77627 10.6855 6.87008 9.968H0.959173ZM17.0633 15.9685C17.0635 16.0291 17.0518 16.0892 17.0287 16.1453C17.0056 16.2014 16.9717 16.2524 16.929 16.2954C16.8862 16.3384 16.8353 16.3726 16.7793 16.3959C16.7234 16.4193 16.6633 16.4313 16.6027 16.4315H7.99087C7.73791 16.4315 7.52926 16.2237 7.52926 15.9685C7.52987 15.8465 7.5788 15.7298 7.66533 15.6439C7.75186 15.5579 7.86893 15.5098 7.99087 15.5101H16.6022C16.857 15.5101 17.0633 15.715 17.0633 15.9685ZM7.57958 16.6673H17.0135V18H7.57958V16.6673ZM17.8564 9.968C17.9496 10.6859 18.3008 11.3454 18.8447 11.8233C19.3885 12.3012 20.0876 12.5649 20.8116 12.565C21.5355 12.565 22.2346 12.3014 22.7782 11.8234C23.3218 11.3455 23.6728 10.6859 23.7654 9.968H17.8564ZM23.603 9.04062L21.1827 5.70688H22.4766C22.7915 5.70688 23.0449 5.44884 23.0449 5.12987C23.0449 4.81367 22.791 4.55839 22.4766 4.55839H15.6227C15.4192 3.99796 15.0717 3.50101 14.6152 3.11755C14.1586 2.73409 13.6091 2.47766 13.022 2.37406V0.575167C13.022 0.255272 12.7653 1.69161e-06 12.4472 1.69161e-06L12.3937 0.00600262L12.3402 1.69161e-06C12.2646 -0.000181899 12.1898 0.0145801 12.12 0.0434369C12.0503 0.0722938 11.9869 0.114675 11.9335 0.168139C11.8802 0.221603 11.838 0.285092 11.8093 0.354949C11.7806 0.424806 11.766 0.499649 11.7664 0.575167V2.37314C11.1793 2.47666 10.6299 2.73308 10.1735 3.11656C9.71705 3.50004 9.36976 3.99703 9.16659 4.55747H2.31123C1.99872 4.55747 1.74391 4.81274 1.74391 5.12894C1.74391 5.44838 1.99872 5.70596 2.31123 5.70596H3.54603L1.12535 9.0397H0.822998V9.65549H7.00764V9.0397H6.7039L4.28415 5.70688H9.90147C9.90147 5.57671 9.91578 5.44884 9.93517 5.32651C9.95502 5.26881 9.9684 5.21019 9.9684 5.14972C10.0725 4.71116 10.2953 4.30974 10.6125 3.98949C10.9296 3.66923 11.3289 3.44251 11.7664 3.33421V9.65687H11.7424C11.693 12.0351 10.5616 14.1091 8.88316 15.2747H15.9061C14.2272 14.1091 13.0967 12.0351 13.0446 9.65687H13.0224V3.33421C13.4599 3.44254 13.859 3.66927 14.1761 3.98953C14.4932 4.30979 14.716 4.7112 14.8199 5.14972C14.8218 5.21019 14.8342 5.26881 14.8545 5.32651C14.873 5.4493 14.8845 5.57671 14.8845 5.70688H20.4432L18.0226 9.04062H17.7207V9.65641H23.9035V9.04062H23.603ZM3.66882 9.04062H1.73698L3.66882 6.37944V9.04062ZM4.1632 9.04062V6.37944L6.09504 9.04062H4.1632ZM20.5651 9.04062H18.6324L20.5651 6.37944V9.04062ZM21.0572 9.04062V6.37944L22.9913 9.04062H21.0572ZM4.48864 3.75612C4.4844 3.90542 4.42212 4.04718 4.31502 4.15128C4.20792 4.25539 4.06445 4.31363 3.91509 4.31363C3.76573 4.31363 3.62226 4.25539 3.51516 4.15128C3.40806 4.04718 3.34577 3.90542 3.34154 3.75612C3.34154 3.43945 3.59912 3.18095 3.91624 3.18095C4.23198 3.18049 4.48864 3.43945 4.48864 3.75612ZM21.3854 3.72565C21.3854 4.04462 21.1287 4.29759 20.8121 4.29759C20.7368 4.29807 20.6621 4.28362 20.5924 4.25507C20.5227 4.22652 20.4594 4.18443 20.4061 4.13124C20.3528 4.07806 20.3105 4.01482 20.2818 3.9452C20.2531 3.87558 20.2384 3.80096 20.2388 3.72565C20.2357 3.64843 20.2482 3.57137 20.2756 3.49911C20.303 3.42685 20.3447 3.36087 20.3983 3.30514C20.4518 3.2494 20.5161 3.20506 20.5872 3.17477C20.6583 3.14447 20.7348 3.12886 20.8121 3.12886C20.8894 3.12886 20.9659 3.14447 21.037 3.17477C21.1081 3.20506 21.1723 3.2494 21.2259 3.30514C21.2794 3.36087 21.3211 3.42685 21.3485 3.49911C21.376 3.57137 21.3885 3.64843 21.3854 3.72565Z" fill="white"/>
</svg>
