<svg width="16" height="18" viewBox="0 0 16 18" fill="none" xmlns="http://www.w3.org/2000/svg">
<path d="M4.84615 8.30769C3.9281 8.30769 3.04764 7.943 2.39848 7.29383C1.74931 6.64467 1.38462 5.76421 1.38462 4.84615V2.07692C1.38462 1.89331 1.45755 1.71722 1.58739 1.58739C1.71722 1.45755 1.89331 1.38462 2.07692 1.38462H2.76923C2.95284 1.38462 3.12893 1.31168 3.25877 1.18184C3.3886 1.05201 3.46154 0.875919 3.46154 0.692308C3.46154 0.508696 3.3886 0.332605 3.25877 0.202772C3.12893 0.0729393 2.95284 0 2.76923 0H2.07692C1.52609 0 0.997815 0.218818 0.608317 0.608317C0.218818 0.997815 0 1.52609 0 2.07692V4.84615C0.000889906 5.62828 0.191611 6.3985 0.555784 7.09067C0.919957 7.78284 1.4467 8.37627 2.09077 8.82C2.70957 9.36556 3.21141 10.0308 3.566 10.7757C3.92058 11.5206 4.12055 12.3296 4.15385 13.1538C4.15385 14.4391 4.66442 15.6718 5.57325 16.5806C6.48208 17.4894 7.71472 18 9 18C10.2853 18 11.5179 17.4894 12.4267 16.5806C13.3356 15.6718 13.8462 14.4391 13.8462 13.1538V12.3646C14.4988 12.1961 15.0675 11.7954 15.4458 11.2375C15.8241 10.6797 15.9859 10.003 15.901 9.33438C15.8161 8.66574 15.4902 8.05103 14.9845 7.60547C14.4787 7.15991 13.8279 6.91409 13.1538 6.91409C12.4798 6.91409 11.829 7.15991 11.3232 7.60547C10.8175 8.05103 10.4916 8.66574 10.4067 9.33438C10.3218 10.003 10.4836 10.6797 10.8619 11.2375C11.2402 11.7954 11.8089 12.1961 12.4615 12.3646V13.1538C12.4615 14.0719 12.0968 14.9524 11.4477 15.6015C10.7985 16.2507 9.91806 16.6154 9 16.6154C8.08194 16.6154 7.20149 16.2507 6.55232 15.6015C5.90316 14.9524 5.53846 14.0719 5.53846 13.1538C5.57351 12.3285 5.77564 11.5189 6.13263 10.774C6.48962 10.0291 6.99405 9.36434 7.61538 8.82C8.2569 8.37473 8.78094 7.78063 9.14265 7.08855C9.50436 6.39648 9.69297 5.62705 9.69231 4.84615V2.07692C9.69231 1.52609 9.47349 0.997815 9.08399 0.608317C8.69449 0.218818 8.16622 0 7.61538 0H6.92308C6.73946 0 6.56337 0.0729393 6.43354 0.202772C6.30371 0.332605 6.23077 0.508696 6.23077 0.692308C6.23077 0.875919 6.30371 1.05201 6.43354 1.18184C6.56337 1.31168 6.73946 1.38462 6.92308 1.38462H7.61538C7.799 1.38462 7.97509 1.45755 8.10492 1.58739C8.23475 1.71722 8.30769 1.89331 8.30769 2.07692V4.84615C8.30769 5.30073 8.21816 5.75085 8.0442 6.17083C7.87024 6.5908 7.61526 6.9724 7.29383 7.29383C6.9724 7.61527 6.5908 7.87024 6.17083 8.0442C5.75085 8.21816 5.30073 8.30769 4.84615 8.30769ZM13.1538 11.0769C12.7866 11.0769 12.4344 10.931 12.1748 10.6714C11.9151 10.4117 11.7692 10.0595 11.7692 9.69231C11.7692 9.32508 11.9151 8.9729 12.1748 8.71324C12.4344 8.45357 12.7866 8.30769 13.1538 8.30769C13.5211 8.30769 13.8733 8.45357 14.1329 8.71324C14.3926 8.9729 14.5385 9.32508 14.5385 9.69231C14.5385 10.0595 14.3926 10.4117 14.1329 10.6714C13.8733 10.931 13.5211 11.0769 13.1538 11.0769Z" fill="white"/>
</svg>
