<svg width="16" height="19" viewBox="0 0 16 19" fill="none" xmlns="http://www.w3.org/2000/svg">
<path d="M4.84615 8.83894C3.9281 8.83894 3.04764 8.47425 2.39848 7.82508C1.74931 7.17592 1.38462 6.29546 1.38462 5.3774V2.60817C1.38462 2.42456 1.45755 2.24847 1.58739 2.11864C1.71722 1.9888 1.89331 1.91587 2.07692 1.91587H2.76923C2.95284 1.91587 3.12893 1.84293 3.25877 1.71309C3.3886 1.58326 3.46154 1.40717 3.46154 1.22356C3.46154 1.03995 3.3886 0.863855 3.25877 0.734022C3.12893 0.604189 2.95284 0.53125 2.76923 0.53125H2.07692C1.52609 0.53125 0.997815 0.750068 0.608317 1.13957C0.218818 1.52907 0 2.05734 0 2.60817V5.3774C0.000889906 6.15953 0.191611 6.92975 0.555784 7.62192C0.919957 8.31409 1.4467 8.90752 2.09077 9.35125C2.70957 9.89681 3.21141 10.5621 3.566 11.307C3.92058 12.0518 4.12055 12.8608 4.15385 13.6851C4.15385 14.9704 4.66442 16.203 5.57325 17.1118C6.48208 18.0207 7.71472 18.5312 9 18.5312C10.2853 18.5312 11.5179 18.0207 12.4267 17.1118C13.3356 16.203 13.8462 14.9704 13.8462 13.6851V12.8959C14.4988 12.7274 15.0675 12.3266 15.4458 11.7688C15.8241 11.2109 15.9859 10.5343 15.901 9.86563C15.8161 9.19699 15.4902 8.58228 14.9845 8.13672C14.4787 7.69116 13.8279 7.44534 13.1538 7.44534C12.4798 7.44534 11.829 7.69116 11.3232 8.13672C10.8175 8.58228 10.4916 9.19699 10.4067 9.86563C10.3218 10.5343 10.4836 11.2109 10.8619 11.7688C11.2402 12.3266 11.8089 12.7274 12.4615 12.8959V13.6851C12.4615 14.6032 12.0968 15.4836 11.4477 16.1328C10.7985 16.7819 9.91806 17.1466 9 17.1466C8.08194 17.1466 7.20149 16.7819 6.55232 16.1328C5.90316 15.4836 5.53846 14.6032 5.53846 13.6851C5.57351 12.8598 5.77564 12.0502 6.13263 11.3053C6.48962 10.5603 6.99405 9.89559 7.61538 9.35125C8.2569 8.90598 8.78094 8.31188 9.14265 7.6198C9.50436 6.92773 9.69297 6.1583 9.69231 5.3774V2.60817C9.69231 2.05734 9.47349 1.52907 9.08399 1.13957C8.69449 0.750068 8.16622 0.53125 7.61538 0.53125H6.92308C6.73946 0.53125 6.56337 0.604189 6.43354 0.734022C6.30371 0.863855 6.23077 1.03995 6.23077 1.22356C6.23077 1.40717 6.30371 1.58326 6.43354 1.71309C6.56337 1.84293 6.73946 1.91587 6.92308 1.91587H7.61538C7.799 1.91587 7.97509 1.9888 8.10492 2.11864C8.23475 2.24847 8.30769 2.42456 8.30769 2.60817V5.3774C8.30769 5.83198 8.21816 6.2821 8.0442 6.70208C7.87024 7.12205 7.61526 7.50365 7.29383 7.82508C6.9724 8.14652 6.5908 8.40149 6.17083 8.57545C5.75085 8.74941 5.30073 8.83894 4.84615 8.83894ZM13.1538 11.6082C12.7866 11.6082 12.4344 11.4623 12.1748 11.2026C11.9151 10.943 11.7692 10.5908 11.7692 10.2236C11.7692 9.85633 11.9151 9.50415 12.1748 9.24449C12.4344 8.98482 12.7866 8.83894 13.1538 8.83894C13.5211 8.83894 13.8733 8.98482 14.1329 9.24449C14.3926 9.50415 14.5385 9.85633 14.5385 10.2236C14.5385 10.5908 14.3926 10.943 14.1329 11.2026C13.8733 11.4623 13.5211 11.6082 13.1538 11.6082Z" fill="black"/>
</svg>
