<svg width="23" height="18" viewBox="0 0 23 18" fill="none" xmlns="http://www.w3.org/2000/svg">
<path d="M0.923096 18V15.2C0.923096 14.65 1.06476 14.1333 1.3481 13.65C1.63143 13.1667 2.0231 12.8 2.5231 12.55C3.3731 12.1167 4.33143 11.75 5.3981 11.45C6.46476 11.15 7.63976 11 8.9231 11C10.2064 11 11.3814 11.15 12.4481 11.45C13.5148 11.75 14.4731 12.1167 15.3231 12.55C15.8231 12.8 16.2148 13.1667 16.4981 13.65C16.7814 14.1333 16.9231 14.65 16.9231 15.2V18H0.923096ZM2.9231 16H14.9231V15.2C14.9231 15.0167 14.8774 14.85 14.7861 14.7C14.6948 14.55 14.5738 14.4333 14.4231 14.35C13.8231 14.05 13.0524 13.75 12.1111 13.45C11.1698 13.15 10.1071 13 8.9231 13C7.7391 13 6.67676 13.15 5.7361 13.45C4.79543 13.75 4.02443 14.05 3.4231 14.35C3.2731 14.4333 3.15243 14.55 3.0611 14.7C2.96976 14.85 2.92376 15.0167 2.9231 15.2V16ZM8.9231 10C7.8231 10 6.88143 9.60833 6.0981 8.825C5.31476 8.04167 4.9231 7.1 4.9231 6H4.6731C4.5231 6 4.40243 5.95433 4.3111 5.863C4.21976 5.77167 4.17376 5.65067 4.1731 5.5C4.17243 5.34933 4.21843 5.22833 4.3111 5.137C4.40376 5.04567 4.52443 5 4.6731 5H4.9231C4.9231 4.25 5.10643 3.575 5.4731 2.975C5.83976 2.375 6.3231 1.9 6.9231 1.55V2.5C6.9231 2.65 6.9691 2.771 7.0611 2.863C7.1531 2.955 7.27376 3.00067 7.4231 3C7.57243 2.99933 7.69343 2.95367 7.7861 2.863C7.87876 2.77233 7.92443 2.65133 7.9231 2.5V1.15C8.0731 1.1 8.23143 1.06267 8.3981 1.038C8.56476 1.01333 8.73976 1.00067 8.9231 1C9.10643 0.999333 9.28143 1.012 9.4481 1.038C9.61476 1.064 9.7731 1.10133 9.9231 1.15V2.5C9.9231 2.65 9.9691 2.771 10.0611 2.863C10.1531 2.955 10.2738 3.00067 10.4231 3C10.5724 2.99933 10.6934 2.95367 10.7861 2.863C10.8788 2.77233 10.9244 2.65133 10.9231 2.5V1.55C11.5231 1.9 12.0064 2.375 12.3731 2.975C12.7398 3.575 12.9231 4.25 12.9231 5H13.1731C13.3231 5 13.4441 5.046 13.5361 5.138C13.6281 5.23 13.6738 5.35067 13.6731 5.5C13.6724 5.64933 13.6268 5.77033 13.5361 5.863C13.4454 5.95567 13.3244 6.00133 13.1731 6H12.9231C12.9231 7.1 12.5314 8.04167 11.7481 8.825C10.9648 9.60833 10.0231 10 8.9231 10ZM8.9231 8C9.4731 8 9.9441 7.80433 10.3361 7.413C10.7281 7.02167 10.9238 6.55067 10.9231 6H6.9231C6.9231 6.55 7.1191 7.021 7.5111 7.413C7.9031 7.805 8.37376 8.00067 8.9231 8ZM16.4231 12L16.2731 11.25C16.1731 11.2167 16.0774 11.1793 15.9861 11.138C15.8948 11.0967 15.8071 11.034 15.7231 10.95L15.0231 11.2L14.5231 10.3L15.0731 9.8V9.2L14.5231 8.7L15.0231 7.8L15.7231 8.05C15.7898 7.98333 15.8731 7.925 15.9731 7.875C16.0731 7.825 16.1731 7.78333 16.2731 7.75L16.4231 7H17.4231L17.5731 7.75C17.6731 7.78333 17.7731 7.825 17.8731 7.875C17.9731 7.925 18.0564 7.98333 18.1231 8.05L18.8231 7.8L19.3231 8.7L18.7731 9.2V9.8L19.3231 10.3L18.8231 11.2L18.1231 10.95C18.0398 11.0333 17.9524 11.096 17.8611 11.138C17.7698 11.18 17.6738 11.2173 17.5731 11.25L17.4231 12H16.4231ZM16.9231 10.25C17.1231 10.25 17.2981 10.175 17.4481 10.025C17.5981 9.875 17.6731 9.7 17.6731 9.5C17.6731 9.3 17.5981 9.125 17.4481 8.975C17.2981 8.825 17.1231 8.75 16.9231 8.75C16.7231 8.75 16.5481 8.825 16.3981 8.975C16.2481 9.125 16.1731 9.3 16.1731 9.5C16.1731 9.7 16.2481 9.875 16.3981 10.025C16.5481 10.175 16.7231 10.25 16.9231 10.25ZM18.7231 7L18.5231 5.95C18.3731 5.9 18.2358 5.83767 18.1111 5.763C17.9864 5.68833 17.8738 5.60067 17.7731 5.5L16.7231 5.85L16.0231 4.65L16.8731 3.9C16.8398 3.81667 16.8231 3.75 16.8231 3.7V3.3C16.8231 3.25 16.8398 3.18333 16.8731 3.1L16.0231 2.35L16.7231 1.15L17.7731 1.5C17.8731 1.4 17.9858 1.31233 18.1111 1.237C18.2364 1.16167 18.3738 1.09933 18.5231 1.05L18.7231 0H20.1231L20.3231 1.05C20.4731 1.1 20.6108 1.16267 20.7361 1.238C20.8614 1.31333 20.9738 1.40067 21.0731 1.5L22.1231 1.15L22.8231 2.35L21.9731 3.1C22.0064 3.18333 22.0231 3.25 22.0231 3.3V3.7C22.0231 3.75 22.0064 3.81667 21.9731 3.9L22.8231 4.65L22.1231 5.85L21.0731 5.5C20.9731 5.6 20.8608 5.68767 20.7361 5.763C20.6114 5.83833 20.4738 5.90067 20.3231 5.95L20.1231 7H18.7231ZM19.4231 4.75C19.7731 4.75 20.0691 4.629 20.3111 4.387C20.5531 4.145 20.6738 3.84933 20.6731 3.5C20.6724 3.15067 20.5514 2.85467 20.3101 2.612C20.0688 2.36933 19.7731 2.24867 19.4231 2.25C19.0731 2.25133 18.7771 2.37233 18.5351 2.613C18.2931 2.85367 18.1724 3.14933 18.1731 3.5C18.1738 3.85067 18.2948 4.14667 18.5361 4.388C18.7774 4.62933 19.0731 4.75 19.4231 4.75Z" fill="white"/>
</svg>
