<svg width="23" height="19" viewBox="0 0 23 19" fill="none" xmlns="http://www.w3.org/2000/svg">
<path d="M0.921875 18.5312V15.7313C0.921875 15.1813 1.06354 14.6646 1.34688 14.1812C1.63021 13.6979 2.02188 13.3313 2.52188 13.0813C3.37188 12.6479 4.33021 12.2812 5.39688 11.9812C6.46354 11.6812 7.63854 11.5312 8.92188 11.5312C10.2052 11.5312 11.3802 11.6812 12.4469 11.9812C13.5135 12.2812 14.4719 12.6479 15.3219 13.0813C15.8219 13.3313 16.2135 13.6979 16.4969 14.1812C16.7802 14.6646 16.9219 15.1813 16.9219 15.7313V18.5312H0.921875ZM2.92188 16.5312H14.9219V15.7313C14.9219 15.5479 14.8762 15.3813 14.7849 15.2313C14.6935 15.0813 14.5725 14.9646 14.4219 14.8813C13.8219 14.5813 13.0512 14.2813 12.1099 13.9813C11.1685 13.6813 10.1059 13.5312 8.92188 13.5312C7.73787 13.5312 6.67554 13.6813 5.73487 13.9813C4.79421 14.2813 4.02321 14.5813 3.42188 14.8813C3.27187 14.9646 3.15121 15.0813 3.05988 15.2313C2.96854 15.3813 2.92254 15.5479 2.92188 15.7313V16.5312ZM8.92188 10.5312C7.82188 10.5312 6.88021 10.1396 6.09688 9.35625C5.31354 8.57292 4.92188 7.63125 4.92188 6.53125H4.67188C4.52188 6.53125 4.40121 6.48558 4.30988 6.39425C4.21854 6.30292 4.17254 6.18192 4.17188 6.03125C4.17121 5.88058 4.21721 5.75958 4.30988 5.66825C4.40254 5.57692 4.52321 5.53125 4.67188 5.53125H4.92188C4.92188 4.78125 5.10521 4.10625 5.47188 3.50625C5.83854 2.90625 6.32188 2.43125 6.92188 2.08125V3.03125C6.92188 3.18125 6.96788 3.30225 7.05988 3.39425C7.15188 3.48625 7.27254 3.53192 7.42188 3.53125C7.57121 3.53058 7.69221 3.48492 7.78487 3.39425C7.87754 3.30358 7.92321 3.18258 7.92188 3.03125V1.68125C8.07188 1.63125 8.23021 1.59392 8.39687 1.56925C8.56354 1.54458 8.73854 1.53192 8.92188 1.53125C9.10521 1.53058 9.28021 1.54325 9.44687 1.56925C9.61354 1.59525 9.77188 1.63258 9.92188 1.68125V3.03125C9.92188 3.18125 9.96787 3.30225 10.0599 3.39425C10.1519 3.48625 10.2725 3.53192 10.4219 3.53125C10.5712 3.53058 10.6922 3.48492 10.7849 3.39425C10.8775 3.30358 10.9232 3.18258 10.9219 3.03125V2.08125C11.5219 2.43125 12.0052 2.90625 12.3719 3.50625C12.7385 4.10625 12.9219 4.78125 12.9219 5.53125H13.1719C13.3219 5.53125 13.4429 5.57725 13.5349 5.66925C13.6269 5.76125 13.6725 5.88192 13.6719 6.03125C13.6712 6.18058 13.6255 6.30158 13.5349 6.39425C13.4442 6.48692 13.3232 6.53258 13.1719 6.53125H12.9219C12.9219 7.63125 12.5302 8.57292 11.7469 9.35625C10.9635 10.1396 10.0219 10.5312 8.92188 10.5312ZM8.92188 8.53125C9.47188 8.53125 9.94287 8.33558 10.3349 7.94425C10.7269 7.55292 10.9225 7.08192 10.9219 6.53125H6.92188C6.92188 7.08125 7.11788 7.55225 7.50988 7.94425C7.90188 8.33625 8.37254 8.53192 8.92188 8.53125ZM16.4219 12.5312L16.2719 11.7812C16.1719 11.7479 16.0762 11.7106 15.9849 11.6692C15.8935 11.6279 15.8059 11.5652 15.7219 11.4812L15.0219 11.7312L14.5219 10.8313L15.0719 10.3313V9.73125L14.5219 9.23125L15.0219 8.33125L15.7219 8.58125C15.7885 8.51458 15.8719 8.45625 15.9719 8.40625C16.0719 8.35625 16.1719 8.31458 16.2719 8.28125L16.4219 7.53125H17.4219L17.5719 8.28125C17.6719 8.31458 17.7719 8.35625 17.8719 8.40625C17.9719 8.45625 18.0552 8.51458 18.1219 8.58125L18.8219 8.33125L19.3219 9.23125L18.7719 9.73125V10.3313L19.3219 10.8313L18.8219 11.7312L18.1219 11.4812C18.0385 11.5646 17.9512 11.6272 17.8599 11.6692C17.7685 11.7112 17.6725 11.7486 17.5719 11.7812L17.4219 12.5312H16.4219ZM16.9219 10.7812C17.1219 10.7812 17.2969 10.7062 17.4469 10.5562C17.5969 10.4062 17.6719 10.2312 17.6719 10.0312C17.6719 9.83125 17.5969 9.65625 17.4469 9.50625C17.2969 9.35625 17.1219 9.28125 16.9219 9.28125C16.7219 9.28125 16.5469 9.35625 16.3969 9.50625C16.2469 9.65625 16.1719 9.83125 16.1719 10.0312C16.1719 10.2312 16.2469 10.4062 16.3969 10.5562C16.5469 10.7062 16.7219 10.7812 16.9219 10.7812ZM18.7219 7.53125L18.5219 6.48125C18.3719 6.43125 18.2345 6.36892 18.1099 6.29425C17.9852 6.21958 17.8725 6.13192 17.7719 6.03125L16.7219 6.38125L16.0219 5.18125L16.8719 4.43125C16.8385 4.34792 16.8219 4.28125 16.8219 4.23125V3.83125C16.8219 3.78125 16.8385 3.71458 16.8719 3.63125L16.0219 2.88125L16.7219 1.68125L17.7719 2.03125C17.8719 1.93125 17.9845 1.84358 18.1099 1.76825C18.2352 1.69292 18.3725 1.63058 18.5219 1.58125L18.7219 0.53125H20.1219L20.3219 1.58125C20.4719 1.63125 20.6095 1.69392 20.7349 1.76925C20.8602 1.84458 20.9725 1.93192 21.0719 2.03125L22.1219 1.68125L22.8219 2.88125L21.9719 3.63125C22.0052 3.71458 22.0219 3.78125 22.0219 3.83125V4.23125C22.0219 4.28125 22.0052 4.34792 21.9719 4.43125L22.8219 5.18125L22.1219 6.38125L21.0719 6.03125C20.9719 6.13125 20.8595 6.21892 20.7349 6.29425C20.6102 6.36958 20.4725 6.43192 20.3219 6.48125L20.1219 7.53125H18.7219ZM19.4219 5.28125C19.7719 5.28125 20.0679 5.16025 20.3099 4.91825C20.5519 4.67625 20.6725 4.38058 20.6719 4.03125C20.6712 3.68192 20.5502 3.38592 20.3089 3.14325C20.0675 2.90058 19.7719 2.77992 19.4219 2.78125C19.0719 2.78258 18.7759 2.90358 18.5339 3.14425C18.2919 3.38492 18.1712 3.68058 18.1719 4.03125C18.1725 4.38192 18.2935 4.67792 18.5349 4.91925C18.7762 5.16058 19.0719 5.28125 19.4219 5.28125Z" fill="black"/>
</svg>
