<svg width="16" height="18" viewBox="0 0 16 18" fill="none" xmlns="http://www.w3.org/2000/svg">
<path d="M11.5684 6.63158C11.5684 11.6811 3.98942 11.6811 3.98942 6.63158H5.88416C5.88416 9.16105 9.67364 9.16105 9.67364 6.63158M15.3578 15.1579V18H0.199951V15.1579C0.199951 12.6284 5.24942 11.3684 7.7789 11.3684C10.3084 11.3684 15.3578 12.6284 15.3578 15.1579ZM13.5578 15.1579C13.5578 14.5516 10.5926 13.1684 7.7789 13.1684C4.96521 13.1684 1.99995 14.5516 1.99995 15.1579V16.2H13.5578M8.25258 0C8.51785 0 8.72627 0.208421 8.72627 0.473684V3.31579H9.67364V0.947368C10.3441 1.25765 10.9058 1.76229 11.2859 2.39579C11.666 3.02928 11.8469 3.7624 11.8052 4.5C11.8052 4.5 12.4684 4.63263 12.5157 5.68421H3.04206C3.04206 4.63263 3.75258 4.5 3.75258 4.5C3.71085 3.7624 3.89178 3.02928 4.27187 2.39579C4.65197 1.76229 5.2137 1.25765 5.88416 0.947368V3.31579H6.83153V0.473684C6.83153 0.208421 7.03995 0 7.30521 0" fill="white"/>
</svg>
