<svg width="16" height="19" viewBox="0 0 16 19" fill="none" xmlns="http://www.w3.org/2000/svg">
<path d="M11.5676 7.16283C11.5676 12.2123 3.98869 12.2123 3.98869 7.16283H5.88343C5.88343 9.6923 9.6729 9.6923 9.6729 7.16283M15.3571 15.6891V18.5312H0.199219V15.6891C0.199219 13.1597 5.24869 11.8997 7.77817 11.8997C10.3076 11.8997 15.3571 13.1597 15.3571 15.6891ZM13.5571 15.6891C13.5571 15.0828 10.5919 13.6997 7.77817 13.6997C4.96448 13.6997 1.99922 15.0828 1.99922 15.6891V16.7313H13.5571M8.25185 0.53125C8.51711 0.53125 8.72553 0.739671 8.72553 1.00493V3.84704H9.6729V1.47862C10.3434 1.7889 10.9051 2.29354 11.2852 2.92704C11.6653 3.56053 11.8462 4.29365 11.8045 5.03125C11.8045 5.03125 12.4676 5.16388 12.515 6.21546H3.04132C3.04132 5.16388 3.75185 5.03125 3.75185 5.03125C3.71012 4.29365 3.89104 3.56053 4.27114 2.92704C4.65124 2.29354 5.21297 1.7889 5.88343 1.47862V3.84704H6.8308V1.00493C6.8308 0.739671 7.03922 0.53125 7.30448 0.53125" fill="black"/>
</svg>
