<svg width="18" height="20" viewBox="0 0 18 20" fill="none" xmlns="http://www.w3.org/2000/svg">
<path d="M1 1H13.6C15.2974 1 16.1452 1 16.6726 1.5274C17.2 2.0548 17.2 2.9026 17.2 4.6V10C17.2 11.6974 17.2 12.5452 16.6726 13.0726C16.1452 13.6 15.2974 13.6 13.6 13.6H7.3M8.2 5.05H13.6M1 14.5V10.9C1 10.0513 1 9.6274 1.2637 9.3637C1.5274 9.1 1.9513 9.1 2.8 9.1H4.6M1 14.5H4.6M1 14.5V19M4.6 9.1V14.5M4.6 9.1H10M4.6 14.5V19M4.6 5.05C4.6 5.52739 4.41036 5.98523 4.07279 6.32279C3.73523 6.66036 3.27739 6.85 2.8 6.85C2.32261 6.85 1.86477 6.66036 1.52721 6.32279C1.18964 5.98523 1 5.52739 1 5.05C1 4.57261 1.18964 4.11477 1.52721 3.77721C1.86477 3.43964 2.32261 3.25 2.8 3.25C3.27739 3.25 3.73523 3.43964 4.07279 3.77721C4.41036 4.11477 4.6 4.57261 4.6 5.05Z" stroke="white" stroke-width="1.5" stroke-linecap="round" stroke-linejoin="round"/>
</svg>
