<svg width="18" height="21" viewBox="0 0 18 21" fill="none" xmlns="http://www.w3.org/2000/svg">
<path d="M1 1.53125H13.6C15.2974 1.53125 16.1452 1.53125 16.6726 2.05865C17.2 2.58605 17.2 3.43385 17.2 5.13125V10.5312C17.2 12.2286 17.2 13.0764 16.6726 13.6038C16.1452 14.1312 15.2974 14.1312 13.6 14.1312H7.3M8.2 5.58125H13.6M1 15.0312V11.4312C1 10.5825 1 10.1586 1.2637 9.89495C1.5274 9.63125 1.9513 9.63125 2.8 9.63125H4.6M1 15.0312H4.6M1 15.0312V19.5312M4.6 9.63125V15.0312M4.6 9.63125H10M4.6 15.0312V19.5312M4.6 5.58125C4.6 6.05864 4.41036 6.51648 4.07279 6.85404C3.73523 7.19161 3.27739 7.38125 2.8 7.38125C2.32261 7.38125 1.86477 7.19161 1.52721 6.85404C1.18964 6.51648 1 6.05864 1 5.58125C1 5.10386 1.18964 4.64602 1.52721 4.30846C1.86477 3.97089 2.32261 3.78125 2.8 3.78125C3.27739 3.78125 3.73523 3.97089 4.07279 4.30846C4.41036 4.64602 4.6 5.10386 4.6 5.58125Z" stroke="black" stroke-width="1.5" stroke-linecap="round" stroke-linejoin="round"/>
</svg>
