<svg width="18" height="20" viewBox="0 0 18 20" fill="none" xmlns="http://www.w3.org/2000/svg">
<path d="M16.6596 1.56863H14.1702V0.588235C14.1702 0.432226 14.1097 0.282606 14.002 0.17229C13.8942 0.0619745 13.7481 0 13.5957 0C13.4434 0 13.2973 0.0619745 13.1895 0.17229C13.0818 0.282606 13.0213 0.432226 13.0213 0.588235V1.56863H4.97872V0.588235C4.97872 0.432226 4.9182 0.282606 4.81046 0.17229C4.70273 0.0619745 4.55661 0 4.40426 0C4.2519 0 4.10578 0.0619745 3.99805 0.17229C3.89031 0.282606 3.82979 0.432226 3.82979 0.588235V1.56863H1.34043C0.984923 1.56863 0.64398 1.71324 0.392602 1.97064C0.141223 2.22804 0 2.57715 0 2.94118V18.6275C0 18.9915 0.141223 19.3406 0.392602 19.598C0.64398 19.8554 0.984923 20 1.34043 20H16.6596C17.0151 20 17.356 19.8554 17.6074 19.598C17.8588 19.3406 18 18.9915 18 18.6275V2.94118C18 2.57715 17.8588 2.22804 17.6074 1.97064C17.356 1.71324 17.0151 1.56863 16.6596 1.56863ZM1.34043 2.7451H3.82979V3.72549C3.82979 3.8815 3.89031 4.03112 3.99805 4.14144C4.10578 4.25175 4.2519 4.31373 4.40426 4.31373C4.55661 4.31373 4.70273 4.25175 4.81046 4.14144C4.9182 4.03112 4.97872 3.8815 4.97872 3.72549V2.7451H13.0213V3.72549C13.0213 3.8815 13.0818 4.03112 13.1895 4.14144C13.2973 4.25175 13.4434 4.31373 13.5957 4.31373C13.7481 4.31373 13.8942 4.25175 14.002 4.14144C14.1097 4.03112 14.1702 3.8815 14.1702 3.72549V2.7451H16.6596C16.7104 2.7451 16.7591 2.76576 16.795 2.80253C16.8309 2.8393 16.8511 2.88917 16.8511 2.94118V6.27451H1.14894V2.94118C1.14894 2.88917 1.16911 2.8393 1.20502 2.80253C1.24093 2.76576 1.28964 2.7451 1.34043 2.7451ZM16.6596 18.8235H1.34043C1.28964 18.8235 1.24093 18.8029 1.20502 18.7661C1.16911 18.7293 1.14894 18.6795 1.14894 18.6275V7.45098H16.8511V18.6275C16.8511 18.6795 16.8309 18.7293 16.795 18.7661C16.7591 18.8029 16.7104 18.8235 16.6596 18.8235ZM7.2766 10V16.2745C7.2766 16.4305 7.21607 16.5801 7.10834 16.6905C7.0006 16.8008 6.85449 16.8627 6.70213 16.8627C6.54977 16.8627 6.40365 16.8008 6.29592 16.6905C6.18818 16.5801 6.12766 16.4305 6.12766 16.2745V10.952L5.42681 11.3108C5.35929 11.3453 5.28579 11.3658 5.21052 11.3713C5.13525 11.3767 5.05967 11.3669 4.9881 11.3424C4.91652 11.3179 4.85037 11.2792 4.7934 11.2285C4.73643 11.1779 4.68976 11.1162 4.65606 11.0471C4.62237 10.9779 4.6023 10.9027 4.59701 10.8256C4.59171 10.7485 4.6013 10.6711 4.62521 10.5978C4.64913 10.5245 4.68691 10.4568 4.73639 10.3985C4.78588 10.3401 4.8461 10.2923 4.91362 10.2578L6.44553 9.47353C6.53313 9.42875 6.63045 9.40764 6.72826 9.4122C6.82606 9.41676 6.9211 9.44684 7.00437 9.49958C7.08763 9.55233 7.15634 9.62599 7.20399 9.71357C7.25163 9.80115 7.27663 9.89975 7.2766 10ZM12.9801 12.8676L10.9149 15.6863H12.8298C12.9821 15.6863 13.1283 15.7483 13.236 15.8586C13.3437 15.9689 13.4043 16.1185 13.4043 16.2745C13.4043 16.4305 13.3437 16.5801 13.236 16.6905C13.1283 16.8008 12.9821 16.8627 12.8298 16.8627H9.76596C9.65927 16.8627 9.55469 16.8323 9.46394 16.7749C9.37319 16.7175 9.29985 16.6353 9.25214 16.5376C9.20443 16.4399 9.18423 16.3305 9.19381 16.2217C9.20339 16.1129 9.24237 16.009 9.30638 15.9216L12.0638 12.1569C12.1432 12.05 12.2004 11.9276 12.2317 11.7973C12.263 11.6669 12.2678 11.5313 12.2459 11.399C12.2239 11.2666 12.1757 11.1403 12.1041 11.0278C12.0325 10.9153 11.9391 10.8191 11.8297 10.7451C11.7203 10.6711 11.5972 10.6209 11.4681 10.5976C11.339 10.5743 11.2066 10.5784 11.0791 10.6097C10.9516 10.6409 10.8317 10.6986 10.7269 10.7793C10.622 10.8599 10.5345 10.9617 10.4697 11.0784C10.4354 11.1516 10.3868 11.2167 10.3268 11.2696C10.2667 11.3226 10.1967 11.3623 10.121 11.3862C10.0453 11.4101 9.96557 11.4177 9.88686 11.4085C9.80815 11.3994 9.73213 11.3736 9.6636 11.3329C9.59506 11.2923 9.53549 11.2375 9.48861 11.1721C9.44173 11.1067 9.40857 11.0321 9.39121 10.953C9.37385 10.8738 9.37266 10.7918 9.38772 10.7122C9.40278 10.6326 9.43376 10.557 9.47872 10.4902C9.6231 10.2364 9.81657 10.0155 10.0473 9.84096C10.278 9.66645 10.5411 9.54202 10.8204 9.47531C11.0998 9.4086 11.3895 9.40101 11.6718 9.45301C11.9541 9.50501 12.223 9.61551 12.4622 9.77772C12.7013 9.93993 12.9055 10.1504 13.0624 10.3963C13.2192 10.6422 13.3254 10.9184 13.3743 11.2078C13.4233 11.4972 13.414 11.7938 13.347 12.0794C13.28 12.3649 13.1568 12.6335 12.9849 12.8686L12.9801 12.8676Z" fill="#6B676E"/>
</svg>
