<svg width="20" height="21" viewBox="0 0 20 21" fill="none" xmlns="http://www.w3.org/2000/svg">
<path d="M0 18.5769C0 19.1292 0.447715 19.5769 1 19.5769C1.55228 19.5769 2 19.1292 2 18.5769H0ZM9.30769 12.1923C9.85998 12.1923 10.3077 11.7446 10.3077 11.1923C10.3077 10.64 9.85998 10.1923 9.30769 10.1923V12.1923ZM15.3846 13.9615C15.3846 13.4093 14.9369 12.9615 14.3846 12.9615C13.8323 12.9615 13.3846 13.4093 13.3846 13.9615H15.3846ZM14.3846 15.8077H13.3846C13.3846 16.36 13.8323 16.8077 14.3846 16.8077V15.8077ZM16.2308 16.8077C16.7831 16.8077 17.2308 16.36 17.2308 15.8077C17.2308 15.2554 16.7831 14.8077 16.2308 14.8077V16.8077ZM12.4615 4.73077C12.4615 5.96279 11.4628 6.96154 10.2308 6.96154V8.96154C12.5674 8.96154 14.4615 7.06736 14.4615 4.73077H12.4615ZM10.2308 6.96154C8.99875 6.96154 8 5.96279 8 4.73077H6C6 7.06736 7.89418 8.96154 10.2308 8.96154V6.96154ZM8 4.73077C8 3.49875 8.99875 2.5 10.2308 2.5V0.5C7.89418 0.5 6 2.39418 6 4.73077H8ZM10.2308 2.5C11.4628 2.5 12.4615 3.49875 12.4615 4.73077H14.4615C14.4615 2.39418 12.5674 0.5 10.2308 0.5V2.5ZM2 18.5769C2 15.1581 5.15782 12.1923 9.30769 12.1923V10.1923C4.28126 10.1923 0 13.8385 0 18.5769H2ZM18 15.3462C18 17.088 16.588 18.5 14.8462 18.5V20.5C17.6925 20.5 20 18.1925 20 15.3462H18ZM14.8462 18.5C13.1043 18.5 11.6923 17.088 11.6923 15.3462H9.69231C9.69231 18.1925 11.9998 20.5 14.8462 20.5V18.5ZM11.6923 15.3462C11.6923 13.6043 13.1043 12.1923 14.8462 12.1923V10.1923C11.9998 10.1923 9.69231 12.4998 9.69231 15.3462H11.6923ZM14.8462 12.1923C16.588 12.1923 18 13.6043 18 15.3462H20C20 12.4998 17.6925 10.1923 14.8462 10.1923V12.1923ZM13.3846 13.9615V15.8077H15.3846V13.9615H13.3846ZM14.3846 16.8077H16.2308V14.8077H14.3846V16.8077Z" fill="#0BDBB6"/>
</svg>
