<svg width="25" height="21" viewBox="0 0 25 21" fill="none" xmlns="http://www.w3.org/2000/svg">
<path d="M1 7.22727H23.9091M21.8636 19.5H3.04545C2.50297 19.5 1.9827 19.2845 1.5991 18.9009C1.2155 18.5173 1 17.997 1 17.4545V3.54545C1 3.00297 1.2155 2.4827 1.5991 2.0991C1.9827 1.7155 2.50297 1.5 3.04545 1.5H6.92619C7.33006 1.50001 7.72489 1.61958 8.06091 1.84364L9.48454 2.79273C9.82056 3.01678 10.2154 3.13635 10.6193 3.13636H21.8636C22.4061 3.13636 22.9264 3.35187 23.31 3.73546C23.6936 4.11906 23.9091 4.63933 23.9091 5.18182V17.4545C23.9091 17.997 23.6936 18.5173 23.31 18.9009C22.9264 19.2845 22.4061 19.5 21.8636 19.5Z" stroke="#0BDBB6" stroke-width="1.5" stroke-linecap="round" stroke-linejoin="round"/>
</svg>
