<svg width="20" height="21" viewBox="0 0 20 21" fill="none" xmlns="http://www.w3.org/2000/svg">
<path d="M1 17.25H0.25H1ZM5.5 12.75V12V12.75ZM14.5 12.75V12V12.75ZM1.75 17.25C1.75 16.2554 2.14509 15.3016 2.84835 14.5983L1.78769 13.5377C0.803123 14.5223 0.25 15.8576 0.25 17.25H1.75ZM2.84835 14.5983C3.55161 13.8951 4.50544 13.5 5.5 13.5V12C4.10761 12 2.77226 12.5531 1.78769 13.5377L2.84835 14.5983ZM5.5 13.5H14.5V12H5.5V13.5ZM14.5 13.5C15.4946 13.5 16.4484 13.8951 17.1516 14.5983L18.2123 13.5377C17.2277 12.5531 15.8924 12 14.5 12V13.5ZM17.1516 14.5983C17.8549 15.3016 18.25 16.2554 18.25 17.25H19.75C19.75 15.8576 19.1969 14.5223 18.2123 13.5377L17.1516 14.5983ZM18.25 17.25C18.25 17.6478 18.092 18.0294 17.8107 18.3107L18.8713 19.3713C19.4339 18.8087 19.75 18.0457 19.75 17.25H18.25ZM17.8107 18.3107C17.5294 18.592 17.1478 18.75 16.75 18.75V20.25C17.5457 20.25 18.3087 19.9339 18.8713 19.3713L17.8107 18.3107ZM16.75 18.75H3.25V20.25H16.75V18.75ZM3.25 18.75C2.85218 18.75 2.47064 18.592 2.18934 18.3107L1.12868 19.3713C1.69129 19.9339 2.45435 20.25 3.25 20.25V18.75ZM2.18934 18.3107C1.90804 18.0294 1.75 17.6478 1.75 17.25H0.25C0.25 18.0457 0.56607 18.8087 1.12868 19.3713L2.18934 18.3107ZM12.625 4.875C12.625 6.32475 11.4497 7.5 10 7.5V9C12.2782 9 14.125 7.15317 14.125 4.875H12.625ZM10 7.5C8.55025 7.5 7.375 6.32475 7.375 4.875H5.875C5.875 7.15317 7.72183 9 10 9V7.5ZM7.375 4.875C7.375 3.42525 8.55025 2.25 10 2.25V0.75C7.72183 0.75 5.875 2.59683 5.875 4.875H7.375ZM10 2.25C11.4497 2.25 12.625 3.42525 12.625 4.875H14.125C14.125 2.59683 12.2782 0.75 10 0.75V2.25Z" fill="#0BDBB6"/>
</svg>
